{
copyright = "Copyright (c) 2015, Impallari Type (www.impallari.com), with Reserved Font Name Libre Franklin.";
customParameters = (
{
name = openTypeOS2Type;
value = (
);
},
{
name = licenseURL;
value = "http://scripts.sil.org/OFL";
},
{
name = license;
value = "This Font Software is licensed under the SIL Open Font License, Version 1.1. This license is available with a FAQ at: http://scripts.sil.org/OFL";
},
{
name = trademark;
value = "Libre Franklin is a trademark of Impallari Type.";
},
{
name = description;
value = "Libre Franklin is an ATF Franklin Gothic Revival";
},
{
name = vendorID;
value = IMPA;
}
);
date = "2015-06-02 16:26:24 +0000";
designer = "Pablo Impallari, Rodrigo Fuenzalida";
designerURL = "http://www.impallari.com/";
familyName = "Libre Franklin";
fontMaster = (
{
alignmentZones = (
"{800, 16}",
"{700, 16}",
"{500, 16}",
"{0, -16}",
"{-200, -16}"
);
ascender = 800;
capHeight = 700;
customParameters = (
{
name = typoAscender;
value = "924";
},
{
name = typoDescender;
value = "-326";
},
{
name = typoLineGap;
value = "0";
},
{
name = winAscent;
value = "924";
},
{
name = winDescent;
value = "-326";
}
);
descender = -200;
id = "258ED206-D907-4350-8EBA-CBDDA1C16BF7";
xHeight = 500;
}
);
glyphs = (
{
glyphname = A;
lastChange = "2015-06-01 23:39:56 +0000";
layers = (
{
layerId = "258ED206-D907-4350-8EBA-CBDDA1C16BF7";
name = Regular;
paths = (
{
closed = 1;
nodes = (
"244 700 OFFCURVE",
"242 699 OFFCURVE",
"234 690 CURVE SMOOTH",
"229 683 OFFCURVE",
"215 646 OFFCURVE",
"215 637 CURVE SMOOTH",
"215 635 OFFCURVE",
"214 629 OFFCURVE",
"212 625 CURVE SMOOTH",
"209 621 OFFCURVE",
"205 607 OFFCURVE",
"201 594 CURVE SMOOTH",
"197 580 OFFCURVE",
"192 566 OFFCURVE",
"190 562 CURVE SMOOTH",
"185 551 OFFCURVE",
"176 524 OFFCURVE",
"167 491 CURVE SMOOTH",
"164 484 OFFCURVE",
"161 475 OFFCURVE",
"159 471 CURVE SMOOTH",
"157 467 OFFCURVE",
"153 458 OFFCURVE",
"151 450 CURVE SMOOTH",
"149 443 OFFCURVE",
"145 434 OFFCURVE",
"144 430 CURVE SMOOTH",
"142 426 OFFCURVE",
"138 414 OFFCURVE",
"135 402 CURVE SMOOTH",
"131 390 OFFCURVE",
"127 377 OFFCURVE",
"125 372 CURVE SMOOTH",
"120 362 OFFCURVE",
"101 308 OFFCURVE",
"96 292 CURVE SMOOTH",
"94 285 OFFCURVE",
"88 265 OFFCURVE",
"82 248 CURVE SMOOTH",
"76 230 OFFCURVE",
"68 207 OFFCURVE",
"64 196 CURVE SMOOTH",
"61 185 OFFCURVE",
"56 171 OFFCURVE",
"53 166 CURVE SMOOTH",
"50 160 OFFCURVE",
"48 153 OFFCURVE",
"47 148 CURVE SMOOTH",
"46 144 OFFCURVE",
"44 137 OFFCURVE",
"42 132 CURVE SMOOTH",
"33 111 OFFCURVE",
"26 93 OFFCURVE",
"23 78 CURVE SMOOTH",
"20 69 OFFCURVE",
"16 57 OFFCURVE",
"13 51 CURVE SMOOTH",
"8 44 OFFCURVE",
"6 37 OFFCURVE",
"5 27 CURVE SMOOTH",
"4 14 OFFCURVE",
"4 13 OFFCURVE",
"10 7 CURVE SMOOTH",
"16 0 LINE",
"92 0 LINE SMOOTH",
"190 0 OFFCURVE",
"184 -2 OFFCURVE",
"196 39 CURVE SMOOTH",
"199 51 OFFCURVE",
"203 66 OFFCURVE",
"204 72 CURVE SMOOTH",
"210 97 OFFCURVE",
"220 127 OFFCURVE",
"224 134 CURVE SMOOTH",
"229 142 LINE",
"246 141 LINE SMOOTH",
"257 140 OFFCURVE",
"264 141 OFFCURVE",
"266 142 CURVE SMOOTH",
"269 144 OFFCURVE",
"271 144 OFFCURVE",
"274 142 CURVE SMOOTH",
"276 141 OFFCURVE",
"279 139 OFFCURVE",
"281 139 CURVE SMOOTH",
"283 139 OFFCURVE",
"286 138 OFFCURVE",
"287 137 CURVE SMOOTH",
"288 136 OFFCURVE",
"290 136 OFFCURVE",
"292 137 CURVE SMOOTH",
"294 139 OFFCURVE",
"318 140 OFFCURVE",
"342 140 CURVE SMOOTH",
"346 139 OFFCURVE",
"355 140 OFFCURVE",
"362 140 CURVE SMOOTH",
"381 140 OFFCURVE",
"385 140 OFFCURVE",
"392 140 CURVE SMOOTH",
"397 139 OFFCURVE",
"422 142 OFFCURVE",
"432 144 CURVE SMOOTH",
"441 147 OFFCURVE",
"445 139 OFFCURVE",
"449 108 CURVE SMOOTH",
"450 100 OFFCURVE",
"454 85 OFFCURVE",
"458 74 CURVE SMOOTH",
"462 63 OFFCURVE",
"466 48 OFFCURVE",
"468 40 CURVE SMOOTH",
"472 21 OFFCURVE",
"477 10 OFFCURVE",
"484 6 CURVE SMOOTH",
"489 2 OFFCURVE",
"495 2 OFFCURVE",
"586 2 CURVE SMOOTH",
"651 2 OFFCURVE",
"684 3 OFFCURVE",
"686 4 CURVE SMOOTH",
"689 6 OFFCURVE",
"692 9 OFFCURVE",
"693 13 CURVE SMOOTH",
"695 18 OFFCURVE",
"695 21 OFFCURVE",
"690 38 CURVE SMOOTH",
"687 48 OFFCURVE",
"683 61 OFFCURVE",
"680 67 CURVE SMOOTH",
"676 77 OFFCURVE",
"671 92 OFFCURVE",
"661 120 CURVE SMOOTH",
"656 134 OFFCURVE",
"642 178 OFFCURVE",
"638 193 CURVE SMOOTH",
"636 202 OFFCURVE",
"631 215 OFFCURVE",
"627 224 CURVE SMOOTH",
"624 232 OFFCURVE",
"621 240 OFFCURVE",
"621 242 CURVE SMOOTH",
"621 243 OFFCURVE",
"619 249 OFFCURVE",
"617 253 CURVE SMOOTH",
"614 258 OFFCURVE",
"610 269 OFFCURVE",
"608 278 CURVE SMOOTH",
"606 287 OFFCURVE",
"601 301 OFFCURVE",
"598 308 CURVE SMOOTH",
"595 316 OFFCURVE",
"591 327 OFFCURVE",
"589 333 CURVE SMOOTH",
"587 338 OFFCURVE",
"585 347 OFFCURVE",
"583 352 CURVE SMOOTH",
"581 357 OFFCURVE",
"575 377 OFFCURVE",
"568 396 CURVE SMOOTH",
"562 416 OFFCURVE",
"555 435 OFFCURVE",
"554 439 CURVE SMOOTH",
"552 443 OFFCURVE",
"548 457 OFFCURVE",
"544 470 CURVE SMOOTH",
"540 483 OFFCURVE",
"534 499 OFFCURVE",
"531 505 CURVE SMOOTH",
"528 512 OFFCURVE",
"525 518 OFFCURVE",
"525 519 CURVE SMOOTH",
"525 521 OFFCURVE",
"522 532 OFFCURVE",
"518 544 CURVE SMOOTH",
"515 556 OFFCURVE",
"509 573 OFFCURVE",
"506 582 CURVE SMOOTH",
"503 591 OFFCURVE",
"500 600 OFFCURVE",
"498 602 CURVE SMOOTH",
"497 603 OFFCURVE",
"496 607 OFFCURVE",
"496 609 CURVE SMOOTH",
"496 612 OFFCURVE",
"494 619 OFFCURVE",
"484 642 CURVE SMOOTH",
"482 648 OFFCURVE",
"480 654 OFFCURVE",
"480 657 CURVE SMOOTH",
"480 659 OFFCURVE",
"479 663 OFFCURVE",
"478 664 CURVE SMOOTH",
"476 665 OFFCURVE",
"474 669 OFFCURVE",
"474 672 CURVE SMOOTH",
"472 681 OFFCURVE",
"459 695 OFFCURVE",
"451 697 CURVE SMOOTH",
"440 701 OFFCURVE",
"301 703 OFFCURVE",
"264 701 CURVE SMOOTH"
);
},
{
closed = 1;
nodes = (
"337 478 OFFCURVE",
"339 474 OFFCURVE",
"340 471 CURVE SMOOTH",
"342 462 OFFCURVE",
"353 430 OFFCURVE",
"360 412 CURVE SMOOTH",
"363 404 OFFCURVE",
"366 394 OFFCURVE",
"367 389 CURVE SMOOTH",
"367 384 OFFCURVE",
"369 377 OFFCURVE",
"371 373 CURVE SMOOTH",
"377 361 OFFCURVE",
"391 314 OFFCURVE",
"391 305 CURVE SMOOTH",
"391 303 OFFCURVE",
"389 300 OFFCURVE",
"387 298 CURVE SMOOTH",
"383 295 OFFCURVE",
"379 294 OFFCURVE",
"330 295 CURVE SMOOTH",
"262 295 OFFCURVE",
"265 292 OFFCURVE",
"284 348 CURVE SMOOTH",
"303 406 OFFCURVE",
"304 408 OFFCURVE",
"311 403 CURVE SMOOTH",
"317 399 OFFCURVE",
"319 400 OFFCURVE",
"335 412 CURVE SMOOTH",
"350 423 LINE",
"343 428 LINE SMOOTH",
"340 431 OFFCURVE",
"336 433 OFFCURVE",
"334 433 CURVE SMOOTH",
"333 432 OFFCURVE",
"328 433 OFFCURVE",
"324 434 CURVE SMOOTH",
"316 436 LINE",
"318 444 LINE SMOOTH",
"319 455 OFFCURVE",
"326 477 OFFCURVE",
"329 480 CURVE SMOOTH",
"331 483 OFFCURVE",
"333 483 OFFCURVE",
"336 480 CURVE SMOOTH"
);
}
);
width = 700;
}
);
unicode = 0041;
},
{
glyphname = B;
lastChange = "2015-06-01 23:40:15 +0000";
layers = (
{
layerId = "258ED206-D907-4350-8EBA-CBDDA1C16BF7";
name = Regular;
paths = (
{
closed = 1;
nodes = (
"53 698 OFFCURVE",
"50 693 OFFCURVE",
"47 689 CURVE SMOOTH",
"43 680 OFFCURVE",
"43 679 OFFCURVE",
"42 524 CURVE SMOOTH",
"41 438 OFFCURVE",
"41 348 OFFCURVE",
"41 324 CURVE SMOOTH",
"41 300 OFFCURVE",
"42 220 OFFCURVE",
"42 148 CURVE SMOOTH",
"42 25 OFFCURVE",
"43 14 OFFCURVE",
"46 10 CURVE SMOOTH",
"52 0 OFFCURVE",
"56 -1 OFFCURVE",
"163 0 CURVE SMOOTH",
"242 1 OFFCURVE",
"264 1 OFFCURVE",
"324 1 CURVE SMOOTH",
"390 0 OFFCURVE",
"480 3 OFFCURVE",
"492 6 CURVE SMOOTH",
"497 7 OFFCURVE",
"508 9 OFFCURVE",
"517 11 CURVE SMOOTH",
"542 16 OFFCURVE",
"547 17 OFFCURVE",
"553 20 CURVE SMOOTH",
"556 21 OFFCURVE",
"563 23 OFFCURVE",
"568 24 CURVE SMOOTH",
"579 27 OFFCURVE",
"600 37 OFFCURVE",
"604 42 CURVE SMOOTH",
"606 44 OFFCURVE",
"611 47 OFFCURVE",
"615 49 CURVE SMOOTH",
"626 55 OFFCURVE",
"642 70 OFFCURVE",
"651 83 CURVE SMOOTH",
"661 97 OFFCURVE",
"675 128 OFFCURVE",
"675 135 CURVE SMOOTH",
"675 138 OFFCURVE",
"677 145 OFFCURVE",
"679 153 CURVE SMOOTH",
"685 172 OFFCURVE",
"685 205 OFFCURVE",
"678 233 CURVE SMOOTH",
"675 245 OFFCURVE",
"670 257 OFFCURVE",
"668 261 CURVE SMOOTH",
"666 264 OFFCURVE",
"663 270 OFFCURVE",
"662 273 CURVE SMOOTH",
"658 286 OFFCURVE",
"631 315 OFFCURVE",
"617 320 CURVE SMOOTH",
"612 322 OFFCURVE",
"606 327 OFFCURVE",
"601 330 CURVE SMOOTH",
"591 338 OFFCURVE",
"564 351 OFFCURVE",
"558 351 CURVE SMOOTH",
"556 351 OFFCURVE",
"552 353 OFFCURVE",
"547 355 CURVE SMOOTH",
"538 358 OFFCURVE",
"536 363 OFFCURVE",
"543 363 CURVE SMOOTH",
"545 363 OFFCURVE",
"547 364 OFFCURVE",
"547 365 CURVE SMOOTH",
"547 366 OFFCURVE",
"551 369 OFFCURVE",
"557 371 CURVE SMOOTH",
"578 380 OFFCURVE",
"603 397 OFFCURVE",
"623 416 CURVE SMOOTH",
"646 439 OFFCURVE",
"656 459 OFFCURVE",
"662 491 CURVE SMOOTH",
"664 504 OFFCURVE",
"665 518 OFFCURVE",
"665 523 CURVE SMOOTH",
"665 540 OFFCURVE",
"656 574 OFFCURVE",
"648 585 CURVE SMOOTH",
"647 588 OFFCURVE",
"644 593 OFFCURVE",
"642 596 CURVE SMOOTH",
"639 602 OFFCURVE",
"624 621 OFFCURVE",
"611 634 CURVE SMOOTH",
"607 639 OFFCURVE",
"599 645 OFFCURVE",
"594 648 CURVE SMOOTH",
"589 650 OFFCURVE",
"582 654 OFFCURVE",
"579 657 CURVE SMOOTH",
"570 663 OFFCURVE",
"559 668 OFFCURVE",
"546 672 CURVE SMOOTH",
"540 674 OFFCURVE",
"534 676 OFFCURVE",
"534 677 CURVE SMOOTH",
"529 685 OFFCURVE",
"449 696 OFFCURVE",
"390 697 CURVE SMOOTH",
"369 697 OFFCURVE",
"311 697 OFFCURVE",
"260 698 CURVE SMOOTH",
"209 698 OFFCURVE",
"143 699 OFFCURVE",
"114 699 CURVE SMOOTH",
"82 700 OFFCURVE",
"58 700 OFFCURVE",
"56 699 CURVE SMOOTH"
);
},
{
closed = 1;
nodes = (
"412 556 OFFCURVE",
"431 546 OFFCURVE",
"446 520 CURVE SMOOTH",
"455 505 OFFCURVE",
"455 482 OFFCURVE",
"445 461 CURVE SMOOTH",
"441 453 OFFCURVE",
"423 437 OFFCURVE",
"417 437 CURVE SMOOTH",
"415 437 OFFCURVE",
"411 436 OFFCURVE",
"408 435 CURVE SMOOTH",
"406 433 OFFCURVE",
"397 431 OFFCURVE",
"389 430 CURVE SMOOTH",
"373 428 OFFCURVE",
"271 428 OFFCURVE",
"265 430 CURVE SMOOTH",
"256 433 OFFCURVE",
"255 437 OFFCURVE",
"256 489 CURVE SMOOTH",
"256 538 OFFCURVE",
"257 552 OFFCURVE",
"262 555 CURVE SMOOTH",
"266 558 OFFCURVE",
"307 560 OFFCURVE",
"336 559 CURVE SMOOTH",
"350 558 OFFCURVE",
"371 557 OFFCURVE",
"381 557 CURVE SMOOTH"
);
},
{
closed = 1;
nodes = (
"398 280 OFFCURVE",
"401 279 OFFCURVE",
"425 267 CURVE SMOOTH",
"445 257 OFFCURVE",
"449 254 OFFCURVE",
"455 240 CURVE SMOOTH",
"459 232 OFFCURVE",
"460 227 OFFCURVE",
"459 214 CURVE SMOOTH",
"459 193 OFFCURVE",
"454 180 OFFCURVE",
"441 166 CURVE SMOOTH",
"426 151 OFFCURVE",
"414 145 OFFCURVE",
"388 142 CURVE SMOOTH",
"365 140 OFFCURVE",
"363 140 OFFCURVE",
"339 142 CURVE SMOOTH",
"315 143 OFFCURVE",
"303 143 OFFCURVE",
"287 142 CURVE SMOOTH",
"271 141 OFFCURVE",
"261 143 OFFCURVE",
"258 149 CURVE SMOOTH",
"256 153 OFFCURVE",
"255 206 OFFCURVE",
"257 209 CURVE SMOOTH",
"257 210 OFFCURVE",
"257 214 OFFCURVE",
"256 220 CURVE SMOOTH",
"254 230 OFFCURVE",
"257 267 OFFCURVE",
"260 275 CURVE SMOOTH",
"261 278 OFFCURVE",
"263 279 OFFCURVE",
"266 278 CURVE SMOOTH",
"269 278 OFFCURVE",
"275 278 OFFCURVE",
"280 279 CURVE SMOOTH",
"286 280 OFFCURVE",
"306 280 OFFCURVE",
"326 280 CURVE SMOOTH",
"346 279 OFFCURVE",
"370 279 OFFCURVE",
"380 279 CURVE SMOOTH"
);
}
);
width = 700;
}
);
unicode = 0042;
},
{
glyphname = C;
lastChange = "2015-06-01 23:40:26 +0000";
layers = (
{
layerId = "258ED206-D907-4350-8EBA-CBDDA1C16BF7";
name = Regular;
paths = (
{
closed = 1;
nodes = (
"363 706 OFFCURVE",
"353 705 OFFCURVE",
"341 705 CURVE SMOOTH",
"330 705 OFFCURVE",
"317 704 OFFCURVE",
"314 704 CURVE SMOOTH",
"310 703 OFFCURVE",
"298 701 OFFCURVE",
"288 699 CURVE SMOOTH",
"262 695 OFFCURVE",
"239 688 OFFCURVE",
"220 679 CURVE SMOOTH",
"214 675 OFFCURVE",
"207 673 OFFCURVE",
"205 673 CURVE SMOOTH",
"204 673 OFFCURVE",
"198 669 OFFCURVE",
"192 665 CURVE SMOOTH",
"186 660 OFFCURVE",
"178 655 OFFCURVE",
"172 652 CURVE SMOOTH",
"164 648 OFFCURVE",
"146 635 OFFCURVE",
"131 622 CURVE SMOOTH",
"122 614 OFFCURVE",
"107 596 OFFCURVE",
"104 590 CURVE SMOOTH",
"103 586 OFFCURVE",
"100 583 OFFCURVE",
"99 583 CURVE SMOOTH",
"94 583 OFFCURVE",
"61 523 OFFCURVE",
"48 490 CURVE SMOOTH",
"44 480 OFFCURVE",
"39 464 OFFCURVE",
"38 456 CURVE SMOOTH",
"36 447 OFFCURVE",
"34 437 OFFCURVE",
"33 434 CURVE SMOOTH",
"28 416 OFFCURVE",
"26 351 OFFCURVE",
"30 303 CURVE SMOOTH",
"32 269 OFFCURVE",
"34 259 OFFCURVE",
"44 226 CURVE SMOOTH",
"47 217 OFFCURVE",
"50 206 OFFCURVE",
"51 201 CURVE SMOOTH",
"54 191 OFFCURVE",
"72 155 OFFCURVE",
"79 143 CURVE SMOOTH",
"82 139 OFFCURVE",
"87 132 OFFCURVE",
"90 127 CURVE SMOOTH",
"93 123 OFFCURVE",
"95 119 OFFCURVE",
"95 118 CURVE SMOOTH",
"95 117 OFFCURVE",
"100 112 OFFCURVE",
"105 106 CURVE SMOOTH",
"111 101 OFFCURVE",
"116 95 OFFCURVE",
"118 92 CURVE SMOOTH",
"124 83 OFFCURVE",
"171 44 OFFCURVE",
"184 38 CURVE SMOOTH",
"187 37 OFFCURVE",
"195 33 OFFCURVE",
"200 29 CURVE SMOOTH",
"218 19 OFFCURVE",
"262 4 OFFCURVE",
"283 0 CURVE SMOOTH",
"290 -1 OFFCURVE",
"300 -2 OFFCURVE",
"307 -4 CURVE SMOOTH",
"317 -5 OFFCURVE",
"350 -7 OFFCURVE",
"375 -8 CURVE SMOOTH",
"405 -9 OFFCURVE",
"471 4 OFFCURVE",
"482 12 CURVE SMOOTH",
"483 13 OFFCURVE",
"486 14 OFFCURVE",
"489 15 CURVE SMOOTH",
"498 18 OFFCURVE",
"542 40 OFFCURVE",
"553 47 CURVE SMOOTH",
"559 51 OFFCURVE",
"569 58 OFFCURVE",
"575 64 CURVE SMOOTH",
"582 70 OFFCURVE",
"587 74 OFFCURVE",
"588 74 CURVE SMOOTH",
"589 74 OFFCURVE",
"594 79 OFFCURVE",
"598 85 CURVE SMOOTH",
"603 91 OFFCURVE",
"610 100 OFFCURVE",
"614 104 CURVE SMOOTH",
"619 108 OFFCURVE",
"624 115 OFFCURVE",
"627 119 CURVE SMOOTH",
"637 132 OFFCURVE",
"665 190 OFFCURVE",
"670 210 CURVE SMOOTH",
"674 223 OFFCURVE",
"669 233 OFFCURVE",
"657 239 CURVE SMOOTH",
"647 243 OFFCURVE",
"633 246 OFFCURVE",
"616 247 CURVE SMOOTH",
"601 248 OFFCURVE",
"595 249 OFFCURVE",
"577 255 CURVE SMOOTH",
"550 264 OFFCURVE",
"523 266 OFFCURVE",
"516 261 CURVE SMOOTH",
"514 259 OFFCURVE",
"509 248 OFFCURVE",
"504 236 CURVE SMOOTH",
"498 223 OFFCURVE",
"491 209 OFFCURVE",
"487 203 CURVE SMOOTH",
"475 185 OFFCURVE",
"455 171 OFFCURVE",
"427 158 CURVE SMOOTH",
"424 157 OFFCURVE",
"421 155 OFFCURVE",
"419 154 CURVE SMOOTH",
"405 147 OFFCURVE",
"363 145 OFFCURVE",
"341 152 CURVE SMOOTH",
"323 158 OFFCURVE",
"316 162 OFFCURVE",
"301 176 CURVE SMOOTH",
"290 186 OFFCURVE",
"286 191 OFFCURVE",
"280 205 CURVE SMOOTH",
"265 238 OFFCURVE",
"259 258 OFFCURVE",
"258 287 CURVE SMOOTH",
"258 294 OFFCURVE",
"256 308 OFFCURVE",
"255 318 CURVE SMOOTH",
"254 329 OFFCURVE",
"253 352 OFFCURVE",
"254 375 CURVE SMOOTH",
"255 419 OFFCURVE",
"256 434 OFFCURVE",
"260 450 CURVE SMOOTH",
"271 497 OFFCURVE",
"271 497 OFFCURVE",
"285 518 CURVE SMOOTH",
"307 552 OFFCURVE",
"342 567 OFFCURVE",
"383 561 CURVE SMOOTH",
"408 557 OFFCURVE",
"415 554 OFFCURVE",
"433 536 CURVE SMOOTH",
"444 526 OFFCURVE",
"450 517 OFFCURVE",
"451 514 CURVE SMOOTH",
"452 511 OFFCURVE",
"454 506 OFFCURVE",
"456 502 CURVE SMOOTH",
"461 492 OFFCURVE",
"466 477 OFFCURVE",
"466 470 CURVE SMOOTH",
"466 460 OFFCURVE",
"470 451 OFFCURVE",
"477 449 CURVE SMOOTH",
"479 449 OFFCURVE",
"492 449 OFFCURVE",
"505 450 CURVE SMOOTH",
"518 452 OFFCURVE",
"533 453 OFFCURVE",
"538 453 CURVE SMOOTH",
"543 452 OFFCURVE",
"551 453 OFFCURVE",
"557 453 CURVE SMOOTH",
"567 454 OFFCURVE",
"594 456 OFFCURVE",
"634 459 CURVE SMOOTH",
"641 460 OFFCURVE",
"648 460 OFFCURVE",
"651 460 CURVE SMOOTH",
"658 460 OFFCURVE",
"665 469 OFFCURVE",
"665 478 CURVE SMOOTH",
"665 490 OFFCURVE",
"654 522 OFFCURVE",
"643 544 CURVE SMOOTH",
"639 552 OFFCURVE",
"635 562 OFFCURVE",
"634 566 CURVE SMOOTH",
"632 570 OFFCURVE",
"629 575 OFFCURVE",
"626 577 CURVE SMOOTH",
"624 580 OFFCURVE",
"622 583 OFFCURVE",
"622 584 CURVE SMOOTH",
"622 585 OFFCURVE",
"618 590 OFFCURVE",
"614 594 CURVE SMOOTH",
"609 598 OFFCURVE",
"604 604 OFFCURVE",
"603 608 CURVE SMOOTH",
"597 619 OFFCURVE",
"588 627 OFFCURVE",
"570 641 CURVE SMOOTH",
"560 648 OFFCURVE",
"550 656 OFFCURVE",
"548 659 CURVE SMOOTH",
"540 665 OFFCURVE",
"508 682 OFFCURVE",
"492 687 CURVE SMOOTH",
"473 694 OFFCURVE",
"465 696 OFFCURVE",
"449 698 CURVE SMOOTH",
"442 699 OFFCURVE",
"431 701 OFFCURVE",
"426 703 CURVE SMOOTH",
"421 704 OFFCURVE",
"413 705 OFFCURVE",
"409 705 CURVE SMOOTH",
"381 708 OFFCURVE",
"365 708 OFFCURVE",
"364 707 CURVE SMOOTH"
);
}
);
width = 700;
}
);
unicode = 0043;
},
{
glyphname = D;
lastChange = "2015-06-01 23:41:13 +0000";
layers = (
{
layerId = "258ED206-D907-4350-8EBA-CBDDA1C16BF7";
name = Regular;
paths = (
{
closed = 1;
nodes = (
"49 696 OFFCURVE",
"45 692 OFFCURVE",
"41 684 CURVE SMOOTH",
"39 678 OFFCURVE",
"38 657 OFFCURVE",
"37 551 CURVE SMOOTH",
"37 375 OFFCURVE",
"36 223 OFFCURVE",
"37 126 CURVE SMOOTH",
"37 81 OFFCURVE",
"36 37 OFFCURVE",
"36 30 CURVE SMOOTH",
"35 18 OFFCURVE",
"35 15 OFFCURVE",
"38 11 CURVE SMOOTH",
"47 0 OFFCURVE",
"53 -1 OFFCURVE",
"90 0 CURVE SMOOTH",
"170 3 OFFCURVE",
"249 4 OFFCURVE",
"306 3 CURVE SMOOTH",
"312 3 OFFCURVE",
"356 5 OFFCURVE",
"376 6 CURVE SMOOTH",
"408 9 OFFCURVE",
"451 17 OFFCURVE",
"461 23 CURVE SMOOTH",
"465 25 OFFCURVE",
"470 27 OFFCURVE",
"474 28 CURVE SMOOTH",
"477 28 OFFCURVE",
"481 30 OFFCURVE",
"482 31 CURVE SMOOTH",
"483 31 OFFCURVE",
"489 34 OFFCURVE",
"495 36 CURVE SMOOTH",
"514 44 OFFCURVE",
"519 46 OFFCURVE",
"541 61 CURVE SMOOTH",
"578 85 OFFCURVE",
"611 119 OFFCURVE",
"631 152 CURVE SMOOTH",
"635 158 OFFCURVE",
"641 168 OFFCURVE",
"645 175 CURVE SMOOTH",
"654 188 OFFCURVE",
"674 246 OFFCURVE",
"674 257 CURVE SMOOTH",
"674 260 OFFCURVE",
"675 269 OFFCURVE",
"676 276 CURVE SMOOTH",
"681 311 OFFCURVE",
"682 325 OFFCURVE",
"682 358 CURVE SMOOTH",
"683 397 OFFCURVE",
"680 419 OFFCURVE",
"670 458 CURVE SMOOTH",
"663 482 OFFCURVE",
"651 515 OFFCURVE",
"644 523 CURVE SMOOTH",
"641 527 OFFCURVE",
"637 534 OFFCURVE",
"635 539 CURVE SMOOTH",
"633 544 OFFCURVE",
"627 554 OFFCURVE",
"621 560 CURVE SMOOTH",
"616 566 OFFCURVE",
"610 574 OFFCURVE",
"608 577 CURVE SMOOTH",
"596 591 OFFCURVE",
"587 600 OFFCURVE",
"575 609 CURVE SMOOTH",
"568 614 OFFCURVE",
"559 620 OFFCURVE",
"556 624 CURVE SMOOTH",
"533 643 OFFCURVE",
"477 669 OFFCURVE",
"446 675 CURVE SMOOTH",
"439 677 OFFCURVE",
"421 680 OFFCURVE",
"406 683 CURVE SMOOTH",
"375 690 OFFCURVE",
"356 692 OFFCURVE",
"301 693 CURVE SMOOTH",
"246 694 OFFCURVE",
"108 698 OFFCURVE",
"98 698 CURVE SMOOTH",
"94 699 OFFCURVE",
"85 700 OFFCURVE",
"79 700 CURVE SMOOTH",
"72 701 OFFCURVE",
"63 700 OFFCURVE",
"59 699 CURVE SMOOTH"
);
},
{
closed = 1;
nodes = (
"308 550 OFFCURVE",
"318 549 OFFCURVE",
"322 549 CURVE SMOOTH",
"361 542 OFFCURVE",
"365 540 OFFCURVE",
"388 527 CURVE SMOOTH",
"420 508 OFFCURVE",
"447 473 OFFCURVE",
"454 442 CURVE SMOOTH",
"455 436 OFFCURVE",
"457 429 OFFCURVE",
"458 426 CURVE SMOOTH",
"462 416 OFFCURVE",
"462 404 OFFCURVE",
"462 353 CURVE SMOOTH",
"462 310 OFFCURVE",
"461 296 OFFCURVE",
"459 287 CURVE SMOOTH",
"457 281 OFFCURVE",
"456 273 OFFCURVE",
"456 270 CURVE SMOOTH",
"456 263 OFFCURVE",
"446 240 OFFCURVE",
"435 222 CURVE SMOOTH",
"426 206 OFFCURVE",
"409 187 OFFCURVE",
"397 179 CURVE SMOOTH",
"383 170 OFFCURVE",
"361 160 OFFCURVE",
"352 158 CURVE SMOOTH",
"347 158 OFFCURVE",
"341 156 OFFCURVE",
"338 155 CURVE SMOOTH",
"329 153 OFFCURVE",
"302 149 OFFCURVE",
"280 148 CURVE SMOOTH",
"253 147 OFFCURVE",
"253 147 OFFCURVE",
"253 174 CURVE SMOOTH",
"252 291 OFFCURVE",
"253 433 OFFCURVE",
"254 434 CURVE SMOOTH",
"255 435 OFFCURVE",
"254 459 OFFCURVE",
"253 487 CURVE SMOOTH",
"252 538 OFFCURVE",
"252 548 OFFCURVE",
"257 551 CURVE SMOOTH",
"258 552 OFFCURVE",
"264 552 OFFCURVE",
"271 552 CURVE SMOOTH",
"278 551 OFFCURVE",
"290 551 OFFCURVE",
"299 550 CURVE SMOOTH"
);
}
);
width = 700;
}
);
unicode = 0044;
},
{
glyphname = E;
lastChange = "2015-06-01 23:41:42 +0000";
layers = (
{
layerId = "258ED206-D907-4350-8EBA-CBDDA1C16BF7";
name = Regular;
paths = (
{
closed = 1;
nodes = (
"61 693 OFFCURVE",
"50 690 OFFCURVE",
"48 688 CURVE SMOOTH",
"46 687 OFFCURVE",
"45 681 OFFCURVE",
"45 673 CURVE SMOOTH",
"45 666 OFFCURVE",
"44 659 OFFCURVE",
"43 658 CURVE SMOOTH",
"42 657 OFFCURVE",
"41 534 OFFCURVE",
"41 385 CURVE SMOOTH",
"41 237 OFFCURVE",
"40 92 OFFCURVE",
"40 64 CURVE SMOOTH",
"40 36 OFFCURVE",
"40 12 OFFCURVE",
"41 10 CURVE SMOOTH",
"42 8 OFFCURVE",
"46 5 OFFCURVE",
"50 3 CURVE SMOOTH",
"57 0 OFFCURVE",
"65 0 OFFCURVE",
"103 0 CURVE SMOOTH",
"167 1 OFFCURVE",
"435 1 OFFCURVE",
"509 1 CURVE SMOOTH",
"579 0 OFFCURVE",
"585 1 OFFCURVE",
"590 12 CURVE SMOOTH",
"592 16 OFFCURVE",
"594 34 OFFCURVE",
"596 74 CURVE SMOOTH",
"600 140 OFFCURVE",
"599 145 OFFCURVE",
"587 153 CURVE SMOOTH",
"579 157 OFFCURVE",
"579 157 OFFCURVE",
"542 156 CURVE SMOOTH",
"522 155 OFFCURVE",
"474 155 OFFCURVE",
"435 155 CURVE SMOOTH",
"381 155 OFFCURVE",
"364 154 OFFCURVE",
"358 152 CURVE SMOOTH",
"353 150 OFFCURVE",
"349 150 OFFCURVE",
"347 151 CURVE SMOOTH",
"345 152 OFFCURVE",
"329 154 OFFCURVE",
"310 154 CURVE SMOOTH",
"283 154 OFFCURVE",
"275 154 OFFCURVE",
"273 152 CURVE SMOOTH",
"271 150 OFFCURVE",
"270 150 OFFCURVE",
"269 151 CURVE SMOOTH",
"268 152 OFFCURVE",
"266 153 OFFCURVE",
"263 153 CURVE SMOOTH",
"254 153 OFFCURVE",
"253 156 OFFCURVE",
"253 202 CURVE SMOOTH",
"253 246 OFFCURVE",
"256 268 OFFCURVE",
"260 273 CURVE SMOOTH",
"263 276 OFFCURVE",
"287 276 OFFCURVE",
"408 275 CURVE SMOOTH",
"459 275 OFFCURVE",
"461 275 OFFCURVE",
"464 290 CURVE SMOOTH",
"467 302 OFFCURVE",
"466 404 OFFCURVE",
"463 413 CURVE SMOOTH",
"460 423 OFFCURVE",
"454 426 OFFCURVE",
"430 428 CURVE SMOOTH",
"417 429 OFFCURVE",
"406 430 OFFCURVE",
"404 430 CURVE SMOOTH",
"369 428 OFFCURVE",
"356 428 OFFCURVE",
"303 428 CURVE SMOOTH",
"251 429 OFFCURVE",
"255 425 OFFCURVE",
"256 481 CURVE SMOOTH",
"256 541 OFFCURVE",
"257 543 OFFCURVE",
"282 543 CURVE SMOOTH",
"288 543 OFFCURVE",
"347 543 OFFCURVE",
"413 542 CURVE SMOOTH",
"480 541 OFFCURVE",
"542 541 OFFCURVE",
"552 540 CURVE SMOOTH",
"573 539 OFFCURVE",
"581 542 OFFCURVE",
"585 553 CURVE SMOOTH",
"587 557 OFFCURVE",
"587 579 OFFCURVE",
"587 621 CURVE SMOOTH",
"587 683 LINE",
"582 689 LINE",
"576 694 LINE",
"502 693 LINE SMOOTH",
"461 693 OFFCURVE",
"424 693 OFFCURVE",
"420 693 CURVE SMOOTH",
"341 692 OFFCURVE",
"125 696 OFFCURVE",
"106 698 CURVE SMOOTH",
"103 698 OFFCURVE",
"88 697 OFFCURVE",
"75 695 CURVE SMOOTH"
);
}
);
width = 620;
}
);
unicode = 0045;
},
{
glyphname = F;
lastChange = "2015-06-01 23:42:00 +0000";
layers = (
{
layerId = "258ED206-D907-4350-8EBA-CBDDA1C16BF7";
name = Regular;
paths = (
{
closed = 1;
nodes = (
"39 685 OFFCURVE",
"39 687 OFFCURVE",
"39 575 CURVE SMOOTH",
"38 419 OFFCURVE",
"38 291 OFFCURVE",
"39 232 CURVE SMOOTH",
"39 203 OFFCURVE",
"39 143 OFFCURVE",
"38 101 CURVE SMOOTH",
"38 26 OFFCURVE",
"38 22 OFFCURVE",
"41 15 CURVE SMOOTH",
"45 8 OFFCURVE",
"47 7 OFFCURVE",
"54 4 CURVE SMOOTH",
"64 1 OFFCURVE",
"85 0 OFFCURVE",
"121 0 CURVE SMOOTH",
"178 1 OFFCURVE",
"187 1 OFFCURVE",
"209 0 CURVE SMOOTH",
"232 0 OFFCURVE",
"233 0 OFFCURVE",
"241 5 CURVE SMOOTH",
"252 12 OFFCURVE",
"255 23 OFFCURVE",
"254 47 CURVE SMOOTH",
"250 135 OFFCURVE",
"249 168 OFFCURVE",
"250 214 CURVE SMOOTH",
"251 243 OFFCURVE",
"252 267 OFFCURVE",
"253 268 CURVE SMOOTH",
"254 270 OFFCURVE",
"260 270 OFFCURVE",
"270 270 CURVE SMOOTH",
"279 269 OFFCURVE",
"287 270 OFFCURVE",
"289 271 CURVE SMOOTH",
"291 272 OFFCURVE",
"297 272 OFFCURVE",
"302 271 CURVE SMOOTH",
"308 270 OFFCURVE",
"318 271 OFFCURVE",
"326 272 CURVE SMOOTH",
"336 273 OFFCURVE",
"342 273 OFFCURVE",
"348 271 CURVE SMOOTH",
"360 268 OFFCURVE",
"439 267 OFFCURVE",
"446 270 CURVE SMOOTH",
"451 271 OFFCURVE",
"453 274 OFFCURVE",
"456 281 CURVE SMOOTH",
"460 288 OFFCURVE",
"460 293 OFFCURVE",
"460 313 CURVE SMOOTH",
"459 344 OFFCURVE",
"459 341 OFFCURVE",
"460 369 CURVE SMOOTH",
"462 396 OFFCURVE",
"460 410 OFFCURVE",
"455 415 CURVE SMOOTH",
"451 419 OFFCURVE",
"451 419 OFFCURVE",
"345 420 CURVE SMOOTH",
"284 420 OFFCURVE",
"256 421 OFFCURVE",
"254 423 CURVE SMOOTH",
"251 424 OFFCURVE",
"249 427 OFFCURVE",
"249 430 CURVE SMOOTH",
"246 441 OFFCURVE",
"247 515 OFFCURVE",
"250 525 CURVE SMOOTH",
"253 544 OFFCURVE",
"255 544 OFFCURVE",
"298 545 CURVE SMOOTH",
"371 548 OFFCURVE",
"487 547 OFFCURVE",
"522 545 CURVE SMOOTH",
"552 542 OFFCURVE",
"557 542 OFFCURVE",
"562 545 CURVE SMOOTH",
"575 552 OFFCURVE",
"576 553 OFFCURVE",
"574 621 CURVE SMOOTH",
"574 623 OFFCURVE",
"575 635 OFFCURVE",
"576 648 CURVE SMOOTH",
"577 666 OFFCURVE",
"577 671 OFFCURVE",
"574 677 CURVE SMOOTH",
"569 688 OFFCURVE",
"564 690 OFFCURVE",
"530 691 CURVE SMOOTH",
"491 693 OFFCURVE",
"494 693 OFFCURVE",
"450 691 CURVE SMOOTH",
"412 690 OFFCURVE",
"403 690 OFFCURVE",
"371 690 CURVE SMOOTH",
"361 690 OFFCURVE",
"343 690 OFFCURVE",
"331 690 CURVE SMOOTH",
"319 690 OFFCURVE",
"302 690 OFFCURVE",
"294 691 CURVE SMOOTH",
"286 692 OFFCURVE",
"229 693 OFFCURVE",
"169 693 CURVE SMOOTH",
"73 694 OFFCURVE",
"57 693 OFFCURVE",
"52 691 CURVE SMOOTH"
);
}
);
width = 580;
}
);
unicode = 0046;
},
{
glyphname = G;
lastChange = "2015-06-01 23:42:13 +0000";
layers = (
{
layerId = "258ED206-D907-4350-8EBA-CBDDA1C16BF7";
name = Regular;
paths = (
{
closed = 1;
nodes = (
"327 707 OFFCURVE",
"316 705 OFFCURVE",
"306 703 CURVE SMOOTH",
"296 701 OFFCURVE",
"285 699 OFFCURVE",
"280 697 CURVE SMOOTH",
"275 695 OFFCURVE",
"270 694 OFFCURVE",
"269 695 CURVE SMOOTH",
"267 695 OFFCURVE",
"264 695 OFFCURVE",
"262 693 CURVE SMOOTH",
"259 691 OFFCURVE",
"257 690 OFFCURVE",
"255 690 CURVE SMOOTH",
"252 690 OFFCURVE",
"197 663 OFFCURVE",
"195 661 CURVE SMOOTH",
"194 660 OFFCURVE",
"190 658 OFFCURVE",
"187 656 CURVE SMOOTH",
"183 654 OFFCURVE",
"177 650 OFFCURVE",
"173 647 CURVE SMOOTH",
"170 644 OFFCURVE",
"160 636 OFFCURVE",
"151 629 CURVE SMOOTH",
"133 615 OFFCURVE",
"115 598 OFFCURVE",
"106 584 CURVE SMOOTH",
"102 580 OFFCURVE",
"97 573 OFFCURVE",
"94 570 CURVE SMOOTH",
"89 564 OFFCURVE",
"79 547 OFFCURVE",
"68 526 CURVE SMOOTH",
"62 514 OFFCURVE",
"51 481 OFFCURVE",
"46 463 CURVE SMOOTH",
"45 459 OFFCURVE",
"43 451 OFFCURVE",
"42 447 CURVE SMOOTH",
"40 440 OFFCURVE",
"37 405 OFFCURVE",
"35 372 CURVE SMOOTH",
"33 345 OFFCURVE",
"34 300 OFFCURVE",
"36 286 CURVE SMOOTH",
"37 278 OFFCURVE",
"38 269 OFFCURVE",
"38 266 CURVE SMOOTH",
"38 263 OFFCURVE",
"39 258 OFFCURVE",
"40 256 CURVE SMOOTH",
"41 253 OFFCURVE",
"44 244 OFFCURVE",
"46 236 CURVE SMOOTH",
"51 214 OFFCURVE",
"67 170 OFFCURVE",
"72 163 CURVE SMOOTH",
"73 162 OFFCURVE",
"78 154 OFFCURVE",
"82 146 CURVE SMOOTH",
"86 139 OFFCURVE",
"92 129 OFFCURVE",
"96 124 CURVE SMOOTH",
"99 120 OFFCURVE",
"102 116 OFFCURVE",
"102 115 CURVE SMOOTH",
"102 114 OFFCURVE",
"131 84 OFFCURVE",
"150 66 CURVE SMOOTH",
"164 53 OFFCURVE",
"193 34 OFFCURVE",
"215 24 CURVE SMOOTH",
"219 22 OFFCURVE",
"225 19 OFFCURVE",
"228 17 CURVE SMOOTH",
"234 12 OFFCURVE",
"259 5 OFFCURVE",
"279 1 CURVE SMOOTH",
"286 -1 OFFCURVE",
"299 -3 OFFCURVE",
"307 -5 CURVE SMOOTH",
"323 -8 OFFCURVE",
"375 -9 OFFCURVE",
"398 -6 CURVE SMOOTH",
"406 -5 OFFCURVE",
"418 -3 OFFCURVE",
"426 -2 CURVE SMOOTH",
"438 -1 OFFCURVE",
"480 15 OFFCURVE",
"496 23 CURVE SMOOTH",
"511 32 OFFCURVE",
"526 43 OFFCURVE",
"541 58 CURVE SMOOTH",
"550 67 OFFCURVE",
"558 74 OFFCURVE",
"560 75 CURVE SMOOTH",
"564 76 OFFCURVE",
"563 76 OFFCURVE",
"596 28 CURVE SMOOTH",
"613 3 OFFCURVE",
"617 0 OFFCURVE",
"648 -1 CURVE SMOOTH",
"667 -2 OFFCURVE",
"669 -2 OFFCURVE",
"675 1 CURVE SMOOTH",
"679 4 OFFCURVE",
"682 8 OFFCURVE",
"682 11 CURVE SMOOTH",
"683 14 OFFCURVE",
"684 18 OFFCURVE",
"686 20 CURVE SMOOTH",
"687 22 OFFCURVE",
"687 24 OFFCURVE",
"686 25 CURVE SMOOTH",
"685 27 OFFCURVE",
"682 137 OFFCURVE",
"681 190 CURVE SMOOTH",
"681 216 OFFCURVE",
"680 242 OFFCURVE",
"679 247 CURVE SMOOTH",
"678 255 OFFCURVE",
"679 264 OFFCURVE",
"681 275 CURVE SMOOTH",
"682 284 OFFCURVE",
"684 301 OFFCURVE",
"684 312 CURVE SMOOTH",
"684 337 OFFCURVE",
"682 344 OFFCURVE",
"668 350 CURVE SMOOTH",
"660 354 OFFCURVE",
"657 354 OFFCURVE",
"642 353 CURVE SMOOTH",
"633 352 OFFCURVE",
"619 352 OFFCURVE",
"610 352 CURVE SMOOTH",
"588 353 OFFCURVE",
"503 355 OFFCURVE",
"451 356 CURVE SMOOTH",
"427 356 OFFCURVE",
"401 357 OFFCURVE",
"393 358 CURVE SMOOTH",
"379 359 OFFCURVE",
"378 359 OFFCURVE",
"372 354 CURVE SMOOTH",
"367 349 LINE",
"365 304 LINE SMOOTH",
"365 279 OFFCURVE",
"364 257 OFFCURVE",
"364 255 CURVE SMOOTH",
"362 247 OFFCURVE",
"364 237 OFFCURVE",
"367 234 CURVE SMOOTH",
"372 229 OFFCURVE",
"386 228 OFFCURVE",
"401 230 CURVE SMOOTH",
"406 230 OFFCURVE",
"416 230 OFFCURVE",
"421 230 CURVE SMOOTH",
"427 229 OFFCURVE",
"442 228 OFFCURVE",
"455 227 CURVE SMOOTH",
"468 227 OFFCURVE",
"480 226 OFFCURVE",
"481 225 CURVE SMOOTH",
"486 222 OFFCURVE",
"481 206 OFFCURVE",
"469 183 CURVE SMOOTH",
"464 174 OFFCURVE",
"444 155 OFFCURVE",
"433 150 CURVE SMOOTH",
"422 144 OFFCURVE",
"395 138 OFFCURVE",
"378 138 CURVE SMOOTH",
"344 138 OFFCURVE",
"320 147 OFFCURVE",
"300 167 CURVE SMOOTH",
"263 205 OFFCURVE",
"252 263 OFFCURVE",
"257 394 CURVE SMOOTH",
"258 431 OFFCURVE",
"261 454 OFFCURVE",
"269 484 CURVE SMOOTH",
"273 499 OFFCURVE",
"275 503 OFFCURVE",
"285 518 CURVE SMOOTH",
"305 548 OFFCURVE",
"324 560 OFFCURVE",
"352 563 CURVE SMOOTH",
"372 565 OFFCURVE",
"388 565 OFFCURVE",
"398 562 CURVE SMOOTH",
"427 553 OFFCURVE",
"427 553 OFFCURVE",
"439 541 CURVE SMOOTH",
"452 528 OFFCURVE",
"467 506 OFFCURVE",
"471 494 CURVE SMOOTH",
"472 490 OFFCURVE",
"475 480 OFFCURVE",
"477 471 CURVE SMOOTH",
"479 461 OFFCURVE",
"482 452 OFFCURVE",
"484 450 CURVE SMOOTH",
"487 446 OFFCURVE",
"489 446 OFFCURVE",
"502 447 CURVE SMOOTH",
"519 449 OFFCURVE",
"550 454 OFFCURVE",
"561 456 CURVE SMOOTH",
"564 457 OFFCURVE",
"574 458 OFFCURVE",
"583 459 CURVE SMOOTH",
"592 459 OFFCURVE",
"608 461 OFFCURVE",
"620 463 CURVE SMOOTH",
"631 465 OFFCURVE",
"642 465 OFFCURVE",
"643 465 CURVE SMOOTH",
"645 463 OFFCURVE",
"656 467 OFFCURVE",
"667 472 CURVE SMOOTH",
"679 478 OFFCURVE",
"679 480 OFFCURVE",
"672 511 CURVE SMOOTH",
"668 525 OFFCURVE",
"643 575 OFFCURVE",
"632 588 CURVE SMOOTH",
"616 608 OFFCURVE",
"597 630 OFFCURVE",
"596 630 CURVE SMOOTH",
"595 630 OFFCURVE",
"589 634 OFFCURVE",
"583 639 CURVE SMOOTH",
"571 650 OFFCURVE",
"563 655 OFFCURVE",
"543 665 CURVE SMOOTH",
"535 669 OFFCURVE",
"526 675 OFFCURVE",
"523 676 CURVE SMOOTH",
"521 678 OFFCURVE",
"515 681 OFFCURVE",
"511 682 CURVE SMOOTH",
"507 684 OFFCURVE",
"499 687 OFFCURVE",
"493 689 CURVE SMOOTH",
"480 695 OFFCURVE",
"446 704 OFFCURVE",
"433 705 CURVE SMOOTH",
"427 705 OFFCURVE",
"411 706 OFFCURVE",
"396 707 CURVE SMOOTH",
"381 707 OFFCURVE",
"362 708 OFFCURVE",
"354 708 CURVE SMOOTH",
"346 709 OFFCURVE",
"336 708 OFFCURVE",
"331 707 CURVE SMOOTH"
);
}
);
width = 720;
}
);
unicode = 0047;
},
{
glyphname = H;
lastChange = "2015-06-01 23:38:30 +0000";
layers = (
{
layerId = "258ED206-D907-4350-8EBA-CBDDA1C16BF7";
name = Regular;
paths = (
{
closed = 1;
nodes = (
"64 702 OFFCURVE",
"60 698 OFFCURVE",
"58 695 CURVE SMOOTH",
"54 689 OFFCURVE",
"54 715 OFFCURVE",
"52 255 CURVE SMOOTH",
"52 71 OFFCURVE",
"52 18 OFFCURVE",
"54 14 CURVE SMOOTH",
"57 7 OFFCURVE",
"72 0 OFFCURVE",
"80 1 CURVE SMOOTH",
"88 3 OFFCURVE",
"169 3 OFFCURVE",
"217 1 CURVE SMOOTH",
"259 0 LINE",
"263 5 LINE SMOOTH",
"273 14 OFFCURVE",
"274 19 OFFCURVE",
"273 45 CURVE SMOOTH",
"272 58 OFFCURVE",
"271 116 OFFCURVE",
"271 173 CURVE SMOOTH",
"270 277 LINE",
"275 279 LINE SMOOTH",
"278 280 OFFCURVE",
"282 281 OFFCURVE",
"285 280 CURVE SMOOTH",
"289 279 OFFCURVE",
"362 279 OFFCURVE",
"418 280 CURVE SMOOTH",
"443 280 OFFCURVE",
"453 280 OFFCURVE",
"455 278 CURVE SMOOTH",
"458 276 OFFCURVE",
"458 266 OFFCURVE",
"458 211 CURVE SMOOTH",
"457 146 OFFCURVE",
"456 96 OFFCURVE",
"454 46 CURVE SMOOTH",
"453 17 OFFCURVE",
"454 11 OFFCURVE",
"462 6 CURVE SMOOTH",
"469 3 OFFCURVE",
"501 2 OFFCURVE",
"589 2 CURVE SMOOTH",
"643 3 OFFCURVE",
"663 5 OFFCURVE",
"669 11 CURVE SMOOTH",
"672 14 OFFCURVE",
"672 41 OFFCURVE",
"673 289 CURVE SMOOTH",
"673 441 OFFCURVE",
"674 570 OFFCURVE",
"674 576 CURVE SMOOTH",
"675 582 OFFCURVE",
"675 609 OFFCURVE",
"675 637 CURVE SMOOTH",
"676 703 OFFCURVE",
"677 701 OFFCURVE",
"633 702 CURVE SMOOTH",
"617 702 OFFCURVE",
"588 703 OFFCURVE",
"567 704 CURVE SMOOTH",
"547 704 OFFCURVE",
"517 705 OFFCURVE",
"501 705 CURVE SMOOTH",
"456 705 OFFCURVE",
"454 703 OFFCURVE",
"456 659 CURVE SMOOTH",
"459 603 OFFCURVE",
"459 447 OFFCURVE",
"456 446 CURVE SMOOTH",
"455 445 OFFCURVE",
"415 444 OFFCURVE",
"366 444 CURVE SMOOTH",
"292 443 OFFCURVE",
"278 444 OFFCURVE",
"274 446 CURVE SMOOTH",
"269 449 LINE",
"271 503 LINE SMOOTH",
"271 533 OFFCURVE",
"272 580 OFFCURVE",
"273 608 CURVE SMOOTH",
"273 636 OFFCURVE",
"274 660 OFFCURVE",
"275 661 CURVE SMOOTH",
"275 662 OFFCURVE",
"275 670 OFFCURVE",
"274 678 CURVE SMOOTH",
"273 690 OFFCURVE",
"271 694 OFFCURVE",
"267 698 CURVE SMOOTH",
"262 703 LINE",
"184 704 LINE SMOOTH",
"140 704 OFFCURVE",
"98 705 OFFCURVE",
"89 705 CURVE SMOOTH",
"79 705 OFFCURVE",
"70 704 OFFCURVE",
"67 703 CURVE SMOOTH"
);
}
);
width = 730;
}
);
unicode = 0048;
},
{
glyphname = I;
lastChange = "2015-06-02 16:24:40 +0000";
layers = (
{
layerId = "258ED206-D907-4350-8EBA-CBDDA1C16BF7";
name = Regular;
paths = (
{
closed = 1;
nodes = (
"59 702 OFFCURVE",
"54 698 OFFCURVE",
"52 686 CURVE SMOOTH",
"50 680 OFFCURVE",
"50 624 OFFCURVE",
"51 497 CURVE SMOOTH",
"52 270 OFFCURVE",
"52 296 OFFCURVE",
"51 146 CURVE SMOOTH",
"50 24 OFFCURVE",
"50 17 OFFCURVE",
"54 12 CURVE SMOOTH",
"60 0 OFFCURVE",
"54 1 OFFCURVE",
"230 0 CURVE SMOOTH",
"251 0 OFFCURVE",
"262 2 OFFCURVE",
"267 8 CURVE SMOOTH",
"271 12 OFFCURVE",
"274 50 OFFCURVE",
"271 66 CURVE SMOOTH",
"270 72 OFFCURVE",
"270 92 OFFCURVE",
"270 112 CURVE SMOOTH",
"271 131 OFFCURVE",
"272 149 OFFCURVE",
"272 152 CURVE SMOOTH",
"272 154 OFFCURVE",
"271 277 OFFCURVE",
"271 424 CURVE SMOOTH",
"271 692 LINE",
"265 697 LINE",
"260 703 LINE",
"201 703 LINE SMOOTH",
"169 703 OFFCURVE",
"128 704 OFFCURVE",
"112 704 CURVE SMOOTH",
"95 705 OFFCURVE",
"77 704 OFFCURVE",
"71 704 CURVE SMOOTH"
);
}
);
width = 320;
}
);
unicode = 0049;
},
{
glyphname = J;
lastChange = "2015-06-02 16:25:13 +0000";
layers = (
{
layerId = "258ED206-D907-4350-8EBA-CBDDA1C16BF7";
name = Regular;
paths = (
{
closed = 1;
nodes = (
"185 713 OFFCURVE",
"180 710 OFFCURVE",
"177 707 CURVE SMOOTH",
"173 702 OFFCURVE",
"173 701 OFFCURVE",
"173 660 CURVE SMOOTH",
"174 636 OFFCURVE",
"174 539 OFFCURVE",
"174 442 CURVE SMOOTH",
"174 346 OFFCURVE",
"174 263 OFFCURVE",
"174 260 CURVE SMOOTH",
"174 233 OFFCURVE",
"165 207 OFFCURVE",
"151 194 CURVE SMOOTH",
"135 178 OFFCURVE",
"101 171 OFFCURVE",
"71 177 CURVE SMOOTH",
"45 182 OFFCURVE",
"39 182 OFFCURVE",
"35 180 CURVE SMOOTH",
"28 176 OFFCURVE",
"26 168 OFFCURVE",
"23 145 CURVE SMOOTH",
"22 132 OFFCURVE",
"21 118 OFFCURVE",
"20 113 CURVE SMOOTH",
"20 109 OFFCURVE",
"18 88 OFFCURVE",
"17 68 CURVE SMOOTH",
"15 34 OFFCURVE",
"15 31 OFFCURVE",
"19 25 CURVE SMOOTH",
"24 16 OFFCURVE",
"34 10 OFFCURVE",
"43 10 CURVE SMOOTH",
"47 10 OFFCURVE",
"58 8 OFFCURVE",
"67 6 CURVE SMOOTH",
"115 -5 OFFCURVE",
"222 -1 OFFCURVE",
"263 14 CURVE SMOOTH",
"269 16 OFFCURVE",
"276 19 OFFCURVE",
"280 20 CURVE SMOOTH",
"290 23 OFFCURVE",
"320 38 OFFCURVE",
"326 44 CURVE SMOOTH",
"330 47 OFFCURVE",
"336 52 OFFCURVE",
"339 55 CURVE SMOOTH",
"355 67 OFFCURVE",
"376 100 OFFCURVE",
"379 121 CURVE SMOOTH",
"380 125 OFFCURVE",
"382 132 OFFCURVE",
"384 136 CURVE SMOOTH",
"388 144 OFFCURVE",
"388 152 OFFCURVE",
"391 202 CURVE SMOOTH",
"394 280 OFFCURVE",
"393 694 OFFCURVE",
"390 702 CURVE SMOOTH",
"385 714 OFFCURVE",
"383 714 OFFCURVE",
"285 715 CURVE SMOOTH",
"236 715 OFFCURVE",
"193 715 OFFCURVE",
"189 714 CURVE SMOOTH"
);
}
);
width = 440;
}
);
unicode = 004A;
},
{
glyphname = K;
lastChange = "2015-06-02 16:25:23 +0000";
layers = (
{
layerId = "258ED206-D907-4350-8EBA-CBDDA1C16BF7";
name = Regular;
paths = (
{
closed = 1;
nodes = (
"64 698 OFFCURVE",
"56 694 OFFCURVE",
"54 686 CURVE SMOOTH",
"53 684 OFFCURVE",
"53 648 OFFCURVE",
"53 606 CURVE SMOOTH",
"53 565 OFFCURVE",
"53 506 OFFCURVE",
"53 475 CURVE SMOOTH",
"53 443 OFFCURVE",
"53 415 OFFCURVE",
"53 411 CURVE SMOOTH",
"53 408 OFFCURVE",
"53 325 OFFCURVE",
"53 229 CURVE SMOOTH",
"53 132 OFFCURVE",
"53 46 OFFCURVE",
"53 37 CURVE SMOOTH",
"53 15 OFFCURVE",
"54 11 OFFCURVE",
"63 5 CURVE SMOOTH",
"70 0 LINE",
"165 0 LINE",
"260 1 LINE",
"266 6 LINE",
"271 12 LINE",
"270 72 LINE SMOOTH",
"268 177 OFFCURVE",
"268 177 OFFCURVE",
"274 188 CURVE SMOOTH",
"277 193 OFFCURVE",
"283 200 OFFCURVE",
"286 204 CURVE SMOOTH",
"290 208 OFFCURVE",
"299 220 OFFCURVE",
"306 231 CURVE SMOOTH",
"314 242 OFFCURVE",
"325 257 OFFCURVE",
"331 263 CURVE SMOOTH",
"355 291 OFFCURVE",
"358 293 OFFCURVE",
"362 283 CURVE SMOOTH",
"363 280 OFFCURVE",
"366 275 OFFCURVE",
"368 272 CURVE SMOOTH",
"370 270 OFFCURVE",
"373 262 OFFCURVE",
"375 257 CURVE SMOOTH",
"380 243 OFFCURVE",
"404 191 OFFCURVE",
"416 166 CURVE SMOOTH",
"421 155 OFFCURVE",
"426 145 OFFCURVE",
"426 143 CURVE SMOOTH",
"426 142 OFFCURVE",
"428 136 OFFCURVE",
"431 129 CURVE SMOOTH",
"435 123 OFFCURVE",
"438 116 OFFCURVE",
"439 113 CURVE SMOOTH",
"439 110 OFFCURVE",
"444 99 OFFCURVE",
"450 88 CURVE SMOOTH",
"463 59 OFFCURVE",
"472 38 OFFCURVE",
"476 23 CURVE SMOOTH",
"477 17 OFFCURVE",
"485 9 OFFCURVE",
"493 4 CURVE SMOOTH",
"499 0 OFFCURVE",
"503 0 OFFCURVE",
"553 1 CURVE SMOOTH",
"582 2 OFFCURVE",
"627 2 OFFCURVE",
"652 2 CURVE SMOOTH",
"677 1 OFFCURVE",
"701 1 OFFCURVE",
"704 2 CURVE SMOOTH",
"717 6 OFFCURVE",
"717 17 OFFCURVE",
"704 44 CURVE SMOOTH",
"700 53 OFFCURVE",
"693 65 OFFCURVE",
"690 70 CURVE SMOOTH",
"687 75 OFFCURVE",
"683 81 OFFCURVE",
"682 84 CURVE SMOOTH",
"682 86 OFFCURVE",
"678 94 OFFCURVE",
"675 101 CURVE SMOOTH",
"663 127 OFFCURVE",
"647 160 OFFCURVE",
"634 186 CURVE SMOOTH",
"627 201 OFFCURVE",
"618 220 OFFCURVE",
"615 228 CURVE SMOOTH",
"612 236 OFFCURVE",
"607 247 OFFCURVE",
"604 251 CURVE SMOOTH",
"602 256 OFFCURVE",
"599 261 OFFCURVE",
"599 263 CURVE SMOOTH",
"599 265 OFFCURVE",
"597 269 OFFCURVE",
"595 274 CURVE SMOOTH",
"593 278 OFFCURVE",
"587 289 OFFCURVE",
"582 298 CURVE SMOOTH",
"577 307 OFFCURVE",
"573 316 OFFCURVE",
"571 318 CURVE SMOOTH",
"570 319 OFFCURVE",
"567 326 OFFCURVE",
"564 332 CURVE SMOOTH",
"562 339 OFFCURVE",
"559 345 OFFCURVE",
"557 347 CURVE SMOOTH",
"556 349 OFFCURVE",
"551 359 OFFCURVE",
"546 369 CURVE SMOOTH",
"541 380 OFFCURVE",
"536 390 OFFCURVE",
"535 392 CURVE SMOOTH",
"533 395 OFFCURVE",
"532 398 OFFCURVE",
"525 414 CURVE SMOOTH",
"522 420 OFFCURVE",
"518 427 OFFCURVE",
"515 432 CURVE SMOOTH",
"508 442 OFFCURVE",
"500 461 OFFCURVE",
"500 466 CURVE SMOOTH",
"500 473 OFFCURVE",
"505 482 OFFCURVE",
"517 495 CURVE SMOOTH",
"531 511 OFFCURVE",
"537 518 OFFCURVE",
"553 539 CURVE SMOOTH",
"560 548 OFFCURVE",
"573 565 OFFCURVE",
"583 577 CURVE SMOOTH",
"593 588 OFFCURVE",
"607 606 OFFCURVE",
"614 615 CURVE SMOOTH",
"621 625 OFFCURVE",
"631 637 OFFCURVE",
"637 642 CURVE SMOOTH",
"652 658 OFFCURVE",
"665 676 OFFCURVE",
"667 682 CURVE SMOOTH",
"668 690 OFFCURVE",
"664 695 OFFCURVE",
"651 699 CURVE SMOOTH",
"643 701 OFFCURVE",
"628 702 OFFCURVE",
"561 701 CURVE SMOOTH",
"501 700 OFFCURVE",
"479 699 OFFCURVE",
"475 697 CURVE SMOOTH",
"469 694 OFFCURVE",
"449 672 OFFCURVE",
"441 658 CURVE SMOOTH",
"438 653 OFFCURVE",
"428 638 OFFCURVE",
"419 626 CURVE SMOOTH",
"411 613 OFFCURVE",
"400 599 OFFCURVE",
"397 593 CURVE SMOOTH",
"393 588 OFFCURVE",
"386 578 OFFCURVE",
"380 571 CURVE SMOOTH",
"375 564 OFFCURVE",
"365 551 OFFCURVE",
"360 543 CURVE SMOOTH",
"354 534 OFFCURVE",
"348 525 OFFCURVE",
"345 523 CURVE SMOOTH",
"343 521 OFFCURVE",
"336 511 OFFCURVE",
"330 503 CURVE SMOOTH",
"325 495 OFFCURVE",
"314 481 OFFCURVE",
"308 472 CURVE SMOOTH",
"301 464 OFFCURVE",
"291 450 OFFCURVE",
"286 441 CURVE SMOOTH",
"275 425 OFFCURVE",
"273 424 OFFCURVE",
"268 427 CURVE SMOOTH",
"263 430 OFFCURVE",
"265 599 OFFCURVE",
"271 664 CURVE SMOOTH",
"273 688 OFFCURVE",
"270 694 OFFCURVE",
"253 698 CURVE SMOOTH",
"244 700 OFFCURVE",
"100 702 OFFCURVE",
"80 700 CURVE SMOOTH"
);
}
);
width = 700;
}
);
unicode = 004B;
},
{
glyphname = L;
lastChange = "2015-06-01 23:43:21 +0000";
layers = (
{
layerId = "258ED206-D907-4350-8EBA-CBDDA1C16BF7";
name = Regular;
paths = (
{
closed = 1;
nodes = (
"50 695 OFFCURVE",
"47 693 OFFCURVE",
"44 688 CURVE SMOOTH",
"40 681 OFFCURVE",
"40 678 OFFCURVE",
"39 622 CURVE SMOOTH",
"39 590 OFFCURVE",
"39 507 OFFCURVE",
"38 437 CURVE SMOOTH",
"37 367 OFFCURVE",
"36 259 OFFCURVE",
"36 196 CURVE SMOOTH",
"35 132 OFFCURVE",
"34 68 OFFCURVE",
"34 53 CURVE SMOOTH",
"32 23 OFFCURVE",
"34 14 OFFCURVE",
"41 9 CURVE SMOOTH",
"50 3 OFFCURVE",
"65 1 OFFCURVE",
"93 2 CURVE SMOOTH",
"108 3 OFFCURVE",
"125 3 OFFCURVE",
"132 2 CURVE SMOOTH",
"139 1 OFFCURVE",
"149 1 OFFCURVE",
"153 2 CURVE SMOOTH",
"157 2 OFFCURVE",
"166 3 OFFCURVE",
"172 3 CURVE SMOOTH",
"194 3 OFFCURVE",
"379 2 OFFCURVE",
"458 1 CURVE SMOOTH",
"543 -1 OFFCURVE",
"547 0 OFFCURVE",
"561 7 CURVE SMOOTH",
"567 10 OFFCURVE",
"569 20 OFFCURVE",
"570 66 CURVE SMOOTH",
"571 120 OFFCURVE",
"569 139 OFFCURVE",
"562 146 CURVE SMOOTH",
"557 151 LINE",
"488 151 LINE SMOOTH",
"449 152 OFFCURVE",
"408 152 OFFCURVE",
"396 152 CURVE SMOOTH",
"383 152 OFFCURVE",
"369 152 OFFCURVE",
"363 151 CURVE SMOOTH",
"351 149 OFFCURVE",
"262 147 OFFCURVE",
"254 149 CURVE SMOOTH",
"250 149 OFFCURVE",
"246 152 OFFCURVE",
"245 154 CURVE SMOOTH",
"244 156 OFFCURVE",
"244 170 OFFCURVE",
"246 196 CURVE SMOOTH",
"247 217 OFFCURVE",
"248 279 OFFCURVE",
"248 334 CURVE SMOOTH",
"249 389 OFFCURVE",
"250 457 OFFCURVE",
"251 486 CURVE SMOOTH",
"251 515 OFFCURVE",
"252 542 OFFCURVE",
"252 546 CURVE SMOOTH",
"250 558 OFFCURVE",
"250 599 OFFCURVE",
"251 644 CURVE SMOOTH",
"252 689 OFFCURVE",
"252 692 OFFCURVE",
"237 696 CURVE SMOOTH",
"230 698 OFFCURVE",
"168 699 OFFCURVE",
"110 698 CURVE SMOOTH",
"102 698 OFFCURVE",
"89 698 OFFCURVE",
"81 698 CURVE SMOOTH",
"72 699 OFFCURVE",
"61 698 OFFCURVE",
"56 697 CURVE SMOOTH"
);
}
);
width = 580;
}
);
unicode = 004C;
},
{
glyphname = M;
lastChange = "2015-06-01 23:43:31 +0000";
layers = (
{
layerId = "258ED206-D907-4350-8EBA-CBDDA1C16BF7";
name = Regular;
paths = (
{
closed = 1;
nodes = (
"54 700 OFFCURVE",
"49 697 OFFCURVE",
"47 695 CURVE SMOOTH",
"43 690 OFFCURVE",
"43 687 OFFCURVE",
"43 512 CURVE SMOOTH",
"43 414 OFFCURVE",
"43 331 OFFCURVE",
"43 328 CURVE SMOOTH",
"43 325 OFFCURVE",
"43 263 OFFCURVE",
"42 191 CURVE SMOOTH",
"42 13 OFFCURVE",
"42 18 OFFCURVE",
"46 12 CURVE SMOOTH",
"47 9 OFFCURVE",
"52 5 OFFCURVE",
"55 3 CURVE SMOOTH",
"61 0 OFFCURVE",
"64 0 OFFCURVE",
"80 0 CURVE SMOOTH",
"90 1 OFFCURVE",
"125 2 OFFCURVE",
"156 2 CURVE SMOOTH",
"227 3 OFFCURVE",
"222 1 OFFCURVE",
"222 31 CURVE SMOOTH",
"222 42 OFFCURVE",
"222 51 OFFCURVE",
"221 52 CURVE SMOOTH",
"219 55 OFFCURVE",
"214 207 OFFCURVE",
"215 243 CURVE SMOOTH",
"215 258 OFFCURVE",
"215 311 OFFCURVE",
"215 361 CURVE SMOOTH",
"215 412 OFFCURVE",
"215 455 OFFCURVE",
"216 456 CURVE SMOOTH",
"217 459 OFFCURVE",
"217 460 OFFCURVE",
"219 458 CURVE SMOOTH",
"222 455 OFFCURVE",
"232 426 OFFCURVE",
"232 420 CURVE SMOOTH",
"232 417 OFFCURVE",
"235 409 OFFCURVE",
"239 401 CURVE SMOOTH",
"242 393 OFFCURVE",
"247 380 OFFCURVE",
"250 371 CURVE SMOOTH",
"252 362 OFFCURVE",
"255 352 OFFCURVE",
"256 347 CURVE SMOOTH",
"261 331 OFFCURVE",
"303 207 OFFCURVE",
"305 201 CURVE SMOOTH",
"307 198 OFFCURVE",
"309 192 OFFCURVE",
"310 187 CURVE SMOOTH",
"311 182 OFFCURVE",
"313 177 OFFCURVE",
"314 176 CURVE SMOOTH",
"315 175 OFFCURVE",
"316 169 OFFCURVE",
"318 163 CURVE SMOOTH",
"319 157 OFFCURVE",
"322 147 OFFCURVE",
"325 140 CURVE SMOOTH",
"332 120 OFFCURVE",
"335 108 OFFCURVE",
"337 101 CURVE SMOOTH",
"338 97 OFFCURVE",
"341 86 OFFCURVE",
"344 76 CURVE SMOOTH",
"347 65 OFFCURVE",
"352 48 OFFCURVE",
"355 37 CURVE SMOOTH",
"358 25 OFFCURVE",
"361 14 OFFCURVE",
"363 12 CURVE SMOOTH",
"369 3 OFFCURVE",
"371 3 OFFCURVE",
"435 3 CURVE SMOOTH",
"489 3 OFFCURVE",
"495 3 OFFCURVE",
"500 6 CURVE SMOOTH",
"506 10 OFFCURVE",
"514 26 OFFCURVE",
"516 38 CURVE SMOOTH",
"517 42 OFFCURVE",
"519 50 OFFCURVE",
"521 55 CURVE SMOOTH",
"523 61 OFFCURVE",
"525 68 OFFCURVE",
"526 73 CURVE SMOOTH",
"527 81 OFFCURVE",
"538 117 OFFCURVE",
"545 136 CURVE SMOOTH",
"548 143 OFFCURVE",
"551 153 OFFCURVE",
"552 158 CURVE SMOOTH",
"554 170 OFFCURVE",
"559 185 OFFCURVE",
"564 199 CURVE SMOOTH",
"566 206 OFFCURVE",
"571 221 OFFCURVE",
"574 234 CURVE SMOOTH",
"578 246 OFFCURVE",
"584 262 OFFCURVE",
"587 269 CURVE SMOOTH",
"590 276 OFFCURVE",
"594 285 OFFCURVE",
"595 290 CURVE SMOOTH",
"603 313 OFFCURVE",
"621 365 OFFCURVE",
"622 368 CURVE SMOOTH",
"623 370 OFFCURVE",
"627 384 OFFCURVE",
"632 400 CURVE SMOOTH",
"636 415 OFFCURVE",
"641 433 OFFCURVE",
"644 440 CURVE SMOOTH",
"647 446 OFFCURVE",
"649 453 OFFCURVE",
"649 455 CURVE SMOOTH",
"649 461 OFFCURVE",
"654 457 OFFCURVE",
"656 450 CURVE SMOOTH",
"657 443 OFFCURVE",
"656 215 OFFCURVE",
"654 192 CURVE SMOOTH",
"654 185 OFFCURVE",
"653 150 OFFCURVE",
"652 114 CURVE SMOOTH",
"652 77 OFFCURVE",
"651 41 OFFCURVE",
"650 34 CURVE SMOOTH",
"649 18 OFFCURVE",
"651 12 OFFCURVE",
"661 7 CURVE SMOOTH",
"666 4 OFFCURVE",
"677 4 OFFCURVE",
"762 4 CURVE SMOOTH",
"857 4 LINE",
"863 10 LINE",
"868 15 LINE",
"867 128 LINE SMOOTH",
"865 288 OFFCURVE",
"864 414 OFFCURVE",
"866 425 CURVE SMOOTH",
"866 429 OFFCURVE",
"866 454 OFFCURVE",
"864 479 CURVE SMOOTH",
"863 507 OFFCURVE",
"863 528 OFFCURVE",
"864 533 CURVE SMOOTH",
"864 537 OFFCURVE",
"865 574 OFFCURVE",
"865 614 CURVE SMOOTH",
"865 693 OFFCURVE",
"865 691 OFFCURVE",
"854 697 CURVE SMOOTH",
"849 699 OFFCURVE",
"836 700 OFFCURVE",
"773 700 CURVE SMOOTH",
"731 699 OFFCURVE",
"668 700 OFFCURVE",
"633 700 CURVE SMOOTH",
"569 701 LINE",
"564 696 LINE SMOOTH",
"555 690 OFFCURVE",
"555 689 OFFCURVE",
"532 605 CURVE SMOOTH",
"528 592 OFFCURVE",
"521 572 OFFCURVE",
"517 559 CURVE SMOOTH",
"509 538 OFFCURVE",
"505 525 OFFCURVE",
"498 500 CURVE SMOOTH",
"497 494 OFFCURVE",
"489 469 OFFCURVE",
"480 443 CURVE SMOOTH",
"471 417 OFFCURVE",
"464 394 OFFCURVE",
"464 393 CURVE SMOOTH",
"464 388 OFFCURVE",
"460 380 OFFCURVE",
"457 380 CURVE SMOOTH",
"456 380 OFFCURVE",
"454 385 OFFCURVE",
"452 391 CURVE SMOOTH",
"450 397 OFFCURVE",
"446 405 OFFCURVE",
"445 408 CURVE SMOOTH",
"443 411 OFFCURVE",
"438 424 OFFCURVE",
"434 435 CURVE SMOOTH",
"430 447 OFFCURVE",
"426 458 OFFCURVE",
"425 459 CURVE SMOOTH",
"424 460 OFFCURVE",
"422 467 OFFCURVE",
"419 475 CURVE SMOOTH",
"415 490 OFFCURVE",
"412 500 OFFCURVE",
"397 547 CURVE SMOOTH",
"393 562 OFFCURVE",
"387 580 OFFCURVE",
"385 588 CURVE SMOOTH",
"382 595 OFFCURVE",
"378 609 OFFCURVE",
"374 618 CURVE SMOOTH",
"371 627 OFFCURVE",
"366 644 OFFCURVE",
"362 656 CURVE SMOOTH",
"354 688 OFFCURVE",
"351 694 OFFCURVE",
"342 699 CURVE SMOOTH",
"335 702 OFFCURVE",
"328 702 OFFCURVE",
"257 702 CURVE SMOOTH",
"136 701 OFFCURVE",
"124 701 OFFCURVE",
"120 698 CURVE SMOOTH",
"117 697 OFFCURVE",
"114 696 OFFCURVE",
"113 697 CURVE SMOOTH",
"110 699 OFFCURVE",
"97 700 OFFCURVE",
"75 702 CURVE SMOOTH",
"69 703 OFFCURVE",
"61 703 OFFCURVE",
"57 701 CURVE SMOOTH"
);
}
);
width = 900;
}
);
unicode = 004D;
},
{
glyphname = N;
lastChange = "2015-06-01 23:43:46 +0000";
layers = (
{
layerId = "258ED206-D907-4350-8EBA-CBDDA1C16BF7";
name = Regular;
paths = (
{
closed = 1;
nodes = (
"66 696 OFFCURVE",
"61 693 OFFCURVE",
"59 687 CURVE SMOOTH",
"57 682 OFFCURVE",
"56 628 OFFCURVE",
"56 411 CURVE SMOOTH",
"57 92 OFFCURVE",
"57 114 OFFCURVE",
"56 61 CURVE SMOOTH",
"55 14 OFFCURVE",
"55 9 OFFCURVE",
"65 4 CURVE SMOOTH",
"71 1 OFFCURVE",
"82 0 OFFCURVE",
"144 0 CURVE SMOOTH",
"183 0 OFFCURVE",
"219 0 OFFCURVE",
"222 1 CURVE SMOOTH",
"233 4 OFFCURVE",
"233 6 OFFCURVE",
"232 60 CURVE SMOOTH",
"229 160 OFFCURVE",
"228 368 OFFCURVE",
"231 372 CURVE SMOOTH",
"232 374 OFFCURVE",
"234 373 OFFCURVE",
"238 368 CURVE SMOOTH",
"242 364 OFFCURVE",
"244 360 OFFCURVE",
"244 359 CURVE SMOOTH",
"244 358 OFFCURVE",
"251 349 OFFCURVE",
"259 339 CURVE SMOOTH",
"275 320 OFFCURVE",
"314 269 OFFCURVE",
"324 255 CURVE SMOOTH",
"327 251 OFFCURVE",
"333 243 OFFCURVE",
"338 237 CURVE SMOOTH",
"350 221 OFFCURVE",
"360 207 OFFCURVE",
"372 188 CURVE SMOOTH",
"383 172 OFFCURVE",
"386 169 OFFCURVE",
"405 145 CURVE SMOOTH",
"416 132 OFFCURVE",
"440 98 OFFCURVE",
"458 72 CURVE SMOOTH",
"464 63 OFFCURVE",
"470 55 OFFCURVE",
"472 53 CURVE SMOOTH",
"475 50 OFFCURVE",
"480 43 OFFCURVE",
"484 36 CURVE SMOOTH",
"493 20 OFFCURVE",
"503 9 OFFCURVE",
"512 6 CURVE SMOOTH",
"518 3 OFFCURVE",
"536 3 OFFCURVE",
"621 2 CURVE SMOOTH",
"654 2 OFFCURVE",
"659 2 OFFCURVE",
"664 5 CURVE SMOOTH",
"671 10 OFFCURVE",
"673 14 OFFCURVE",
"673 26 CURVE SMOOTH",
"673 31 OFFCURVE",
"673 182 OFFCURVE",
"673 361 CURVE SMOOTH",
"672 662 OFFCURVE",
"672 688 OFFCURVE",
"669 691 CURVE SMOOTH",
"662 698 OFFCURVE",
"653 699 OFFCURVE",
"583 699 CURVE SMOOTH",
"508 698 OFFCURVE",
"508 698 OFFCURVE",
"502 687 CURVE SMOOTH",
"499 680 OFFCURVE",
"499 674 OFFCURVE",
"500 616 CURVE SMOOTH",
"502 559 OFFCURVE",
"503 374 OFFCURVE",
"502 368 CURVE SMOOTH",
"500 362 OFFCURVE",
"494 360 OFFCURVE",
"492 365 CURVE SMOOTH",
"491 369 OFFCURVE",
"474 393 OFFCURVE",
"464 406 CURVE SMOOTH",
"461 410 OFFCURVE",
"452 422 OFFCURVE",
"446 431 CURVE SMOOTH",
"440 440 OFFCURVE",
"429 454 OFFCURVE",
"423 462 CURVE SMOOTH",
"409 477 OFFCURVE",
"403 486 OFFCURVE",
"395 499 CURVE SMOOTH",
"392 504 OFFCURVE",
"386 512 OFFCURVE",
"382 517 CURVE SMOOTH",
"372 528 OFFCURVE",
"365 536 OFFCURVE",
"365 539 CURVE SMOOTH",
"365 540 OFFCURVE",
"360 547 OFFCURVE",
"355 553 CURVE SMOOTH",
"349 560 OFFCURVE",
"344 567 OFFCURVE",
"343 568 CURVE SMOOTH",
"341 574 OFFCURVE",
"325 596 OFFCURVE",
"320 602 CURVE SMOOTH",
"315 606 OFFCURVE",
"309 614 OFFCURVE",
"298 633 CURVE SMOOTH",
"291 644 OFFCURVE",
"273 669 OFFCURVE",
"262 683 CURVE SMOOTH",
"250 699 OFFCURVE",
"253 699 OFFCURVE",
"160 699 CURVE SMOOTH",
"115 699 OFFCURVE",
"76 698 OFFCURVE",
"74 698 CURVE SMOOTH"
);
}
);
width = 730;
}
);
unicode = 004E;
},
{
glyphname = O;
lastChange = "2015-06-01 23:38:27 +0000";
layers = (
{
layerId = "258ED206-D907-4350-8EBA-CBDDA1C16BF7";
name = Regular;
paths = (
{
closed = 1;
nodes = (
"340 711 OFFCURVE",
"330 710 OFFCURVE",
"318 709 CURVE SMOOTH",
"307 709 OFFCURVE",
"296 707 OFFCURVE",
"294 706 CURVE SMOOTH",
"291 705 OFFCURVE",
"288 704 OFFCURVE",
"285 704 CURVE SMOOTH",
"279 704 OFFCURVE",
"244 694 OFFCURVE",
"231 688 CURVE SMOOTH",
"216 682 OFFCURVE",
"196 672 OFFCURVE",
"187 665 CURVE SMOOTH",
"183 662 OFFCURVE",
"174 657 OFFCURVE",
"168 653 CURVE SMOOTH",
"156 645 OFFCURVE",
"106 600 OFFCURVE",
"100 590 CURVE SMOOTH",
"85 568 OFFCURVE",
"79 559 OFFCURVE",
"67 536 CURVE SMOOTH",
"37 477 OFFCURVE",
"29 437 OFFCURVE",
"30 343 CURVE SMOOTH",
"30 292 OFFCURVE",
"32 276 OFFCURVE",
"40 239 CURVE SMOOTH",
"44 219 OFFCURVE",
"60 176 OFFCURVE",
"68 163 CURVE SMOOTH",
"72 156 OFFCURVE",
"79 144 OFFCURVE",
"83 138 CURVE SMOOTH",
"103 104 OFFCURVE",
"145 62 OFFCURVE",
"180 41 CURVE SMOOTH",
"192 34 OFFCURVE",
"217 22 OFFCURVE",
"234 14 CURVE SMOOTH",
"271 -2 OFFCURVE",
"333 -10 OFFCURVE",
"390 -7 CURVE SMOOTH",
"407 -6 OFFCURVE",
"424 -5 OFFCURVE",
"428 -4 CURVE SMOOTH",
"432 -3 OFFCURVE",
"438 -2 OFFCURVE",
"441 -2 CURVE SMOOTH",
"457 -2 OFFCURVE",
"539 31 OFFCURVE",
"547 41 CURVE SMOOTH",
"548 42 OFFCURVE",
"550 43 OFFCURVE",
"552 43 CURVE SMOOTH",
"553 43 OFFCURVE",
"558 46 OFFCURVE",
"561 49 CURVE SMOOTH",
"565 52 OFFCURVE",
"572 57 OFFCURVE",
"577 60 CURVE SMOOTH",
"597 74 OFFCURVE",
"627 102 OFFCURVE",
"638 120 CURVE SMOOTH",
"663 158 OFFCURVE",
"676 184 OFFCURVE",
"682 210 CURVE SMOOTH",
"685 220 OFFCURVE",
"688 230 OFFCURVE",
"689 232 CURVE SMOOTH",
"690 234 OFFCURVE",
"693 247 OFFCURVE",
"696 261 CURVE SMOOTH",
"704 302 OFFCURVE",
"705 397 OFFCURVE",
"697 433 CURVE SMOOTH",
"696 438 OFFCURVE",
"694 447 OFFCURVE",
"693 453 CURVE SMOOTH",
"692 459 OFFCURVE",
"690 468 OFFCURVE",
"688 474 CURVE SMOOTH",
"686 480 OFFCURVE",
"684 489 OFFCURVE",
"683 495 CURVE SMOOTH",
"680 506 OFFCURVE",
"669 530 OFFCURVE",
"666 532 CURVE SMOOTH",
"665 532 OFFCURVE",
"660 541 OFFCURVE",
"655 551 CURVE SMOOTH",
"647 567 OFFCURVE",
"640 578 OFFCURVE",
"622 602 CURVE SMOOTH",
"612 615 OFFCURVE",
"579 643 OFFCURVE",
"558 657 CURVE SMOOTH",
"552 660 OFFCURVE",
"542 667 OFFCURVE",
"534 672 CURVE SMOOTH",
"526 677 OFFCURVE",
"519 681 OFFCURVE",
"519 681 CURVE SMOOTH",
"518 681 OFFCURVE",
"514 683 OFFCURVE",
"509 685 CURVE SMOOTH",
"505 687 OFFCURVE",
"495 690 OFFCURVE",
"487 693 CURVE SMOOTH",
"480 695 OFFCURVE",
"467 699 OFFCURVE",
"460 702 CURVE SMOOTH",
"443 707 OFFCURVE",
"415 710 OFFCURVE",
"390 710 CURVE SMOOTH",
"380 710 OFFCURVE",
"365 710 OFFCURVE",
"357 711 CURVE SMOOTH",
"348 712 OFFCURVE",
"341 712 OFFCURVE",
"340 712 CURVE SMOOTH"
);
},
{
closed = 1;
nodes = (
"422 552 OFFCURVE",
"446 533 OFFCURVE",
"446 528 CURVE SMOOTH",
"446 528 OFFCURVE",
"449 523 OFFCURVE",
"452 518 CURVE SMOOTH",
"456 513 OFFCURVE",
"460 505 OFFCURVE",
"462 500 CURVE SMOOTH",
"464 495 OFFCURVE",
"466 490 OFFCURVE",
"467 489 CURVE SMOOTH",
"468 488 OFFCURVE",
"470 481 OFFCURVE",
"472 473 CURVE SMOOTH",
"481 446 OFFCURVE",
"483 397 OFFCURVE",
"480 309 CURVE SMOOTH",
"479 256 OFFCURVE",
"476 238 OFFCURVE",
"467 212 CURVE SMOOTH",
"464 203 OFFCURVE",
"461 194 OFFCURVE",
"460 191 CURVE SMOOTH",
"459 183 OFFCURVE",
"429 155 OFFCURVE",
"416 150 CURVE SMOOTH",
"391 139 OFFCURVE",
"365 136 OFFCURVE",
"342 143 CURVE SMOOTH",
"334 145 OFFCURVE",
"324 147 OFFCURVE",
"320 147 CURVE SMOOTH",
"310 149 OFFCURVE",
"286 172 OFFCURVE",
"277 189 CURVE SMOOTH",
"254 232 OFFCURVE",
"245 332 OFFCURVE",
"256 428 CURVE SMOOTH",
"261 474 OFFCURVE",
"270 505 OFFCURVE",
"285 524 CURVE SMOOTH",
"298 542 OFFCURVE",
"320 558 OFFCURVE",
"330 558 CURVE SMOOTH",
"332 558 OFFCURVE",
"335 559 OFFCURVE",
"338 561 CURVE SMOOTH",
"343 565 OFFCURVE",
"352 566 OFFCURVE",
"376 565 CURVE SMOOTH",
"394 564 OFFCURVE",
"398 563 OFFCURVE",
"410 558 CURVE SMOOTH"
);
}
);
width = 730;
}
);
unicode = 004F;
},
{
glyphname = P;
lastChange = "2015-06-01 23:44:06 +0000";
layers = (
{
layerId = "258ED206-D907-4350-8EBA-CBDDA1C16BF7";
name = Regular;
paths = (
{
closed = 1;
nodes = (
"60 704 OFFCURVE",
"52 698 OFFCURVE",
"48 689 CURVE SMOOTH",
"47 687 OFFCURVE",
"47 654 OFFCURVE",
"47 612 CURVE SMOOTH",
"47 573 OFFCURVE",
"47 462 OFFCURVE",
"48 367 CURVE SMOOTH",
"48 271 OFFCURVE",
"48 182 OFFCURVE",
"48 169 CURVE SMOOTH",
"48 155 OFFCURVE",
"48 123 OFFCURVE",
"47 98 CURVE SMOOTH",
"45 15 OFFCURVE",
"45 12 OFFCURVE",
"58 5 CURVE SMOOTH",
"64 1 OFFCURVE",
"68 0 OFFCURVE",
"85 0 CURVE SMOOTH",
"97 0 OFFCURVE",
"117 1 OFFCURVE",
"130 2 CURVE SMOOTH",
"162 3 OFFCURVE",
"160 3 OFFCURVE",
"184 1 CURVE SMOOTH",
"196 0 OFFCURVE",
"216 0 OFFCURVE",
"228 0 CURVE SMOOTH",
"267 1 OFFCURVE",
"269 4 OFFCURVE",
"270 50 CURVE SMOOTH",
"270 68 OFFCURVE",
"269 93 OFFCURVE",
"269 105 CURVE SMOOTH",
"268 118 OFFCURVE",
"267 139 OFFCURVE",
"266 151 CURVE SMOOTH",
"265 177 OFFCURVE",
"265 253 OFFCURVE",
"266 260 CURVE SMOOTH",
"267 262 OFFCURVE",
"269 265 OFFCURVE",
"271 265 CURVE SMOOTH",
"273 266 OFFCURVE",
"293 266 OFFCURVE",
"316 265 CURVE SMOOTH",
"338 264 OFFCURVE",
"373 264 OFFCURVE",
"393 264 CURVE SMOOTH",
"427 264 OFFCURVE",
"437 265 OFFCURVE",
"457 267 CURVE SMOOTH",
"461 268 OFFCURVE",
"475 270 OFFCURVE",
"487 271 CURVE SMOOTH",
"517 275 OFFCURVE",
"542 283 OFFCURVE",
"570 296 CURVE SMOOTH",
"578 300 OFFCURVE",
"594 310 OFFCURVE",
"603 318 CURVE SMOOTH",
"609 322 OFFCURVE",
"615 328 OFFCURVE",
"618 329 CURVE SMOOTH",
"621 331 OFFCURVE",
"627 337 OFFCURVE",
"631 343 CURVE SMOOTH",
"635 349 OFFCURVE",
"642 356 OFFCURVE",
"646 360 CURVE SMOOTH",
"650 364 OFFCURVE",
"658 378 OFFCURVE",
"664 390 CURVE SMOOTH",
"672 408 OFFCURVE",
"675 416 OFFCURVE",
"679 436 CURVE SMOOTH",
"693 506 OFFCURVE",
"677 574 OFFCURVE",
"634 620 CURVE SMOOTH",
"616 639 OFFCURVE",
"580 665 OFFCURVE",
"562 671 CURVE SMOOTH",
"557 673 OFFCURVE",
"550 675 OFFCURVE",
"547 677 CURVE SMOOTH",
"530 683 OFFCURVE",
"494 693 OFFCURVE",
"472 697 CURVE SMOOTH",
"465 698 OFFCURVE",
"453 700 OFFCURVE",
"446 701 CURVE SMOOTH",
"433 704 OFFCURVE",
"419 705 OFFCURVE",
"402 705 CURVE SMOOTH",
"381 706 OFFCURVE",
"316 706 OFFCURVE",
"298 705 CURVE SMOOTH",
"288 705 OFFCURVE",
"271 704 OFFCURVE",
"261 704 CURVE SMOOTH",
"251 704 OFFCURVE",
"226 704 OFFCURVE",
"206 704 CURVE SMOOTH",
"185 705 OFFCURVE",
"166 705 OFFCURVE",
"164 705 CURVE SMOOTH",
"161 704 OFFCURVE",
"141 705 OFFCURVE",
"120 705 CURVE SMOOTH",
"98 706 OFFCURVE",
"76 706 OFFCURVE",
"71 705 CURVE SMOOTH"
);
},
{
closed = 1;
nodes = (
"388 553 OFFCURVE",
"398 552 OFFCURVE",
"401 551 CURVE SMOOTH",
"404 550 OFFCURVE",
"407 549 OFFCURVE",
"407 550 CURVE SMOOTH",
"408 551 OFFCURVE",
"417 546 OFFCURVE",
"426 541 CURVE SMOOTH",
"453 526 OFFCURVE",
"461 512 OFFCURVE",
"460 483 CURVE SMOOTH",
"460 473 OFFCURVE",
"459 467 OFFCURVE",
"454 457 CURVE SMOOTH",
"448 443 OFFCURVE",
"444 439 OFFCURVE",
"430 430 CURVE SMOOTH",
"413 420 OFFCURVE",
"404 419 OFFCURVE",
"346 416 CURVE SMOOTH",
"317 415 OFFCURVE",
"293 414 OFFCURVE",
"292 414 CURVE SMOOTH",
"292 414 OFFCURVE",
"287 415 OFFCURVE",
"282 415 CURVE SMOOTH",
"267 418 OFFCURVE",
"267 419 OFFCURVE",
"266 468 CURVE SMOOTH",
"265 519 OFFCURVE",
"266 543 OFFCURVE",
"271 549 CURVE SMOOTH",
"273 553 OFFCURVE",
"277 553 OFFCURVE",
"296 554 CURVE SMOOTH",
"308 554 OFFCURVE",
"319 555 OFFCURVE",
"319 555 CURVE SMOOTH",
"320 556 OFFCURVE",
"360 555 OFFCURVE",
"379 554 CURVE SMOOTH"
);
}
);
width = 700;
}
);
unicode = 0050;
},
{
glyphname = Q;
lastChange = "2015-06-01 23:44:20 +0000";
layers = (
{
layerId = "258ED206-D907-4350-8EBA-CBDDA1C16BF7";
name = Regular;
paths = (
{
closed = 1;
nodes = (
"303 706 OFFCURVE",
"282 703 OFFCURVE",
"271 698 CURVE SMOOTH",
"266 697 OFFCURVE",
"253 693 OFFCURVE",
"243 690 CURVE SMOOTH",
"223 685 OFFCURVE",
"202 675 OFFCURVE",
"187 665 CURVE SMOOTH",
"182 662 OFFCURVE",
"175 658 OFFCURVE",
"172 657 CURVE SMOOTH",
"169 655 OFFCURVE",
"162 651 OFFCURVE",
"158 646 CURVE SMOOTH",
"153 642 OFFCURVE",
"144 636 OFFCURVE",
"139 632 CURVE SMOOTH",
"134 628 OFFCURVE",
"125 619 OFFCURVE",
"119 612 CURVE SMOOTH",
"114 605 OFFCURVE",
"105 595 OFFCURVE",
"100 590 CURVE SMOOTH",
"78 564 OFFCURVE",
"43 490 OFFCURVE",
"37 454 CURVE SMOOTH",
"28 403 OFFCURVE",
"25 340 OFFCURVE",
"29 301 CURVE SMOOTH",
"34 250 OFFCURVE",
"49 193 OFFCURVE",
"64 166 CURVE SMOOTH",
"67 161 OFFCURVE",
"70 155 OFFCURVE",
"70 154 CURVE SMOOTH",
"70 152 OFFCURVE",
"74 146 OFFCURVE",
"79 139 CURVE SMOOTH",
"112 97 OFFCURVE",
"118 89 OFFCURVE",
"127 82 CURVE SMOOTH",
"140 70 OFFCURVE",
"156 57 OFFCURVE",
"168 49 CURVE SMOOTH",
"174 45 OFFCURVE",
"185 38 OFFCURVE",
"192 33 CURVE SMOOTH",
"199 28 OFFCURVE",
"209 23 OFFCURVE",
"213 22 CURVE SMOOTH",
"217 20 OFFCURVE",
"222 18 OFFCURVE",
"223 17 CURVE SMOOTH",
"229 13 OFFCURVE",
"258 4 OFFCURVE",
"282 -2 CURVE SMOOTH",
"308 -8 OFFCURVE",
"310 -8 OFFCURVE",
"358 -8 CURVE SMOOTH",
"391 -8 OFFCURVE",
"414 -8 OFFCURVE",
"426 -6 CURVE SMOOTH",
"443 -3 LINE",
"454 -15 LINE SMOOTH",
"503 -70 OFFCURVE",
"511 -77 OFFCURVE",
"537 -90 CURVE SMOOTH",
"577 -110 OFFCURVE",
"621 -121 OFFCURVE",
"665 -121 CURVE SMOOTH",
"691 -121 OFFCURVE",
"700 -117 OFFCURVE",
"704 -105 CURVE SMOOTH",
"708 -93 OFFCURVE",
"708 13 OFFCURVE",
"704 19 CURVE SMOOTH",
"701 25 OFFCURVE",
"697 27 OFFCURVE",
"676 31 CURVE SMOOTH",
"644 38 OFFCURVE",
"609 58 OFFCURVE",
"605 72 CURVE SMOOTH",
"604 78 OFFCURVE",
"606 83 OFFCURVE",
"620 97 CURVE SMOOTH",
"631 109 OFFCURVE",
"647 129 OFFCURVE",
"653 139 CURVE SMOOTH",
"655 142 OFFCURVE",
"658 147 OFFCURVE",
"660 150 CURVE SMOOTH",
"662 153 OFFCURVE",
"667 163 OFFCURVE",
"672 172 CURVE SMOOTH",
"676 182 OFFCURVE",
"681 189 OFFCURVE",
"682 190 CURVE SMOOTH",
"684 190 OFFCURVE",
"685 194 OFFCURVE",
"685 199 CURVE SMOOTH",
"685 204 OFFCURVE",
"688 219 OFFCURVE",
"692 232 CURVE SMOOTH",
"705 286 OFFCURVE",
"710 374 OFFCURVE",
"701 419 CURVE SMOOTH",
"699 431 OFFCURVE",
"697 446 OFFCURVE",
"696 453 CURVE SMOOTH",
"691 493 OFFCURVE",
"662 555 OFFCURVE",
"635 585 CURVE SMOOTH",
"633 588 OFFCURVE",
"629 593 OFFCURVE",
"625 598 CURVE SMOOTH",
"619 607 OFFCURVE",
"602 622 OFFCURVE",
"587 632 CURVE SMOOTH",
"581 636 OFFCURVE",
"572 642 OFFCURVE",
"567 647 CURVE SMOOTH",
"541 671 OFFCURVE",
"513 687 OFFCURVE",
"496 687 CURVE SMOOTH",
"493 687 OFFCURVE",
"488 689 OFFCURVE",
"485 691 CURVE SMOOTH",
"479 696 OFFCURVE",
"445 704 OFFCURVE",
"421 706 CURVE SMOOTH",
"396 709 OFFCURVE",
"352 710 OFFCURVE",
"329 708 CURVE SMOOTH"
);
},
{
closed = 1;
nodes = (
"424 554 OFFCURVE",
"441 540 OFFCURVE",
"457 514 CURVE SMOOTH",
"474 485 OFFCURVE",
"475 479 OFFCURVE",
"480 420 CURVE SMOOTH",
"483 389 OFFCURVE",
"483 375 OFFCURVE",
"482 325 CURVE SMOOTH",
"479 260 OFFCURVE",
"478 252 OFFCURVE",
"470 225 CURVE SMOOTH",
"460 196 OFFCURVE",
"447 173 OFFCURVE",
"433 162 CURVE SMOOTH",
"419 151 OFFCURVE",
"411 146 OFFCURVE",
"399 143 CURVE SMOOTH",
"387 140 OFFCURVE",
"349 139 OFFCURVE",
"338 142 CURVE SMOOTH",
"298 152 OFFCURVE",
"273 184 OFFCURVE",
"261 239 CURVE SMOOTH",
"255 270 OFFCURVE",
"254 286 OFFCURVE",
"254 355 CURVE SMOOTH",
"255 441 OFFCURVE",
"258 464 OFFCURVE",
"275 502 CURVE SMOOTH",
"284 521 OFFCURVE",
"296 536 OFFCURVE",
"311 546 CURVE SMOOTH",
"325 555 OFFCURVE",
"337 560 OFFCURVE",
"356 562 CURVE SMOOTH",
"377 564 OFFCURVE",
"384 564 OFFCURVE",
"397 561 CURVE SMOOTH"
);
}
);
width = 730;
}
);
unicode = 0051;
},
{
glyphname = R;
lastChange = "2015-06-01 23:44:38 +0000";
layers = (
{
layerId = "258ED206-D907-4350-8EBA-CBDDA1C16BF7";
name = Regular;
paths = (
{
closed = 1;
nodes = (
"60 699 OFFCURVE",
"56 696 OFFCURVE",
"53 693 CURVE SMOOTH",
"50 688 OFFCURVE",
"50 684 OFFCURVE",
"49 634 CURVE SMOOTH",
"49 604 OFFCURVE",
"49 566 OFFCURVE",
"50 549 CURVE SMOOTH",
"51 532 OFFCURVE",
"51 510 OFFCURVE",
"50 500 CURVE SMOOTH",
"49 491 OFFCURVE",
"49 454 OFFCURVE",
"49 420 CURVE SMOOTH",
"49 299 OFFCURVE",
"48 132 OFFCURVE",
"47 84 CURVE SMOOTH",
"46 19 OFFCURVE",
"46 16 OFFCURVE",
"49 11 CURVE SMOOTH",
"55 2 OFFCURVE",
"60 0 OFFCURVE",
"84 1 CURVE SMOOTH",
"96 1 OFFCURVE",
"139 0 OFFCURVE",
"178 0 CURVE SMOOTH",
"243 0 OFFCURVE",
"251 0 OFFCURVE",
"257 3 CURVE SMOOTH",
"260 5 OFFCURVE",
"264 9 OFFCURVE",
"265 12 CURVE SMOOTH",
"267 17 OFFCURVE",
"266 201 OFFCURVE",
"264 227 CURVE SMOOTH",
"262 247 OFFCURVE",
"265 276 OFFCURVE",
"269 281 CURVE SMOOTH",
"279 293 OFFCURVE",
"349 291 OFFCURVE",
"349 279 CURVE SMOOTH",
"349 277 OFFCURVE",
"350 274 OFFCURVE",
"352 270 CURVE SMOOTH",
"354 267 OFFCURVE",
"356 261 OFFCURVE",
"358 257 CURVE SMOOTH",
"364 236 OFFCURVE",
"396 145 OFFCURVE",
"403 129 CURVE SMOOTH",
"406 119 OFFCURVE",
"412 104 OFFCURVE",
"414 96 CURVE SMOOTH",
"422 71 OFFCURVE",
"438 23 OFFCURVE",
"442 16 CURVE SMOOTH",
"448 2 OFFCURVE",
"447 2 OFFCURVE",
"562 1 CURVE SMOOTH",
"665 1 LINE",
"671 6 LINE SMOOTH",
"679 13 OFFCURVE",
"679 23 OFFCURVE",
"669 42 CURVE SMOOTH",
"665 50 OFFCURVE",
"661 58 OFFCURVE",
"660 61 CURVE SMOOTH",
"659 63 OFFCURVE",
"656 71 OFFCURVE",
"652 78 CURVE SMOOTH",
"649 85 OFFCURVE",
"645 94 OFFCURVE",
"643 99 CURVE SMOOTH",
"642 103 OFFCURVE",
"637 113 OFFCURVE",
"633 122 CURVE SMOOTH",
"629 130 OFFCURVE",
"626 137 OFFCURVE",
"626 138 CURVE SMOOTH",
"626 139 OFFCURVE",
"622 148 OFFCURVE",
"613 169 CURVE SMOOTH",
"611 173 OFFCURVE",
"610 176 OFFCURVE",
"610 177 CURVE SMOOTH",
"610 178 OFFCURVE",
"604 193 OFFCURVE",
"590 225 CURVE SMOOTH",
"573 263 OFFCURVE",
"569 273 OFFCURVE",
"569 275 CURVE SMOOTH",
"569 277 OFFCURVE",
"568 279 OFFCURVE",
"567 281 CURVE SMOOTH",
"563 285 OFFCURVE",
"552 312 OFFCURVE",
"552 316 CURVE SMOOTH",
"552 321 OFFCURVE",
"560 327 OFFCURVE",
"569 330 CURVE SMOOTH",
"574 331 OFFCURVE",
"578 334 OFFCURVE",
"579 335 CURVE SMOOTH",
"580 336 OFFCURVE",
"582 338 OFFCURVE",
"583 338 CURVE SMOOTH",
"586 338 OFFCURVE",
"608 351 OFFCURVE",
"621 361 CURVE SMOOTH",
"638 375 OFFCURVE",
"653 394 OFFCURVE",
"666 420 CURVE SMOOTH",
"680 447 OFFCURVE",
"688 484 OFFCURVE",
"684 504 CURVE SMOOTH",
"683 510 OFFCURVE",
"683 516 OFFCURVE",
"683 518 CURVE SMOOTH",
"685 521 OFFCURVE",
"678 555 OFFCURVE",
"673 568 CURVE SMOOTH",
"671 573 OFFCURVE",
"666 583 OFFCURVE",
"662 589 CURVE SMOOTH",
"655 602 OFFCURVE",
"623 635 OFFCURVE",
"602 650 CURVE SMOOTH",
"586 662 OFFCURVE",
"560 677 OFFCURVE",
"554 677 CURVE SMOOTH",
"552 677 OFFCURVE",
"549 678 OFFCURVE",
"549 679 CURVE SMOOTH",
"548 680 OFFCURVE",
"544 681 OFFCURVE",
"539 682 CURVE SMOOTH",
"533 682 OFFCURVE",
"526 684 OFFCURVE",
"523 686 CURVE SMOOTH",
"519 687 OFFCURVE",
"514 689 OFFCURVE",
"511 689 CURVE SMOOTH",
"508 689 OFFCURVE",
"503 689 OFFCURVE",
"500 690 CURVE SMOOTH",
"493 693 OFFCURVE",
"458 697 OFFCURVE",
"427 698 CURVE SMOOTH",
"411 698 OFFCURVE",
"386 699 OFFCURVE",
"369 700 CURVE SMOOTH",
"353 701 OFFCURVE",
"334 701 OFFCURVE",
"326 701 CURVE SMOOTH",
"319 701 OFFCURVE",
"296 701 OFFCURVE",
"275 701 CURVE SMOOTH",
"254 701 OFFCURVE",
"221 700 OFFCURVE",
"203 700 CURVE SMOOTH",
"160 700 OFFCURVE",
"162 700 OFFCURVE",
"112 701 CURVE SMOOTH",
"85 702 OFFCURVE",
"67 702 OFFCURVE",
"63 700 CURVE SMOOTH"
);
},
{
closed = 1;
nodes = (
"406 556 OFFCURVE",
"412 554 OFFCURVE",
"414 554 CURVE SMOOTH",
"426 554 OFFCURVE",
"452 533 OFFCURVE",
"458 517 CURVE SMOOTH",
"463 505 OFFCURVE",
"462 480 OFFCURVE",
"457 468 CURVE SMOOTH",
"446 445 OFFCURVE",
"423 431 OFFCURVE",
"396 431 CURVE SMOOTH",
"389 431 OFFCURVE",
"376 431 OFFCURVE",
"367 430 CURVE SMOOTH",
"358 429 OFFCURVE",
"346 430 OFFCURVE",
"339 431 CURVE SMOOTH",
"332 432 OFFCURVE",
"314 432 OFFCURVE",
"298 431 CURVE SMOOTH",
"272 430 OFFCURVE",
"270 431 OFFCURVE",
"266 434 CURVE SMOOTH",
"263 437 OFFCURVE",
"263 440 OFFCURVE",
"264 487 CURVE SMOOTH",
"265 545 OFFCURVE",
"266 553 OFFCURVE",
"271 557 CURVE SMOOTH",
"276 561 OFFCURVE",
"280 561 OFFCURVE",
"338 561 CURVE SMOOTH",
"387 561 OFFCURVE",
"394 561 OFFCURVE",
"401 558 CURVE SMOOTH"
);
}
);
width = 700;
}
);
unicode = 0052;
},
{
glyphname = S;
lastChange = "2015-06-01 23:45:18 +0000";
layers = (
{
background = {
paths = (
{
closed = 1;
nodes = (
"321 711 OFFCURVE",
"303 710 OFFCURVE",
"283 709 CURVE SMOOTH",
"239 706 OFFCURVE",
"219 702 OFFCURVE",
"195 689 CURVE SMOOTH",
"192 687 OFFCURVE",
"186 685 OFFCURVE",
"184 684 CURVE SMOOTH",
"163 679 OFFCURVE",
"102 637 OFFCURVE",
"99 627 CURVE SMOOTH",
"98 625 OFFCURVE",
"95 621 OFFCURVE",
"91 618 CURVE SMOOTH",
"78 608 OFFCURVE",
"49 560 OFFCURVE",
"49 548 CURVE SMOOTH",
"49 545 OFFCURVE",
"47 536 OFFCURVE",
"44 528 CURVE SMOOTH",
"37 507 OFFCURVE",
"35 470 OFFCURVE",
"40 448 CURVE SMOOTH",
"47 417 OFFCURVE",
"60 388 OFFCURVE",
"74 370 CURVE SMOOTH",
"103 334 OFFCURVE",
"140 307 OFFCURVE",
"177 293 CURVE SMOOTH",
"183 291 OFFCURVE",
"193 287 OFFCURVE",
"199 284 CURVE SMOOTH",
"205 282 OFFCURVE",
"213 279 OFFCURVE",
"218 278 CURVE SMOOTH",
"222 277 OFFCURVE",
"234 274 OFFCURVE",
"244 272 CURVE SMOOTH",
"254 269 OFFCURVE",
"266 267 OFFCURVE",
"270 266 CURVE SMOOTH",
"275 265 OFFCURVE",
"286 263 OFFCURVE",
"296 260 CURVE SMOOTH",
"306 258 OFFCURVE",
"320 255 OFFCURVE",
"328 253 CURVE SMOOTH",
"358 248 OFFCURVE",
"391 238 OFFCURVE",
"398 233 CURVE SMOOTH",
"401 231 OFFCURVE",
"403 229 OFFCURVE",
"404 229 CURVE SMOOTH",
"405 229 OFFCURVE",
"410 227 OFFCURVE",
"414 224 CURVE SMOOTH",
"424 217 OFFCURVE",
"432 200 OFFCURVE",
"430 190 CURVE SMOOTH",
"426 169 OFFCURVE",
"412 154 OFFCURVE",
"390 148 CURVE SMOOTH",
"375 143 OFFCURVE",
"357 139 OFFCURVE",
"350 139 CURVE SMOOTH",
"348 139 OFFCURVE",
"336 138 OFFCURVE",
"324 137 CURVE SMOOTH",
"307 135 OFFCURVE",
"300 135 OFFCURVE",
"291 137 CURVE SMOOTH",
"285 138 OFFCURVE",
"277 139 OFFCURVE",
"274 138 CURVE SMOOTH",
"271 137 OFFCURVE",
"266 139 OFFCURVE",
"256 144 CURVE SMOOTH",
"249 148 OFFCURVE",
"236 153 OFFCURVE",
"228 156 CURVE SMOOTH",
"205 163 OFFCURVE",
"200 167 OFFCURVE",
"184 184 CURVE SMOOTH",
"159 212 OFFCURVE",
"153 217 OFFCURVE",
"148 217 CURVE SMOOTH",
"141 217 OFFCURVE",
"129 212 OFFCURVE",
"122 206 CURVE SMOOTH",
"102 190 OFFCURVE",
"76 172 OFFCURVE",
"67 167 CURVE SMOOTH",
"60 163 OFFCURVE",
"34 144 OFFCURVE",
"26 137 CURVE SMOOTH",
"17 129 OFFCURVE",
"18 120 OFFCURVE",
"27 107 CURVE SMOOTH",
"31 101 OFFCURVE",
"34 96 OFFCURVE",
"35 96 CURVE SMOOTH",
"36 96 OFFCURVE",
"38 94 OFFCURVE",
"39 92 CURVE SMOOTH",
"40 90 OFFCURVE",
"49 82 OFFCURVE",
"57 75 CURVE SMOOTH",
"66 68 OFFCURVE",
"77 59 OFFCURVE",
"81 55 CURVE SMOOTH",
"86 51 OFFCURVE",
"90 48 OFFCURVE",
"91 48 CURVE SMOOTH",
"92 48 OFFCURVE",
"102 43 OFFCURVE",
"112 37 CURVE SMOOTH",
"123 31 OFFCURVE",
"136 25 OFFCURVE",
"141 23 CURVE SMOOTH",
"146 22 OFFCURVE",
"151 19 OFFCURVE",
"152 18 CURVE SMOOTH",
"154 16 OFFCURVE",
"158 14 OFFCURVE",
"163 14 CURVE SMOOTH",
"167 13 OFFCURVE",
"177 11 OFFCURVE",
"185 9 CURVE SMOOTH",
"204 4 OFFCURVE",
"228 -1 OFFCURVE",
"253 -4 CURVE SMOOTH",
"257 -4 OFFCURVE",
"265 -6 OFFCURVE",
"270 -7 CURVE SMOOTH",
"276 -8 OFFCURVE",
"300 -9 OFFCURVE",
"329 -9 CURVE SMOOTH",
"378 -9 OFFCURVE",
"405 -7 OFFCURVE",
"424 -1 CURVE SMOOTH",
"430 1 OFFCURVE",
"435 3 OFFCURVE",
"453 6 CURVE SMOOTH",
"463 9 OFFCURVE",
"503 24 OFFCURVE",
"507 27 CURVE SMOOTH",
"509 28 OFFCURVE",
"513 31 OFFCURVE",
"517 32 CURVE SMOOTH",
"526 36 OFFCURVE",
"560 61 OFFCURVE",
"575 76 CURVE SMOOTH",
"585 86 OFFCURVE",
"590 92 OFFCURVE",
"603 112 CURVE SMOOTH",
"617 133 OFFCURVE",
"627 166 OFFCURVE",
"632 207 CURVE SMOOTH",
"635 231 OFFCURVE",
"634 250 OFFCURVE",
"628 276 CURVE SMOOTH",
"621 307 OFFCURVE",
"607 333 OFFCURVE",
"577 364 CURVE SMOOTH",
"563 380 OFFCURVE",
"557 385 OFFCURVE",
"539 395 CURVE SMOOTH",
"528 401 OFFCURVE",
"517 406 OFFCURVE",
"515 406 CURVE SMOOTH",
"513 406 OFFCURVE",
"505 410 OFFCURVE",
"497 413 CURVE SMOOTH",
"489 417 OFFCURVE",
"482 420 OFFCURVE",
"480 420 CURVE SMOOTH",
"478 420 OFFCURVE",
"476 421 OFFCURVE",
"475 422 CURVE SMOOTH",
"472 426 OFFCURVE",
"429 439 OFFCURVE",
"403 444 CURVE SMOOTH",
"397 446 OFFCURVE",
"388 448 OFFCURVE",
"384 449 CURVE SMOOTH",
"379 450 OFFCURVE",
"373 451 OFFCURVE",
"369 451 CURVE SMOOTH",
"366 451 OFFCURVE",
"362 452 OFFCURVE",
"360 453 CURVE SMOOTH",
"355 455 OFFCURVE",
"334 461 OFFCURVE",
"321 463 CURVE SMOOTH",
"280 470 OFFCURVE",
"268 474 OFFCURVE",
"253 487 CURVE SMOOTH",
"242 496 OFFCURVE",
"238 503 OFFCURVE",
"238 514 CURVE SMOOTH",
"238 529 OFFCURVE",
"247 540 OFFCURVE",
"269 552 CURVE SMOOTH",
"290 562 OFFCURVE",
"304 565 OFFCURVE",
"342 564 CURVE SMOOTH",
"381 562 OFFCURVE",
"403 558 OFFCURVE",
"420 546 CURVE SMOOTH",
"426 543 OFFCURVE",
"433 538 OFFCURVE",
"436 536 CURVE SMOOTH",
"439 535 OFFCURVE",
"445 529 OFFCURVE",
"449 524 CURVE SMOOTH",
"464 508 OFFCURVE",
"469 504 OFFCURVE",
"475 504 CURVE SMOOTH",
"481 504 OFFCURVE",
"494 512 OFFCURVE",
"503 521 CURVE SMOOTH",
"506 525 OFFCURVE",
"510 527 OFFCURVE",
"512 527 CURVE SMOOTH",
"514 527 OFFCURVE",
"518 530 OFFCURVE",
"522 533 CURVE SMOOTH",
"526 537 OFFCURVE",
"531 541 OFFCURVE",
"534 544 CURVE SMOOTH",
"594 587 OFFCURVE",
"597 590 OFFCURVE",
"594 602 CURVE SMOOTH",
"592 612 OFFCURVE",
"555 647 OFFCURVE",
"538 656 CURVE SMOOTH",
"536 657 OFFCURVE",
"532 660 OFFCURVE",
"530 662 CURVE SMOOTH",
"520 671 OFFCURVE",
"465 694 OFFCURVE",
"450 696 CURVE SMOOTH",
"447 696 OFFCURVE",
"439 698 OFFCURVE",
"430 701 CURVE SMOOTH",
"402 708 OFFCURVE",
"347 713 OFFCURVE",
"324 711 CURVE SMOOTH"
);
}
);
};
layerId = "258ED206-D907-4350-8EBA-CBDDA1C16BF7";
name = Regular;
paths = (
{
closed = 1;
nodes = (
"323 711 OFFCURVE",
"305 710 OFFCURVE",
"285 710 CURVE SMOOTH",
"241 707 OFFCURVE",
"221 704 OFFCURVE",
"197 691 CURVE SMOOTH",
"194 689 OFFCURVE",
"188 687 OFFCURVE",
"186 686 CURVE SMOOTH",
"165 682 OFFCURVE",
"103 641 OFFCURVE",
"100 631 CURVE SMOOTH",
"99 629 OFFCURVE",
"96 625 OFFCURVE",
"92 622 CURVE SMOOTH",
"79 612 OFFCURVE",
"49 565 OFFCURVE",
"48 553 CURVE SMOOTH",
"48 550 OFFCURVE",
"46 541 OFFCURVE",
"43 533 CURVE SMOOTH",
"36 512 OFFCURVE",
"33 475 OFFCURVE",
"38 453 CURVE SMOOTH",
"44 422 OFFCURVE",
"57 393 OFFCURVE",
"70 374 CURVE SMOOTH",
"99 338 OFFCURVE",
"135 310 OFFCURVE",
"172 296 CURVE SMOOTH",
"178 294 OFFCURVE",
"188 289 OFFCURVE",
"194 286 CURVE SMOOTH",
"200 284 OFFCURVE",
"208 281 OFFCURVE",
"213 280 CURVE SMOOTH",
"217 279 OFFCURVE",
"229 276 OFFCURVE",
"239 273 CURVE SMOOTH",
"249 270 OFFCURVE",
"261 268 OFFCURVE",
"265 267 CURVE SMOOTH",
"270 266 OFFCURVE",
"280 264 OFFCURVE",
"290 261 CURVE SMOOTH",
"300 258 OFFCURVE",
"314 255 OFFCURVE",
"322 253 CURVE SMOOTH",
"352 247 OFFCURVE",
"385 237 OFFCURVE",
"392 232 CURVE SMOOTH",
"395 230 OFFCURVE",
"397 228 OFFCURVE",
"398 228 CURVE SMOOTH",
"399 228 OFFCURVE",
"404 226 OFFCURVE",
"408 222 CURVE SMOOTH",
"418 215 OFFCURVE",
"425 198 OFFCURVE",
"423 188 CURVE SMOOTH",
"419 167 OFFCURVE",
"405 153 OFFCURVE",
"382 147 CURVE SMOOTH",
"367 142 OFFCURVE",
"349 139 OFFCURVE",
"342 139 CURVE SMOOTH",
"340 139 OFFCURVE",
"328 138 OFFCURVE",
"316 137 CURVE SMOOTH",
"299 135 OFFCURVE",
"292 135 OFFCURVE",
"283 138 CURVE SMOOTH",
"277 139 OFFCURVE",
"269 140 OFFCURVE",
"266 139 CURVE SMOOTH",
"263 138 OFFCURVE",
"258 140 OFFCURVE",
"248 145 CURVE SMOOTH",
"241 149 OFFCURVE",
"229 155 OFFCURVE",
"221 158 CURVE SMOOTH",
"198 165 OFFCURVE",
"193 169 OFFCURVE",
"177 187 CURVE SMOOTH",
"153 215 OFFCURVE",
"147 220 OFFCURVE",
"142 220 CURVE SMOOTH",
"135 220 OFFCURVE",
"123 215 OFFCURVE",
"115 210 CURVE SMOOTH",
"95 194 OFFCURVE",
"69 176 OFFCURVE",
"60 172 CURVE SMOOTH",
"53 168 OFFCURVE",
"26 149 OFFCURVE",
"18 142 CURVE SMOOTH",
"9 134 OFFCURVE",
"10 125 OFFCURVE",
"19 112 CURVE SMOOTH",
"23 106 OFFCURVE",
"26 101 OFFCURVE",
"27 101 CURVE SMOOTH",
"28 101 OFFCURVE",
"30 99 OFFCURVE",
"31 97 CURVE SMOOTH",
"31 95 OFFCURVE",
"40 87 OFFCURVE",
"48 80 CURVE SMOOTH",
"57 73 OFFCURVE",
"68 63 OFFCURVE",
"72 59 CURVE SMOOTH",
"77 55 OFFCURVE",
"81 52 OFFCURVE",
"82 52 CURVE SMOOTH",
"83 52 OFFCURVE",
"93 47 OFFCURVE",
"103 41 CURVE SMOOTH",
"113 35 OFFCURVE",
"126 28 OFFCURVE",
"131 26 CURVE SMOOTH",
"136 25 OFFCURVE",
"141 22 OFFCURVE",
"142 21 CURVE SMOOTH",
"144 19 OFFCURVE",
"148 17 OFFCURVE",
"153 17 CURVE SMOOTH",
"157 16 OFFCURVE",
"167 14 OFFCURVE",
"175 12 CURVE SMOOTH",
"194 6 OFFCURVE",
"218 1 OFFCURVE",
"243 -3 CURVE SMOOTH",
"247 -3 OFFCURVE",
"255 -5 OFFCURVE",
"260 -6 CURVE SMOOTH",
"266 -7 OFFCURVE",
"290 -8 OFFCURVE",
"319 -9 CURVE SMOOTH",
"368 -10 OFFCURVE",
"395 -8 OFFCURVE",
"414 -3 CURVE SMOOTH",
"420 -1 OFFCURVE",
"425 1 OFFCURVE",
"443 4 CURVE SMOOTH",
"453 7 OFFCURVE",
"493 21 OFFCURVE",
"497 24 CURVE SMOOTH",
"499 25 OFFCURVE",
"503 28 OFFCURVE",
"507 29 CURVE SMOOTH",
"516 33 OFFCURVE",
"551 57 OFFCURVE",
"566 72 CURVE SMOOTH",
"576 82 OFFCURVE",
"581 87 OFFCURVE",
"595 107 CURVE SMOOTH",
"609 128 OFFCURVE",
"620 161 OFFCURVE",
"625 202 CURVE SMOOTH",
"629 226 OFFCURVE",
"628 245 OFFCURVE",
"623 271 CURVE SMOOTH",
"616 302 OFFCURVE",
"603 328 OFFCURVE",
"573 360 CURVE SMOOTH",
"559 376 OFFCURVE",
"554 381 OFFCURVE",
"536 391 CURVE SMOOTH",
"525 397 OFFCURVE",
"514 403 OFFCURVE",
"512 403 CURVE SMOOTH",
"510 403 OFFCURVE",
"502 407 OFFCURVE",
"494 410 CURVE SMOOTH",
"486 414 OFFCURVE",
"479 417 OFFCURVE",
"477 417 CURVE SMOOTH",
"475 417 OFFCURVE",
"473 418 OFFCURVE",
"472 419 CURVE SMOOTH",
"469 423 OFFCURVE",
"427 437 OFFCURVE",
"401 443 CURVE SMOOTH",
"395 445 OFFCURVE",
"386 447 OFFCURVE",
"382 448 CURVE SMOOTH",
"377 449 OFFCURVE",
"371 450 OFFCURVE",
"367 450 CURVE SMOOTH",
"364 450 OFFCURVE",
"360 451 OFFCURVE",
"358 452 CURVE SMOOTH",
"353 454 OFFCURVE",
"332 461 OFFCURVE",
"319 463 CURVE SMOOTH",
"278 471 OFFCURVE",
"266 475 OFFCURVE",
"251 488 CURVE SMOOTH",
"241 497 OFFCURVE",
"237 505 OFFCURVE",
"237 516 CURVE SMOOTH",
"237 531 OFFCURVE",
"246 541 OFFCURVE",
"269 553 CURVE SMOOTH",
"290 563 OFFCURVE",
"304 565 OFFCURVE",
"342 564 CURVE SMOOTH",
"381 561 OFFCURVE",
"403 557 OFFCURVE",
"419 544 CURVE SMOOTH",
"425 541 OFFCURVE",
"432 536 OFFCURVE",
"435 534 CURVE SMOOTH",
"438 533 OFFCURVE",
"444 527 OFFCURVE",
"448 522 CURVE SMOOTH",
"463 506 OFFCURVE",
"468 501 OFFCURVE",
"474 501 CURVE SMOOTH",
"480 501 OFFCURVE",
"493 509 OFFCURVE",
"502 518 CURVE SMOOTH",
"505 522 OFFCURVE",
"509 524 OFFCURVE",
"511 524 CURVE SMOOTH",
"513 524 OFFCURVE",
"517 527 OFFCURVE",
"521 530 CURVE SMOOTH",
"525 533 OFFCURVE",
"530 537 OFFCURVE",
"533 540 CURVE SMOOTH",
"594 582 OFFCURVE",
"597 585 OFFCURVE",
"594 597 CURVE SMOOTH",
"593 607 OFFCURVE",
"556 643 OFFCURVE",
"539 652 CURVE SMOOTH",
"537 653 OFFCURVE",
"533 656 OFFCURVE",
"531 658 CURVE SMOOTH",
"522 668 OFFCURVE",
"467 692 OFFCURVE",
"452 694 CURVE SMOOTH",
"449 694 OFFCURVE",
"441 696 OFFCURVE",
"432 699 CURVE SMOOTH",
"404 707 OFFCURVE",
"349 713 OFFCURVE",
"326 711 CURVE SMOOTH"
);
}
);
width = 650;
}
);
unicode = 0053;
},
{
glyphname = T;
lastChange = "2015-06-01 23:45:27 +0000";
layers = (
{
layerId = "258ED206-D907-4350-8EBA-CBDDA1C16BF7";
name = Regular;
paths = (
{
closed = 1;
nodes = (
"28 694 OFFCURVE",
"25 691 OFFCURVE",
"24 688 CURVE SMOOTH",
"22 684 OFFCURVE",
"22 661 OFFCURVE",
"22 618 CURVE SMOOTH",
"23 554 LINE",
"28 549 LINE SMOOTH",
"32 546 OFFCURVE",
"36 544 OFFCURVE",
"46 542 CURVE SMOOTH",
"60 541 OFFCURVE",
"118 541 OFFCURVE",
"186 544 CURVE SMOOTH",
"204 545 OFFCURVE",
"219 545 OFFCURVE",
"222 544 CURVE SMOOTH",
"225 542 OFFCURVE",
"225 541 OFFCURVE",
"224 526 CURVE SMOOTH",
"223 517 OFFCURVE",
"222 413 OFFCURVE",
"222 296 CURVE SMOOTH",
"221 156 OFFCURVE",
"220 70 OFFCURVE",
"219 49 CURVE SMOOTH",
"216 17 OFFCURVE",
"216 16 OFFCURVE",
"220 11 CURVE SMOOTH",
"227 1 OFFCURVE",
"231 1 OFFCURVE",
"318 1 CURVE SMOOTH",
"363 0 OFFCURVE",
"404 0 OFFCURVE",
"409 0 CURVE SMOOTH",
"423 0 OFFCURVE",
"429 2 OFFCURVE",
"432 8 CURVE SMOOTH",
"434 12 OFFCURVE",
"435 57 OFFCURVE",
"435 255 CURVE SMOOTH",
"436 388 OFFCURVE",
"436 506 OFFCURVE",
"435 517 CURVE SMOOTH",
"435 547 OFFCURVE",
"432 545 OFFCURVE",
"492 543 CURVE SMOOTH",
"520 542 OFFCURVE",
"561 542 OFFCURVE",
"585 542 CURVE SMOOTH",
"629 542 LINE",
"633 547 LINE SMOOTH",
"637 552 OFFCURVE",
"637 555 OFFCURVE",
"637 616 CURVE SMOOTH",
"637 672 OFFCURVE",
"636 681 OFFCURVE",
"634 686 CURVE SMOOTH",
"632 690 OFFCURVE",
"629 693 OFFCURVE",
"627 694 CURVE SMOOTH",
"625 695 OFFCURVE",
"521 696 OFFCURVE",
"396 696 CURVE SMOOTH",
"271 696 OFFCURVE",
"140 697 OFFCURVE",
"104 697 CURVE SMOOTH",
"49 698 OFFCURVE",
"37 698 OFFCURVE",
"32 696 CURVE SMOOTH"
);
}
);
width = 660;
}
);
unicode = 0054;
},
{
glyphname = U;
lastChange = "2015-06-01 23:45:38 +0000";
layers = (
{
layerId = "258ED206-D907-4350-8EBA-CBDDA1C16BF7";
name = Regular;
paths = (
{
closed = 1;
nodes = (
"61 699 OFFCURVE",
"57 695 OFFCURVE",
"54 685 CURVE SMOOTH",
"50 673 OFFCURVE",
"50 308 OFFCURVE",
"53 239 CURVE SMOOTH",
"55 210 OFFCURVE",
"57 183 OFFCURVE",
"58 179 CURVE SMOOTH",
"65 151 OFFCURVE",
"68 143 OFFCURVE",
"83 112 CURVE SMOOTH",
"88 100 OFFCURVE",
"95 90 OFFCURVE",
"99 85 CURVE SMOOTH",
"103 81 OFFCURVE",
"109 75 OFFCURVE",
"112 71 CURVE SMOOTH",
"121 59 OFFCURVE",
"171 25 OFFCURVE",
"185 20 CURVE SMOOTH",
"188 20 OFFCURVE",
"191 18 OFFCURVE",
"193 16 CURVE SMOOTH",
"199 11 OFFCURVE",
"248 -3 OFFCURVE",
"271 -7 CURVE SMOOTH",
"304 -12 OFFCURVE",
"393 -14 OFFCURVE",
"410 -10 CURVE SMOOTH",
"415 -9 OFFCURVE",
"422 -8 OFFCURVE",
"428 -8 CURVE SMOOTH",
"439 -8 OFFCURVE",
"479 1 OFFCURVE",
"498 9 CURVE SMOOTH",
"512 14 OFFCURVE",
"540 29 OFFCURVE",
"559 41 CURVE SMOOTH",
"572 49 OFFCURVE",
"598 75 OFFCURVE",
"608 89 CURVE SMOOTH",
"629 116 OFFCURVE",
"647 158 OFFCURVE",
"650 184 CURVE SMOOTH",
"650 190 OFFCURVE",
"652 200 OFFCURVE",
"653 207 CURVE SMOOTH",
"654 213 OFFCURVE",
"656 228 OFFCURVE",
"656 238 CURVE SMOOTH",
"657 253 OFFCURVE",
"658 545 OFFCURVE",
"657 580 CURVE SMOOTH",
"657 586 OFFCURVE",
"657 613 OFFCURVE",
"658 639 CURVE SMOOTH",
"659 686 LINE",
"654 692 LINE",
"648 698 LINE",
"572 699 LINE SMOOTH",
"530 699 OFFCURVE",
"494 699 OFFCURVE",
"491 698 CURVE SMOOTH",
"484 695 OFFCURVE",
"481 684 OFFCURVE",
"482 668 CURVE SMOOTH",
"483 657 OFFCURVE",
"485 486 OFFCURVE",
"485 359 CURVE SMOOTH",
"485 355 OFFCURVE",
"485 329 OFFCURVE",
"484 300 CURVE SMOOTH",
"483 234 OFFCURVE",
"481 221 OFFCURVE",
"467 190 CURVE SMOOTH",
"462 178 OFFCURVE",
"458 174 OFFCURVE",
"449 167 CURVE SMOOTH",
"443 163 OFFCURVE",
"436 157 OFFCURVE",
"433 156 CURVE SMOOTH",
"430 154 OFFCURVE",
"425 151 OFFCURVE",
"421 149 CURVE SMOOTH",
"416 145 OFFCURVE",
"407 144 OFFCURVE",
"390 141 CURVE SMOOTH",
"366 138 LINE",
"347 144 LINE SMOOTH",
"337 148 OFFCURVE",
"326 151 OFFCURVE",
"323 152 CURVE SMOOTH",
"316 155 OFFCURVE",
"288 182 OFFCURVE",
"281 193 CURVE SMOOTH",
"269 213 OFFCURVE",
"269 215 OFFCURVE",
"264 342 CURVE SMOOTH",
"264 349 OFFCURVE",
"265 373 OFFCURVE",
"266 397 CURVE SMOOTH",
"267 420 OFFCURVE",
"268 480 OFFCURVE",
"268 529 CURVE SMOOTH",
"268 579 OFFCURVE",
"269 635 OFFCURVE",
"270 654 CURVE SMOOTH",
"271 689 LINE",
"266 694 LINE SMOOTH",
"260 701 OFFCURVE",
"248 703 OFFCURVE",
"216 701 CURVE SMOOTH",
"179 699 OFFCURVE",
"159 699 OFFCURVE",
"113 700 CURVE SMOOTH",
"90 701 OFFCURVE",
"69 701 OFFCURVE",
"67 701 CURVE SMOOTH"
);
},
{
closed = 1;
nodes = (
"244 116 OFFCURVE",
"241 118 OFFCURVE",
"239 120 CURVE SMOOTH",
"235 124 OFFCURVE",
"235 125 OFFCURVE",
"238 127 CURVE SMOOTH",
"240 128 OFFCURVE",
"241 127 OFFCURVE",
"243 123 CURVE SMOOTH",
"244 120 OFFCURVE",
"245 117 OFFCURVE",
"244 117 CURVE SMOOTH"
);
},
{
closed = 1;
nodes = (
"358 61 OFFCURVE",
"359 60 OFFCURVE",
"358 59 CURVE SMOOTH",
"356 56 OFFCURVE",
"349 58 OFFCURVE",
"349 61 CURVE SMOOTH",
"349 65 OFFCURVE",
"352 65 OFFCURVE",
"356 62 CURVE SMOOTH"
);
}
);
width = 700;
}
);
unicode = 0055;
},
{
glyphname = V;
lastChange = "2015-06-02 16:25:46 +0000";
layers = (
{
layerId = "258ED206-D907-4350-8EBA-CBDDA1C16BF7";
name = Regular;
paths = (
{
closed = 1;
nodes = (
"8 694 OFFCURVE",
"7 682 OFFCURVE",
"16 656 CURVE SMOOTH",
"19 646 OFFCURVE",
"26 626 OFFCURVE",
"32 610 CURVE SMOOTH",
"37 595 OFFCURVE",
"44 575 OFFCURVE",
"47 567 CURVE SMOOTH",
"53 550 OFFCURVE",
"53 553 OFFCURVE",
"73 490 CURVE SMOOTH",
"82 463 OFFCURVE",
"92 436 OFFCURVE",
"95 428 CURVE SMOOTH",
"104 404 OFFCURVE",
"113 377 OFFCURVE",
"113 374 CURVE SMOOTH",
"113 372 OFFCURVE",
"115 367 OFFCURVE",
"117 363 CURVE SMOOTH",
"119 359 OFFCURVE",
"124 344 OFFCURVE",
"129 329 CURVE SMOOTH",
"133 315 OFFCURVE",
"140 292 OFFCURVE",
"145 278 CURVE SMOOTH",
"150 264 OFFCURVE",
"157 245 OFFCURVE",
"160 236 CURVE SMOOTH",
"163 227 OFFCURVE",
"168 214 OFFCURVE",
"171 208 CURVE SMOOTH",
"173 201 OFFCURVE",
"177 188 OFFCURVE",
"180 178 CURVE SMOOTH",
"182 169 OFFCURVE",
"185 159 OFFCURVE",
"186 157 CURVE SMOOTH",
"188 155 OFFCURVE",
"193 141 OFFCURVE",
"197 127 CURVE SMOOTH",
"202 112 OFFCURVE",
"208 93 OFFCURVE",
"211 84 CURVE SMOOTH",
"221 57 OFFCURVE",
"227 39 OFFCURVE",
"229 30 CURVE SMOOTH",
"231 19 OFFCURVE",
"239 8 OFFCURVE",
"248 4 CURVE SMOOTH",
"253 2 OFFCURVE",
"264 1 OFFCURVE",
"286 1 CURVE SMOOTH",
"303 0 OFFCURVE",
"318 0 OFFCURVE",
"319 0 CURVE SMOOTH",
"320 0 OFFCURVE",
"345 1 OFFCURVE",
"375 1 CURVE SMOOTH",
"434 2 OFFCURVE",
"437 3 OFFCURVE",
"445 13 CURVE SMOOTH",
"447 16 OFFCURVE",
"450 20 OFFCURVE",
"451 21 CURVE SMOOTH",
"453 23 OFFCURVE",
"464 56 OFFCURVE",
"476 94 CURVE SMOOTH",
"480 105 OFFCURVE",
"484 118 OFFCURVE",
"486 123 CURVE SMOOTH",
"488 128 OFFCURVE",
"490 136 OFFCURVE",
"492 142 CURVE SMOOTH",
"493 148 OFFCURVE",
"498 162 OFFCURVE",
"502 173 CURVE SMOOTH",
"506 183 OFFCURVE",
"511 197 OFFCURVE",
"513 204 CURVE SMOOTH",
"515 210 OFFCURVE",
"520 227 OFFCURVE",
"525 240 CURVE SMOOTH",
"530 254 OFFCURVE",
"535 270 OFFCURVE",
"537 276 CURVE SMOOTH",
"538 283 OFFCURVE",
"540 291 OFFCURVE",
"542 295 CURVE SMOOTH",
"549 310 OFFCURVE",
"559 338 OFFCURVE",
"567 363 CURVE SMOOTH",
"571 376 OFFCURVE",
"577 395 OFFCURVE",
"581 406 CURVE SMOOTH",
"590 427 OFFCURVE",
"600 456 OFFCURVE",
"608 486 CURVE SMOOTH",
"612 498 OFFCURVE",
"617 512 OFFCURVE",
"619 518 CURVE SMOOTH",
"625 529 OFFCURVE",
"632 549 OFFCURVE",
"638 569 CURVE SMOOTH",
"640 577 OFFCURVE",
"644 588 OFFCURVE",
"646 592 CURVE SMOOTH",
"650 603 OFFCURVE",
"657 622 OFFCURVE",
"660 639 CURVE SMOOTH",
"662 646 OFFCURVE",
"666 656 OFFCURVE",
"668 662 CURVE SMOOTH",
"673 672 OFFCURVE",
"675 685 OFFCURVE",
"671 689 CURVE SMOOTH",
"670 690 OFFCURVE",
"665 693 OFFCURVE",
"660 695 CURVE SMOOTH",
"652 697 OFFCURVE",
"642 698 OFFCURVE",
"584 697 CURVE SMOOTH",
"519 697 OFFCURVE",
"515 697 OFFCURVE",
"501 690 CURVE SMOOTH",
"496 688 OFFCURVE",
"488 667 OFFCURVE",
"484 648 CURVE SMOOTH",
"483 644 OFFCURVE",
"481 637 OFFCURVE",
"479 632 CURVE SMOOTH",
"477 627 OFFCURVE",
"475 619 OFFCURVE",
"473 614 CURVE SMOOTH",
"472 609 OFFCURVE",
"469 600 OFFCURVE",
"466 594 CURVE SMOOTH",
"464 587 OFFCURVE",
"461 575 OFFCURVE",
"458 567 CURVE SMOOTH",
"455 553 OFFCURVE",
"450 541 OFFCURVE",
"447 534 CURVE SMOOTH",
"446 532 OFFCURVE",
"445 528 OFFCURVE",
"445 526 CURVE SMOOTH",
"445 523 OFFCURVE",
"441 510 OFFCURVE",
"437 496 CURVE SMOOTH",
"432 482 OFFCURVE",
"428 466 OFFCURVE",
"426 460 CURVE SMOOTH",
"422 442 OFFCURVE",
"420 436 OFFCURVE",
"415 423 CURVE SMOOTH",
"412 416 OFFCURVE",
"410 409 OFFCURVE",
"410 408 CURVE SMOOTH",
"410 406 OFFCURVE",
"407 396 OFFCURVE",
"403 385 CURVE SMOOTH",
"399 374 OFFCURVE",
"393 355 OFFCURVE",
"389 343 CURVE SMOOTH",
"386 330 OFFCURVE",
"381 315 OFFCURVE",
"379 309 CURVE SMOOTH",
"375 298 OFFCURVE",
"367 274 OFFCURVE",
"363 258 CURVE SMOOTH",
"359 245 OFFCURVE",
"356 248 OFFCURVE",
"350 271 CURVE SMOOTH",
"348 278 OFFCURVE",
"345 287 OFFCURVE",
"343 291 CURVE SMOOTH",
"341 295 OFFCURVE",
"339 303 OFFCURVE",
"338 308 CURVE SMOOTH",
"337 314 OFFCURVE",
"333 324 OFFCURVE",
"330 331 CURVE SMOOTH",
"326 339 OFFCURVE",
"324 345 OFFCURVE",
"324 353 CURVE SMOOTH",
"324 361 OFFCURVE",
"318 380 OFFCURVE",
"312 392 CURVE SMOOTH",
"311 394 OFFCURVE",
"310 398 OFFCURVE",
"310 401 CURVE SMOOTH",
"310 403 OFFCURVE",
"308 411 OFFCURVE",
"306 418 CURVE SMOOTH",
"303 424 OFFCURVE",
"298 439 OFFCURVE",
"295 449 CURVE SMOOTH",
"292 460 OFFCURVE",
"285 481 OFFCURVE",
"280 496 CURVE SMOOTH",
"276 510 OFFCURVE",
"271 525 OFFCURVE",
"270 529 CURVE SMOOTH",
"269 535 OFFCURVE",
"263 557 OFFCURVE",
"259 570 CURVE SMOOTH",
"256 579 OFFCURVE",
"250 600 OFFCURVE",
"245 617 CURVE SMOOTH",
"242 628 OFFCURVE",
"234 652 OFFCURVE",
"227 676 CURVE SMOOTH",
"224 687 OFFCURVE",
"220 692 OFFCURVE",
"213 696 CURVE SMOOTH",
"211 697 OFFCURVE",
"189 698 OFFCURVE",
"147 699 CURVE SMOOTH",
"113 700 OFFCURVE",
"73 700 OFFCURVE",
"58 701 CURVE SMOOTH",
"37 701 OFFCURVE",
"29 701 OFFCURVE",
"22 699 CURVE SMOOTH"
);
}
);
width = 680;
}
);
unicode = 0056;
},
{
glyphname = W;
lastChange = "2015-06-01 23:46:06 +0000";
layers = (
{
layerId = "258ED206-D907-4350-8EBA-CBDDA1C16BF7";
name = Regular;
paths = (
{
closed = 1;
nodes = (
"-6 702 OFFCURVE",
"-15 697 OFFCURVE",
"-17 691 CURVE SMOOTH",
"-20 686 OFFCURVE",
"-18 664 OFFCURVE",
"-14 655 CURVE SMOOTH",
"-12 650 OFFCURVE",
"5 596 OFFCURVE",
"12 570 CURVE SMOOTH",
"15 561 OFFCURVE",
"23 537 OFFCURVE",
"29 519 CURVE SMOOTH",
"35 500 OFFCURVE",
"41 481 OFFCURVE",
"42 476 CURVE SMOOTH",
"51 445 OFFCURVE",
"58 421 OFFCURVE",
"62 412 CURVE SMOOTH",
"64 407 OFFCURVE",
"67 397 OFFCURVE",
"68 391 CURVE SMOOTH",
"70 380 OFFCURVE",
"77 359 OFFCURVE",
"84 338 CURVE SMOOTH",
"87 329 OFFCURVE",
"94 304 OFFCURVE",
"102 275 CURVE SMOOTH",
"103 270 OFFCURVE",
"106 261 OFFCURVE",
"108 254 CURVE SMOOTH",
"118 226 OFFCURVE",
"129 189 OFFCURVE",
"134 173 CURVE SMOOTH",
"136 163 OFFCURVE",
"140 151 OFFCURVE",
"141 145 CURVE SMOOTH",
"143 140 OFFCURVE",
"146 127 OFFCURVE",
"149 117 CURVE SMOOTH",
"152 107 OFFCURVE",
"155 95 OFFCURVE",
"157 90 CURVE SMOOTH",
"158 85 OFFCURVE",
"161 75 OFFCURVE",
"163 67 CURVE SMOOTH",
"165 60 OFFCURVE",
"169 45 OFFCURVE",
"172 34 CURVE SMOOTH",
"181 4 OFFCURVE",
"187 0 OFFCURVE",
"223 0 CURVE SMOOTH",
"363 1 OFFCURVE",
"365 2 OFFCURVE",
"372 12 CURVE SMOOTH",
"376 16 OFFCURVE",
"387 54 OFFCURVE",
"395 90 CURVE SMOOTH",
"396 96 OFFCURVE",
"399 104 OFFCURVE",
"400 109 CURVE SMOOTH",
"405 125 OFFCURVE",
"413 152 OFFCURVE",
"420 175 CURVE SMOOTH",
"428 207 OFFCURVE",
"430 211 OFFCURVE",
"441 247 CURVE SMOOTH",
"446 265 OFFCURVE",
"452 282 OFFCURVE",
"453 285 CURVE SMOOTH",
"455 288 OFFCURVE",
"456 292 OFFCURVE",
"456 295 CURVE SMOOTH",
"456 297 OFFCURVE",
"460 309 OFFCURVE",
"464 322 CURVE SMOOTH",
"468 334 OFFCURVE",
"473 351 OFFCURVE",
"475 358 CURVE SMOOTH",
"479 369 OFFCURVE",
"481 373 OFFCURVE",
"483 373 CURVE SMOOTH",
"486 373 OFFCURVE",
"488 370 OFFCURVE",
"491 358 CURVE SMOOTH",
"493 351 OFFCURVE",
"496 340 OFFCURVE",
"498 335 CURVE SMOOTH",
"500 330 OFFCURVE",
"501 325 OFFCURVE",
"501 323 CURVE SMOOTH",
"501 322 OFFCURVE",
"503 317 OFFCURVE",
"505 311 CURVE SMOOTH",
"509 300 OFFCURVE",
"522 259 OFFCURVE",
"523 251 CURVE SMOOTH",
"525 244 OFFCURVE",
"533 215 OFFCURVE",
"543 185 CURVE SMOOTH",
"547 174 OFFCURVE",
"551 159 OFFCURVE",
"552 152 CURVE SMOOTH",
"554 145 OFFCURVE",
"560 122 OFFCURVE",
"566 101 CURVE SMOOTH",
"572 81 OFFCURVE",
"578 59 OFFCURVE",
"579 55 CURVE SMOOTH",
"583 36 OFFCURVE",
"589 17 OFFCURVE",
"592 13 CURVE SMOOTH",
"601 4 OFFCURVE",
"604 3 OFFCURVE",
"666 3 CURVE SMOOTH",
"699 2 OFFCURVE",
"728 1 OFFCURVE",
"733 0 CURVE SMOOTH",
"741 -2 OFFCURVE",
"744 -1 OFFCURVE",
"758 2 CURVE SMOOTH",
"766 4 OFFCURVE",
"775 8 OFFCURVE",
"777 10 CURVE SMOOTH",
"783 15 OFFCURVE",
"793 42 OFFCURVE",
"795 55 CURVE SMOOTH",
"797 69 OFFCURVE",
"813 124 OFFCURVE",
"831 178 CURVE SMOOTH",
"834 188 OFFCURVE",
"838 200 OFFCURVE",
"839 206 CURVE SMOOTH",
"843 219 OFFCURVE",
"850 245 OFFCURVE",
"858 269 CURVE SMOOTH",
"864 289 OFFCURVE",
"873 320 OFFCURVE",
"879 342 CURVE SMOOTH",
"881 353 OFFCURVE",
"884 362 OFFCURVE",
"899 406 CURVE SMOOTH",
"902 414 OFFCURVE",
"906 426 OFFCURVE",
"908 433 CURVE SMOOTH",
"915 464 OFFCURVE",
"919 477 OFFCURVE",
"923 488 CURVE SMOOTH",
"926 495 OFFCURVE",
"930 509 OFFCURVE",
"933 521 CURVE SMOOTH",
"936 532 OFFCURVE",
"939 543 OFFCURVE",
"941 546 CURVE SMOOTH",
"942 549 OFFCURVE",
"946 561 OFFCURVE",
"950 574 CURVE SMOOTH",
"956 597 OFFCURVE",
"964 624 OFFCURVE",
"972 646 CURVE SMOOTH",
"984 679 OFFCURVE",
"982 692 OFFCURVE",
"963 698 CURVE SMOOTH",
"954 701 OFFCURVE",
"909 701 OFFCURVE",
"903 698 CURVE SMOOTH",
"900 697 OFFCURVE",
"897 697 OFFCURVE",
"892 698 CURVE SMOOTH",
"888 700 OFFCURVE",
"872 701 OFFCURVE",
"856 701 CURVE SMOOTH",
"819 701 OFFCURVE",
"813 699 OFFCURVE",
"808 678 CURVE SMOOTH",
"807 673 OFFCURVE",
"801 649 OFFCURVE",
"795 626 CURVE SMOOTH",
"789 603 OFFCURVE",
"783 581 OFFCURVE",
"781 577 CURVE SMOOTH",
"780 573 OFFCURVE",
"777 565 OFFCURVE",
"777 560 CURVE SMOOTH",
"776 555 OFFCURVE",
"774 548 OFFCURVE",
"772 543 CURVE SMOOTH",
"770 539 OFFCURVE",
"767 529 OFFCURVE",
"766 522 CURVE SMOOTH",
"757 483 OFFCURVE",
"754 470 OFFCURVE",
"751 459 CURVE SMOOTH",
"739 424 OFFCURVE",
"735 411 OFFCURVE",
"732 399 CURVE SMOOTH",
"730 391 OFFCURVE",
"728 381 OFFCURVE",
"727 376 CURVE SMOOTH",
"726 372 OFFCURVE",
"724 364 OFFCURVE",
"722 359 CURVE SMOOTH",
"721 354 OFFCURVE",
"718 343 OFFCURVE",
"716 335 CURVE SMOOTH",
"714 322 OFFCURVE",
"713 320 OFFCURVE",
"709 320 CURVE SMOOTH",
"705 320 OFFCURVE",
"704 322 OFFCURVE",
"696 348 CURVE SMOOTH",
"692 363 OFFCURVE",
"687 378 OFFCURVE",
"686 381 CURVE SMOOTH",
"681 396 OFFCURVE",
"679 404 OFFCURVE",
"675 421 CURVE SMOOTH",
"672 431 OFFCURVE",
"667 449 OFFCURVE",
"664 459 CURVE SMOOTH",
"658 478 OFFCURVE",
"651 500 OFFCURVE",
"648 516 CURVE SMOOTH",
"647 520 OFFCURVE",
"642 535 OFFCURVE",
"638 549 CURVE SMOOTH",
"633 563 OFFCURVE",
"627 586 OFFCURVE",
"623 601 CURVE SMOOTH",
"598 694 OFFCURVE",
"598 694 OFFCURVE",
"587 700 CURVE SMOOTH",
"580 704 OFFCURVE",
"574 704 OFFCURVE",
"503 705 CURVE SMOOTH",
"426 705 LINE",
"419 700 LINE SMOOTH",
"415 698 OFFCURVE",
"411 694 OFFCURVE",
"410 693 CURVE SMOOTH",
"408 689 OFFCURVE",
"386 612 OFFCURVE",
"378 581 CURVE SMOOTH",
"374 563 OFFCURVE",
"367 542 OFFCURVE",
"363 530 CURVE SMOOTH",
"362 526 OFFCURVE",
"359 516 OFFCURVE",
"358 510 CURVE SMOOTH",
"356 504 OFFCURVE",
"353 491 OFFCURVE",
"350 483 CURVE SMOOTH",
"347 474 OFFCURVE",
"345 465 OFFCURVE",
"345 463 CURVE SMOOTH",
"345 461 OFFCURVE",
"341 447 OFFCURVE",
"337 432 CURVE SMOOTH",
"333 417 OFFCURVE",
"328 398 OFFCURVE",
"325 390 CURVE SMOOTH",
"323 382 OFFCURVE",
"320 371 OFFCURVE",
"319 367 CURVE SMOOTH",
"317 362 OFFCURVE",
"314 350 OFFCURVE",
"311 341 CURVE SMOOTH",
"308 331 OFFCURVE",
"305 324 OFFCURVE",
"304 324 CURVE SMOOTH",
"299 324 OFFCURVE",
"294 336 OFFCURVE",
"277 400 CURVE SMOOTH",
"275 407 OFFCURVE",
"269 427 OFFCURVE",
"264 444 CURVE SMOOTH",
"259 461 OFFCURVE",
"254 479 OFFCURVE",
"253 484 CURVE SMOOTH",
"252 488 OFFCURVE",
"249 501 OFFCURVE",
"246 512 CURVE SMOOTH",
"242 523 OFFCURVE",
"238 538 OFFCURVE",
"236 545 CURVE SMOOTH",
"234 553 OFFCURVE",
"231 562 OFFCURVE",
"229 566 CURVE SMOOTH",
"228 569 OFFCURVE",
"226 576 OFFCURVE",
"225 580 CURVE SMOOTH",
"224 585 OFFCURVE",
"221 596 OFFCURVE",
"218 606 CURVE SMOOTH",
"211 631 OFFCURVE",
"208 641 OFFCURVE",
"206 653 CURVE SMOOTH",
"204 669 OFFCURVE",
"195 691 OFFCURVE",
"190 696 CURVE SMOOTH",
"181 705 OFFCURVE",
"170 706 OFFCURVE",
"90 705 CURVE SMOOTH",
"48 705 OFFCURVE",
"11 705 OFFCURVE",
"6 704 CURVE SMOOTH"
);
}
);
width = 960;
}
);
unicode = 0057;
},
{
glyphname = X;
lastChange = "2015-06-01 23:46:21 +0000";
layers = (
{
layerId = "258ED206-D907-4350-8EBA-CBDDA1C16BF7";
name = Regular;
paths = (
{
closed = 1;
nodes = (
"577 706 OFFCURVE",
"566 705 OFFCURVE",
"555 705 CURVE SMOOTH",
"518 705 OFFCURVE",
"480 703 OFFCURVE",
"475 701 CURVE SMOOTH",
"468 698 OFFCURVE",
"462 691 OFFCURVE",
"453 676 CURVE SMOOTH",
"450 669 OFFCURVE",
"440 653 OFFCURVE",
"432 641 CURVE SMOOTH",
"424 628 OFFCURVE",
"411 607 OFFCURVE",
"403 592 CURVE SMOOTH",
"395 578 OFFCURVE",
"387 565 OFFCURVE",
"385 563 CURVE SMOOTH",
"383 561 OFFCURVE",
"379 554 OFFCURVE",
"376 547 CURVE SMOOTH",
"364 521 OFFCURVE",
"358 519 OFFCURVE",
"344 540 CURVE SMOOTH",
"340 547 OFFCURVE",
"336 553 OFFCURVE",
"336 554 CURVE SMOOTH",
"336 555 OFFCURVE",
"331 564 OFFCURVE",
"325 574 CURVE SMOOTH",
"318 587 OFFCURVE",
"313 597 OFFCURVE",
"311 605 CURVE SMOOTH",
"309 615 OFFCURVE",
"307 618 OFFCURVE",
"299 625 CURVE SMOOTH",
"294 629 OFFCURVE",
"287 637 OFFCURVE",
"285 643 CURVE SMOOTH",
"282 648 OFFCURVE",
"277 656 OFFCURVE",
"274 660 CURVE SMOOTH",
"271 664 OFFCURVE",
"267 670 OFFCURVE",
"265 675 CURVE SMOOTH",
"261 685 OFFCURVE",
"251 696 OFFCURVE",
"242 701 CURVE SMOOTH",
"234 705 OFFCURVE",
"232 705 OFFCURVE",
"130 706 CURVE SMOOTH",
"18 706 OFFCURVE",
"18 706 OFFCURVE",
"13 696 CURVE SMOOTH",
"9 689 OFFCURVE",
"11 679 OFFCURVE",
"19 667 CURVE SMOOTH",
"23 661 OFFCURVE",
"29 652 OFFCURVE",
"32 646 CURVE SMOOTH",
"36 640 OFFCURVE",
"43 630 OFFCURVE",
"48 623 CURVE SMOOTH",
"54 617 OFFCURVE",
"61 606 OFFCURVE",
"65 600 CURVE SMOOTH",
"68 594 OFFCURVE",
"74 585 OFFCURVE",
"78 580 CURVE SMOOTH",
"82 575 OFFCURVE",
"87 567 OFFCURVE",
"91 562 CURVE SMOOTH",
"94 557 OFFCURVE",
"98 551 OFFCURVE",
"101 548 CURVE SMOOTH",
"103 545 OFFCURVE",
"109 536 OFFCURVE",
"114 528 CURVE SMOOTH",
"129 505 OFFCURVE",
"142 486 OFFCURVE",
"151 476 CURVE SMOOTH",
"156 472 OFFCURVE",
"162 463 OFFCURVE",
"164 457 CURVE SMOOTH",
"167 451 OFFCURVE",
"171 444 OFFCURVE",
"174 441 CURVE SMOOTH",
"176 439 OFFCURVE",
"180 432 OFFCURVE",
"183 426 CURVE SMOOTH",
"186 420 OFFCURVE",
"192 411 OFFCURVE",
"197 406 CURVE SMOOTH",
"201 402 OFFCURVE",
"207 395 OFFCURVE",
"208 393 CURVE SMOOTH",
"210 390 OFFCURVE",
"215 383 OFFCURVE",
"219 377 CURVE SMOOTH",
"234 357 OFFCURVE",
"234 355 OFFCURVE",
"216 329 CURVE SMOOTH",
"194 297 OFFCURVE",
"192 294 OFFCURVE",
"190 291 CURVE SMOOTH",
"186 286 OFFCURVE",
"171 262 OFFCURVE",
"171 260 CURVE SMOOTH",
"171 260 OFFCURVE",
"167 254 OFFCURVE",
"162 248 CURVE SMOOTH",
"157 243 OFFCURVE",
"152 236 OFFCURVE",
"151 234 CURVE SMOOTH",
"150 232 OFFCURVE",
"144 223 OFFCURVE",
"138 214 CURVE SMOOTH",
"122 190 OFFCURVE",
"114 178 OFFCURVE",
"103 160 CURVE SMOOTH",
"98 151 OFFCURVE",
"91 142 OFFCURVE",
"89 140 CURVE SMOOTH",
"83 135 OFFCURVE",
"68 114 OFFCURVE",
"62 102 CURVE SMOOTH",
"60 96 OFFCURVE",
"52 85 OFFCURVE",
"46 77 CURVE SMOOTH",
"33 60 OFFCURVE",
"33 60 OFFCURVE",
"22 42 CURVE SMOOTH",
"10 23 OFFCURVE",
"8 13 OFFCURVE",
"16 6 CURVE SMOOTH",
"18 3 OFFCURVE",
"23 1 OFFCURVE",
"26 0 CURVE SMOOTH",
"37 -2 OFFCURVE",
"187 0 OFFCURVE",
"193 3 CURVE SMOOTH",
"204 7 OFFCURVE",
"211 16 OFFCURVE",
"224 41 CURVE SMOOTH",
"235 60 OFFCURVE",
"255 95 OFFCURVE",
"259 99 CURVE SMOOTH",
"260 101 OFFCURVE",
"267 112 OFFCURVE",
"274 123 CURVE SMOOTH",
"290 152 OFFCURVE",
"299 166 OFFCURVE",
"303 172 CURVE SMOOTH",
"305 175 OFFCURVE",
"309 183 OFFCURVE",
"313 190 CURVE SMOOTH",
"316 197 OFFCURVE",
"321 205 OFFCURVE",
"324 208 CURVE SMOOTH",
"329 212 OFFCURVE",
"329 212 OFFCURVE",
"334 209 CURVE SMOOTH",
"339 206 OFFCURVE",
"350 189 OFFCURVE",
"368 158 CURVE SMOOTH",
"378 141 OFFCURVE",
"391 120 OFFCURVE",
"400 106 CURVE SMOOTH",
"407 94 OFFCURVE",
"415 81 OFFCURVE",
"439 40 CURVE SMOOTH",
"444 31 OFFCURVE",
"448 23 OFFCURVE",
"448 22 CURVE SMOOTH",
"448 18 OFFCURVE",
"462 5 OFFCURVE",
"468 3 CURVE SMOOTH",
"472 1 OFFCURVE",
"510 1 OFFCURVE",
"580 1 CURVE SMOOTH",
"682 2 OFFCURVE",
"686 2 OFFCURVE",
"691 6 CURVE SMOOTH",
"694 8 OFFCURVE",
"697 12 OFFCURVE",
"697 14 CURVE SMOOTH",
"698 21 OFFCURVE",
"691 38 OFFCURVE",
"682 50 CURVE SMOOTH",
"677 57 OFFCURVE",
"670 66 OFFCURVE",
"668 71 CURVE SMOOTH",
"665 76 OFFCURVE",
"661 81 OFFCURVE",
"659 83 CURVE SMOOTH",
"657 84 OFFCURVE",
"654 89 OFFCURVE",
"653 92 CURVE SMOOTH",
"651 96 OFFCURVE",
"647 101 OFFCURVE",
"645 104 CURVE SMOOTH",
"642 107 OFFCURVE",
"634 119 OFFCURVE",
"627 131 CURVE SMOOTH",
"619 143 OFFCURVE",
"610 158 OFFCURVE",
"606 163 CURVE SMOOTH",
"602 169 OFFCURVE",
"595 178 OFFCURVE",
"592 185 CURVE SMOOTH",
"588 191 OFFCURVE",
"584 199 OFFCURVE",
"581 201 CURVE SMOOTH",
"579 204 OFFCURVE",
"575 210 OFFCURVE",
"573 214 CURVE SMOOTH",
"570 218 OFFCURVE",
"566 226 OFFCURVE",
"562 230 CURVE SMOOTH",
"559 235 OFFCURVE",
"548 250 OFFCURVE",
"537 265 CURVE SMOOTH",
"527 280 OFFCURVE",
"514 299 OFFCURVE",
"507 307 CURVE SMOOTH",
"501 316 OFFCURVE",
"490 332 OFFCURVE",
"482 343 CURVE SMOOTH",
"475 354 OFFCURVE",
"466 365 OFFCURVE",
"463 369 CURVE SMOOTH",
"457 374 OFFCURVE",
"456 377 OFFCURVE",
"456 384 CURVE SMOOTH",
"456 392 OFFCURVE",
"458 395 OFFCURVE",
"466 406 CURVE SMOOTH",
"471 413 OFFCURVE",
"481 424 OFFCURVE",
"487 431 CURVE SMOOTH",
"493 437 OFFCURVE",
"502 449 OFFCURVE",
"506 457 CURVE SMOOTH",
"511 465 OFFCURVE",
"518 476 OFFCURVE",
"522 480 CURVE SMOOTH",
"526 485 OFFCURVE",
"531 493 OFFCURVE",
"534 499 CURVE SMOOTH",
"537 504 OFFCURVE",
"543 512 OFFCURVE",
"546 516 CURVE SMOOTH",
"549 521 OFFCURVE",
"555 529 OFFCURVE",
"559 536 CURVE SMOOTH",
"562 542 OFFCURVE",
"568 550 OFFCURVE",
"570 553 CURVE SMOOTH",
"573 557 OFFCURVE",
"578 563 OFFCURVE",
"581 568 CURVE SMOOTH",
"584 573 OFFCURVE",
"588 580 OFFCURVE",
"591 583 CURVE SMOOTH",
"593 586 OFFCURVE",
"598 593 OFFCURVE",
"602 598 CURVE SMOOTH",
"606 604 OFFCURVE",
"611 612 OFFCURVE",
"613 617 CURVE SMOOTH",
"616 622 OFFCURVE",
"621 630 OFFCURVE",
"625 634 CURVE SMOOTH",
"629 639 OFFCURVE",
"639 652 OFFCURVE",
"646 664 CURVE SMOOTH",
"662 686 OFFCURVE",
"663 692 OFFCURVE",
"655 700 CURVE SMOOTH",
"651 705 OFFCURVE",
"649 705 OFFCURVE",
"639 704 CURVE SMOOTH",
"628 703 OFFCURVE",
"593 705 OFFCURVE",
"585 707 CURVE SMOOTH",
"583 708 OFFCURVE",
"580 708 OFFCURVE",
"578 707 CURVE SMOOTH"
);
}
);
width = 700;
}
);
unicode = 0058;
},
{
glyphname = Y;
lastChange = "2015-06-02 16:26:09 +0000";
layers = (
{
layerId = "258ED206-D907-4350-8EBA-CBDDA1C16BF7";
name = Regular;
paths = (
{
closed = 1;
nodes = (
"-13 701 OFFCURVE",
"-16 692 OFFCURVE",
"5 662 CURVE SMOOTH",
"11 652 OFFCURVE",
"20 638 OFFCURVE",
"25 631 CURVE SMOOTH",
"29 623 OFFCURVE",
"38 610 OFFCURVE",
"43 601 CURVE SMOOTH",
"49 593 OFFCURVE",
"58 577 OFFCURVE",
"64 567 CURVE SMOOTH",
"88 527 OFFCURVE",
"97 513 OFFCURVE",
"101 507 CURVE SMOOTH",
"104 503 OFFCURVE",
"112 489 OFFCURVE",
"120 476 CURVE SMOOTH",
"136 447 OFFCURVE",
"151 423 OFFCURVE",
"164 405 CURVE SMOOTH",
"169 397 OFFCURVE",
"174 390 OFFCURVE",
"175 388 CURVE SMOOTH",
"176 386 OFFCURVE",
"184 374 OFFCURVE",
"193 359 CURVE SMOOTH",
"216 324 OFFCURVE",
"227 305 OFFCURVE",
"230 296 CURVE SMOOTH",
"232 291 OFFCURVE",
"233 281 OFFCURVE",
"232 260 CURVE SMOOTH",
"230 168 OFFCURVE",
"229 15 OFFCURVE",
"231 11 CURVE SMOOTH",
"232 9 OFFCURVE",
"237 6 OFFCURVE",
"241 4 CURVE SMOOTH",
"249 0 OFFCURVE",
"252 0 OFFCURVE",
"323 0 CURVE SMOOTH",
"363 0 OFFCURVE",
"403 0 OFFCURVE",
"411 0 CURVE SMOOTH",
"429 -1 OFFCURVE",
"437 2 OFFCURVE",
"444 12 CURVE SMOOTH",
"449 18 LINE",
"448 115 LINE SMOOTH",
"448 168 OFFCURVE",
"447 231 OFFCURVE",
"447 256 CURVE SMOOTH",
"446 281 OFFCURVE",
"447 305 OFFCURVE",
"448 310 CURVE SMOOTH",
"449 315 OFFCURVE",
"453 324 OFFCURVE",
"458 331 CURVE SMOOTH",
"473 355 OFFCURVE",
"480 365 OFFCURVE",
"483 369 CURVE SMOOTH",
"485 371 OFFCURVE",
"490 380 OFFCURVE",
"494 389 CURVE SMOOTH",
"499 397 OFFCURVE",
"506 409 OFFCURVE",
"509 414 CURVE SMOOTH",
"513 420 OFFCURVE",
"516 426 OFFCURVE",
"517 428 CURVE SMOOTH",
"517 430 OFFCURVE",
"519 433 OFFCURVE",
"521 433 CURVE SMOOTH",
"522 434 OFFCURVE",
"525 438 OFFCURVE",
"527 443 CURVE SMOOTH",
"529 447 OFFCURVE",
"533 453 OFFCURVE",
"536 456 CURVE SMOOTH",
"539 458 OFFCURVE",
"541 461 OFFCURVE",
"541 463 CURVE SMOOTH",
"541 464 OFFCURVE",
"544 470 OFFCURVE",
"548 475 CURVE SMOOTH",
"551 480 OFFCURVE",
"556 489 OFFCURVE",
"559 493 CURVE SMOOTH",
"567 506 OFFCURVE",
"584 533 OFFCURVE",
"587 537 CURVE SMOOTH",
"589 539 OFFCURVE",
"592 544 OFFCURVE",
"594 549 CURVE SMOOTH",
"597 553 OFFCURVE",
"601 560 OFFCURVE",
"604 564 CURVE SMOOTH",
"607 569 OFFCURVE",
"614 580 OFFCURVE",
"620 590 CURVE SMOOTH",
"626 599 OFFCURVE",
"635 613 OFFCURVE",
"640 620 CURVE SMOOTH",
"645 627 OFFCURVE",
"648 633 OFFCURVE",
"648 634 CURVE SMOOTH",
"648 634 OFFCURVE",
"652 641 OFFCURVE",
"657 648 CURVE SMOOTH",
"662 656 OFFCURVE",
"668 666 OFFCURVE",
"669 671 CURVE SMOOTH",
"671 675 OFFCURVE",
"674 681 OFFCURVE",
"676 684 CURVE SMOOTH",
"681 690 OFFCURVE",
"681 695 OFFCURVE",
"674 700 CURVE SMOOTH",
"669 704 OFFCURVE",
"668 704 OFFCURVE",
"616 703 CURVE SMOOTH",
"587 703 OFFCURVE",
"550 703 OFFCURVE",
"533 703 CURVE SMOOTH",
"501 704 OFFCURVE",
"496 703 OFFCURVE",
"488 695 CURVE SMOOTH",
"487 693 OFFCURVE",
"477 677 OFFCURVE",
"468 660 CURVE SMOOTH",
"459 643 OFFCURVE",
"450 626 OFFCURVE",
"448 624 CURVE SMOOTH",
"446 621 OFFCURVE",
"442 613 OFFCURVE",
"438 606 CURVE SMOOTH",
"434 599 OFFCURVE",
"429 590 OFFCURVE",
"425 585 CURVE SMOOTH",
"417 572 OFFCURVE",
"375 493 OFFCURVE",
"367 473 CURVE SMOOTH",
"364 465 OFFCURVE",
"358 463 OFFCURVE",
"355 468 CURVE SMOOTH",
"352 471 OFFCURVE",
"345 485 OFFCURVE",
"328 520 CURVE SMOOTH",
"321 535 OFFCURVE",
"310 555 OFFCURVE",
"303 566 CURVE SMOOTH",
"297 577 OFFCURVE",
"291 588 OFFCURVE",
"289 591 CURVE SMOOTH",
"288 593 OFFCURVE",
"284 600 OFFCURVE",
"280 606 CURVE SMOOTH",
"266 629 OFFCURVE",
"260 641 OFFCURVE",
"249 660 CURVE SMOOTH",
"236 685 OFFCURVE",
"228 695 OFFCURVE",
"223 698 CURVE SMOOTH",
"220 700 OFFCURVE",
"198 701 OFFCURVE",
"145 701 CURVE SMOOTH",
"105 701 OFFCURVE",
"64 702 OFFCURVE",
"54 704 CURVE SMOOTH",
"44 705 OFFCURVE",
"35 705 OFFCURVE",
"34 705 CURVE SMOOTH",
"34 705 OFFCURVE",
"27 704 OFFCURVE",
"19 704 CURVE SMOOTH"
);
}
);
width = 680;
}
);
unicode = 0059;
},
{
glyphname = Z;
lastChange = "2015-06-01 23:46:59 +0000";
layers = (
{
layerId = "258ED206-D907-4350-8EBA-CBDDA1C16BF7";
name = Regular;
paths = (
{
closed = 1;
nodes = (
"30 694 OFFCURVE",
"30 693 OFFCURVE",
"30 620 CURVE SMOOTH",
"30 584 OFFCURVE",
"31 554 OFFCURVE",
"32 552 CURVE SMOOTH",
"36 543 OFFCURVE",
"43 542 OFFCURVE",
"91 543 CURVE SMOOTH",
"117 543 OFFCURVE",
"139 543 OFFCURVE",
"140 542 CURVE SMOOTH",
"141 541 OFFCURVE",
"145 542 OFFCURVE",
"149 543 CURVE SMOOTH",
"153 545 OFFCURVE",
"160 545 OFFCURVE",
"172 544 CURVE SMOOTH",
"181 544 OFFCURVE",
"192 543 OFFCURVE",
"196 544 CURVE SMOOTH",
"216 545 OFFCURVE",
"305 546 OFFCURVE",
"309 544 CURVE SMOOTH",
"318 541 OFFCURVE",
"317 537 OFFCURVE",
"305 521 CURVE SMOOTH",
"278 481 OFFCURVE",
"272 473 OFFCURVE",
"266 465 CURVE SMOOTH",
"250 444 OFFCURVE",
"240 430 OFFCURVE",
"237 424 CURVE SMOOTH",
"235 420 OFFCURVE",
"229 411 OFFCURVE",
"224 405 CURVE SMOOTH",
"219 398 OFFCURVE",
"214 392 OFFCURVE",
"214 391 CURVE SMOOTH",
"214 390 OFFCURVE",
"210 384 OFFCURVE",
"205 378 CURVE SMOOTH",
"199 371 OFFCURVE",
"193 362 OFFCURVE",
"190 357 CURVE SMOOTH",
"187 352 OFFCURVE",
"182 345 OFFCURVE",
"178 341 CURVE SMOOTH",
"175 337 OFFCURVE",
"170 331 OFFCURVE",
"168 326 CURVE SMOOTH",
"166 322 OFFCURVE",
"160 314 OFFCURVE",
"156 309 CURVE SMOOTH",
"151 303 OFFCURVE",
"145 295 OFFCURVE",
"142 290 CURVE SMOOTH",
"140 285 OFFCURVE",
"135 277 OFFCURVE",
"132 274 CURVE SMOOTH",
"129 271 OFFCURVE",
"124 264 OFFCURVE",
"122 258 CURVE SMOOTH",
"113 244 OFFCURVE",
"101 226 OFFCURVE",
"95 219 CURVE SMOOTH",
"89 212 OFFCURVE",
"78 197 OFFCURVE",
"73 190 CURVE SMOOTH",
"56 163 OFFCURVE",
"46 148 OFFCURVE",
"42 143 CURVE SMOOTH",
"39 139 OFFCURVE",
"34 134 OFFCURVE",
"32 131 CURVE SMOOTH",
"28 124 OFFCURVE",
"14 105 OFFCURVE",
"5 93 CURVE SMOOTH",
"0 86 LINE",
"1 50 LINE SMOOTH",
"1 29 OFFCURVE",
"2 13 OFFCURVE",
"4 10 CURVE SMOOTH",
"9 0 OFFCURVE",
"12 0 OFFCURVE",
"63 0 CURVE SMOOTH",
"111 1 OFFCURVE",
"163 1 OFFCURVE",
"440 0 CURVE SMOOTH",
"588 0 OFFCURVE",
"601 0 OFFCURVE",
"605 3 CURVE SMOOTH",
"616 10 OFFCURVE",
"617 13 OFFCURVE",
"615 79 CURVE SMOOTH",
"615 113 OFFCURVE",
"614 143 OFFCURVE",
"613 147 CURVE SMOOTH",
"612 156 OFFCURVE",
"606 161 OFFCURVE",
"595 161 CURVE SMOOTH",
"591 161 OFFCURVE",
"546 160 OFFCURVE",
"495 160 CURVE SMOOTH",
"444 159 OFFCURVE",
"381 158 OFFCURVE",
"354 158 CURVE SMOOTH",
"306 157 LINE",
"305 161 LINE SMOOTH",
"304 165 OFFCURVE",
"305 168 OFFCURVE",
"308 171 CURVE SMOOTH",
"310 174 OFFCURVE",
"318 185 OFFCURVE",
"324 196 CURVE SMOOTH",
"340 221 OFFCURVE",
"356 244 OFFCURVE",
"361 249 CURVE SMOOTH",
"364 253 OFFCURVE",
"389 289 OFFCURVE",
"397 302 CURVE SMOOTH",
"399 305 OFFCURVE",
"405 313 OFFCURVE",
"410 320 CURVE SMOOTH",
"430 344 OFFCURVE",
"430 344 OFFCURVE",
"465 397 CURVE SMOOTH",
"473 409 OFFCURVE",
"486 427 OFFCURVE",
"493 438 CURVE SMOOTH",
"501 449 OFFCURVE",
"509 460 OFFCURVE",
"511 464 CURVE SMOOTH",
"513 467 OFFCURVE",
"521 479 OFFCURVE",
"529 490 CURVE SMOOTH",
"537 501 OFFCURVE",
"546 513 OFFCURVE",
"548 516 CURVE SMOOTH",
"558 531 OFFCURVE",
"578 558 OFFCURVE",
"583 564 CURVE SMOOTH",
"586 568 OFFCURVE",
"590 574 OFFCURVE",
"591 576 CURVE SMOOTH",
"592 579 OFFCURVE",
"596 584 OFFCURVE",
"600 589 CURVE SMOOTH",
"613 605 OFFCURVE",
"617 616 OFFCURVE",
"619 645 CURVE SMOOTH",
"622 699 OFFCURVE",
"617 704 OFFCURVE",
"573 701 CURVE SMOOTH",
"559 701 OFFCURVE",
"547 700 OFFCURVE",
"544 700 CURVE SMOOTH",
"541 700 OFFCURVE",
"521 700 OFFCURVE",
"498 700 CURVE SMOOTH",
"476 700 OFFCURVE",
"454 700 OFFCURVE",
"450 700 CURVE SMOOTH",
"447 700 OFFCURVE",
"439 700 OFFCURVE",
"433 700 CURVE SMOOTH",
"427 700 OFFCURVE",
"421 700 OFFCURVE",
"419 700 CURVE SMOOTH",
"418 700 OFFCURVE",
"410 700 OFFCURVE",
"402 700 CURVE SMOOTH",
"394 700 OFFCURVE",
"378 700 OFFCURVE",
"366 700 CURVE SMOOTH",
"354 700 OFFCURVE",
"335 700 OFFCURVE",
"323 700 CURVE SMOOTH",
"311 700 OFFCURVE",
"296 700 OFFCURVE",
"290 700 CURVE SMOOTH",
"234 700 OFFCURVE",
"213 700 OFFCURVE",
"205 698 CURVE SMOOTH",
"198 697 OFFCURVE",
"192 697 OFFCURVE",
"185 698 CURVE SMOOTH",
"173 701 OFFCURVE",
"164 701 OFFCURVE",
"128 699 CURVE SMOOTH",
"94 698 OFFCURVE",
"83 698 OFFCURVE",
"77 701 CURVE SMOOTH",
"70 703 OFFCURVE",
"53 703 OFFCURVE",
"43 699 CURVE SMOOTH"
);
}
);
width = 620;
}
);
unicode = 005A;
},
{
glyphname = a;
lastChange = "2015-06-01 23:15:27 +0000";
layers = (
{
layerId = "258ED206-D907-4350-8EBA-CBDDA1C16BF7";
name = Regular;
paths = (
{
closed = 1;
nodes = (
"194 496 OFFCURVE",
"187 494 OFFCURVE",
"185 494 CURVE SMOOTH",
"175 494 OFFCURVE",
"138 485 OFFCURVE",
"134 483 CURVE SMOOTH",
"130 481 OFFCURVE",
"124 479 OFFCURVE",
"120 477 CURVE SMOOTH",
"114 475 OFFCURVE",
"107 471 OFFCURVE",
"101 467 CURVE SMOOTH",
"95 463 OFFCURVE",
"89 459 OFFCURVE",
"85 457 CURVE SMOOTH",
"68 447 OFFCURVE",
"38 405 OFFCURVE",
"32 381 CURVE SMOOTH",
"31 366 OFFCURVE",
"32 362 OFFCURVE",
"50 356 CURVE SMOOTH",
"64 350 OFFCURVE",
"75 348 OFFCURVE",
"122 344 CURVE SMOOTH",
"132 342 OFFCURVE",
"151 338 OFFCURVE",
"151 336 CURVE SMOOTH",
"153 334 OFFCURVE",
"183 334 OFFCURVE",
"185 336 CURVE SMOOTH",
"187 336 OFFCURVE",
"190 342 OFFCURVE",
"192 348 CURVE SMOOTH",
"200 364 OFFCURVE",
"210 375 OFFCURVE",
"226 381 CURVE SMOOTH",
"237 387 OFFCURVE",
"239 387 OFFCURVE",
"263 387 CURVE SMOOTH",
"288 389 LINE",
"298 381 LINE SMOOTH",
"313 371 OFFCURVE",
"317 366 OFFCURVE",
"319 342 CURVE SMOOTH",
"321 330 OFFCURVE",
"321 321 OFFCURVE",
"321 321 CURVE SMOOTH",
"321 319 OFFCURVE",
"317 317 OFFCURVE",
"313 315 CURVE SMOOTH",
"305 311 OFFCURVE",
"280 309 OFFCURVE",
"227 309 CURVE SMOOTH",
"212 307 OFFCURVE",
"204 307 OFFCURVE",
"194 303 CURVE SMOOTH",
"188 301 OFFCURVE",
"183 299 OFFCURVE",
"181 299 CURVE SMOOTH",
"175 299 OFFCURVE",
"136 290 OFFCURVE",
"132 286 CURVE SMOOTH",
"130 286 OFFCURVE",
"122 282 OFFCURVE",
"116 280 CURVE SMOOTH",
"109 278 OFFCURVE",
"101 274 OFFCURVE",
"97 272 CURVE SMOOTH",
"93 270 OFFCURVE",
"87 266 OFFCURVE",
"83 262 CURVE SMOOTH",
"70 254 OFFCURVE",
"44 229 OFFCURVE",
"34 217 CURVE SMOOTH",
"25 204 OFFCURVE",
"15 184 OFFCURVE",
"13 171 CURVE SMOOTH",
"9 157 OFFCURVE",
"7 118 OFFCURVE",
"11 108 CURVE SMOOTH",
"15 83 OFFCURVE",
"21 71 OFFCURVE",
"32 52 CURVE SMOOTH",
"42 36 OFFCURVE",
"62 20 OFFCURVE",
"87 9 CURVE SMOOTH",
"114 -5 OFFCURVE",
"144 -11 OFFCURVE",
"181 -9 CURVE SMOOTH",
"200 -9 OFFCURVE",
"206 -9 OFFCURVE",
"237 1 CURVE SMOOTH",
"249 5 OFFCURVE",
"290 26 OFFCURVE",
"302 34 CURVE SMOOTH",
"311 40 OFFCURVE",
"319 42 OFFCURVE",
"321 36 CURVE SMOOTH",
"323 34 OFFCURVE",
"325 28 OFFCURVE",
"325 22 CURVE SMOOTH",
"327 1 OFFCURVE",
"333 -1 OFFCURVE",
"376 1 CURVE SMOOTH",
"393 1 OFFCURVE",
"424 1 OFFCURVE",
"446 1 CURVE SMOOTH",
"493 1 OFFCURVE",
"500 3 OFFCURVE",
"506 11 CURVE SMOOTH",
"512 17 OFFCURVE",
"512 18 OFFCURVE",
"504 46 CURVE SMOOTH",
"500 61 OFFCURVE",
"499 67 OFFCURVE",
"499 100 CURVE SMOOTH",
"497 184 OFFCURVE",
"497 221 OFFCURVE",
"497 286 CURVE SMOOTH",
"499 352 OFFCURVE",
"497 368 OFFCURVE",
"495 381 CURVE SMOOTH",
"493 385 OFFCURVE",
"491 393 OFFCURVE",
"491 399 CURVE SMOOTH",
"489 405 OFFCURVE",
"485 412 OFFCURVE",
"481 418 CURVE SMOOTH",
"477 424 OFFCURVE",
"475 430 OFFCURVE",
"475 432 CURVE SMOOTH",
"475 436 OFFCURVE",
"460 451 OFFCURVE",
"452 455 CURVE SMOOTH",
"450 457 OFFCURVE",
"444 459 OFFCURVE",
"442 463 CURVE SMOOTH",
"436 469 OFFCURVE",
"415 479 OFFCURVE",
"409 479 CURVE SMOOTH",
"407 479 OFFCURVE",
"405 481 OFFCURVE",
"401 483 CURVE SMOOTH",
"399 485 OFFCURVE",
"393 486 OFFCURVE",
"387 488 CURVE SMOOTH",
"382 488 OFFCURVE",
"376 490 OFFCURVE",
"374 490 CURVE SMOOTH",
"368 494 OFFCURVE",
"344 498 OFFCURVE",
"333 498 CURVE SMOOTH",
"327 498 OFFCURVE",
"313 498 OFFCURVE",
"302 498 CURVE SMOOTH",
"292 498 OFFCURVE",
"280 498 OFFCURVE",
"276 498 CURVE SMOOTH",
"261 498 OFFCURVE",
"222 500 OFFCURVE",
"216 500 CURVE SMOOTH",
"212 502 OFFCURVE",
"206 500 OFFCURVE",
"200 498 CURVE SMOOTH"
);
},
{
closed = 1;
nodes = (
"321 212 LINE",
"319 173 LINE SMOOTH",
"319 149 OFFCURVE",
"317 134 OFFCURVE",
"315 130 CURVE SMOOTH",
"313 124 OFFCURVE",
"305 118 OFFCURVE",
"286 110 CURVE SMOOTH",
"272 104 OFFCURVE",
"266 104 OFFCURVE",
"249 102 CURVE SMOOTH",
"227 102 OFFCURVE",
"227 102 OFFCURVE",
"216 108 CURVE SMOOTH",
"206 114 OFFCURVE",
"204 116 OFFCURVE",
"198 126 CURVE SMOOTH",
"190 143 OFFCURVE",
"192 165 OFFCURVE",
"202 176 CURVE SMOOTH",
"204 178 OFFCURVE",
"206 182 OFFCURVE",
"206 184 CURVE SMOOTH",
"210 188 OFFCURVE",
"235 204 OFFCURVE",
"243 206 CURVE SMOOTH",
"247 208 OFFCURVE",
"255 210 OFFCURVE",
"261 212 CURVE SMOOTH",
"268 215 OFFCURVE",
"292 221 OFFCURVE",
"304 221 CURVE SMOOTH",
"305 221 OFFCURVE",
"311 219 OFFCURVE",
"315 215 CURVE SMOOTH"
);
}
);
width = 530;
}
);
unicode = 0061;
},
{
glyphname = b;
lastChange = "2015-06-01 23:15:45 +0000";
layers = (
{
layerId = "258ED206-D907-4350-8EBA-CBDDA1C16BF7";
name = Regular;
paths = (
{
closed = 1;
nodes = (
"109 698 OFFCURVE",
"97 697 OFFCURVE",
"97 698 CURVE SMOOTH",
"96 698 OFFCURVE",
"87 699 OFFCURVE",
"77 700 CURVE SMOOTH",
"64 700 OFFCURVE",
"57 700 OFFCURVE",
"51 698 CURVE SMOOTH",
"36 692 OFFCURVE",
"37 695 OFFCURVE",
"37 543 CURVE SMOOTH",
"37 284 OFFCURVE",
"37 238 OFFCURVE",
"37 158 CURVE SMOOTH",
"37 114 OFFCURVE",
"36 65 OFFCURVE",
"35 51 CURVE SMOOTH",
"33 17 OFFCURVE",
"34 9 OFFCURVE",
"46 3 CURVE SMOOTH",
"52 -1 OFFCURVE",
"55 -1 OFFCURVE",
"67 -1 CURVE SMOOTH",
"74 0 OFFCURVE",
"97 0 OFFCURVE",
"117 0 CURVE SMOOTH",
"152 1 LINE",
"159 7 LINE SMOOTH",
"165 13 OFFCURVE",
"168 20 OFFCURVE",
"176 51 CURVE SMOOTH",
"180 64 OFFCURVE",
"185 73 OFFCURVE",
"190 73 CURVE SMOOTH",
"191 73 OFFCURVE",
"196 67 OFFCURVE",
"201 61 CURVE SMOOTH",
"216 44 OFFCURVE",
"238 25 OFFCURVE",
"249 21 CURVE SMOOTH",
"258 17 OFFCURVE",
"270 11 OFFCURVE",
"275 7 CURVE SMOOTH",
"278 4 OFFCURVE",
"326 -3 OFFCURVE",
"341 -3 CURVE SMOOTH",
"370 -3 OFFCURVE",
"415 7 OFFCURVE",
"425 15 CURVE SMOOTH",
"427 17 OFFCURVE",
"430 18 OFFCURVE",
"432 18 CURVE SMOOTH",
"441 18 OFFCURVE",
"464 34 OFFCURVE",
"492 61 CURVE SMOOTH",
"514 81 OFFCURVE",
"536 122 OFFCURVE",
"543 151 CURVE SMOOTH",
"550 184 OFFCURVE",
"551 192 OFFCURVE",
"554 224 CURVE SMOOTH",
"556 250 OFFCURVE",
"556 261 OFFCURVE",
"554 276 CURVE SMOOTH",
"552 287 OFFCURVE",
"551 305 OFFCURVE",
"550 317 CURVE SMOOTH",
"549 329 OFFCURVE",
"546 346 OFFCURVE",
"544 354 CURVE SMOOTH",
"540 372 OFFCURVE",
"528 402 OFFCURVE",
"522 410 CURVE SMOOTH",
"520 413 OFFCURVE",
"517 419 OFFCURVE",
"514 425 CURVE SMOOTH",
"505 443 OFFCURVE",
"465 478 OFFCURVE",
"442 488 CURVE SMOOTH",
"432 493 OFFCURVE",
"417 498 OFFCURVE",
"406 500 CURVE SMOOTH",
"401 501 OFFCURVE",
"394 502 OFFCURVE",
"391 503 CURVE SMOOTH",
"383 506 OFFCURVE",
"346 506 OFFCURVE",
"339 503 CURVE SMOOTH",
"336 502 OFFCURVE",
"324 500 OFFCURVE",
"312 498 CURVE SMOOTH",
"290 494 OFFCURVE",
"287 493 OFFCURVE",
"270 480 CURVE SMOOTH",
"264 476 OFFCURVE",
"259 472 OFFCURVE",
"257 472 CURVE SMOOTH",
"256 472 OFFCURVE",
"251 468 OFFCURVE",
"245 463 CURVE SMOOTH",
"237 456 OFFCURVE",
"235 455 OFFCURVE",
"229 455 CURVE SMOOTH",
"223 456 LINE",
"222 472 LINE SMOOTH",
"221 481 OFFCURVE",
"222 493 OFFCURVE",
"222 497 CURVE SMOOTH",
"223 502 OFFCURVE",
"223 509 OFFCURVE",
"222 513 CURVE SMOOTH",
"221 517 OFFCURVE",
"221 538 OFFCURVE",
"222 560 CURVE SMOOTH",
"224 582 OFFCURVE",
"224 618 OFFCURVE",
"225 641 CURVE SMOOTH",
"225 694 OFFCURVE",
"225 694 OFFCURVE",
"199 700 CURVE SMOOTH",
"188 702 OFFCURVE",
"151 702 OFFCURVE",
"123 699 CURVE SMOOTH"
);
},
{
closed = 1;
nodes = (
"338 378 OFFCURVE",
"346 367 OFFCURVE",
"353 345 CURVE SMOOTH",
"359 330 OFFCURVE",
"360 322 OFFCURVE",
"362 299 CURVE SMOOTH",
"365 269 OFFCURVE",
"364 204 OFFCURVE",
"362 200 CURVE SMOOTH",
"361 198 OFFCURVE",
"359 187 OFFCURVE",
"357 175 CURVE SMOOTH",
"354 150 OFFCURVE",
"347 131 OFFCURVE",
"337 122 CURVE SMOOTH",
"315 103 OFFCURVE",
"297 97 OFFCURVE",
"279 102 CURVE SMOOTH",
"274 104 OFFCURVE",
"267 106 OFFCURVE",
"265 107 CURVE SMOOTH",
"257 108 OFFCURVE",
"243 120 OFFCURVE",
"237 130 CURVE SMOOTH",
"226 148 OFFCURVE",
"225 152 OFFCURVE",
"225 225 CURVE SMOOTH",
"225 262 OFFCURVE",
"225 307 OFFCURVE",
"226 325 CURVE SMOOTH",
"227 359 LINE",
"233 366 LINE SMOOTH",
"244 380 OFFCURVE",
"263 390 OFFCURVE",
"284 394 CURVE SMOOTH",
"289 394 OFFCURVE",
"294 396 OFFCURVE",
"296 397 CURVE SMOOTH",
"297 398 OFFCURVE",
"302 399 OFFCURVE",
"305 400 CURVE SMOOTH",
"312 401 OFFCURVE",
"313 401 OFFCURVE",
"314 397 CURVE SMOOTH",
"314 394 OFFCURVE",
"319 390 OFFCURVE",
"325 386 CURVE SMOOTH"
);
}
);
width = 580;
}
);
unicode = 0062;
},
{
glyphname = c;
lastChange = "2015-06-01 23:13:56 +0000";
layers = (
{
layerId = "258ED206-D907-4350-8EBA-CBDDA1C16BF7";
name = Regular;
paths = (
{
closed = 1;
nodes = (
"230 499 OFFCURVE",
"214 497 OFFCURVE",
"208 495 CURVE SMOOTH",
"189 491 OFFCURVE",
"150 476 OFFCURVE",
"146 468 CURVE SMOOTH",
"146 468 OFFCURVE",
"138 464 OFFCURVE",
"132 460 CURVE SMOOTH",
"113 450 OFFCURVE",
"80 413 OFFCURVE",
"70 394 CURVE SMOOTH",
"68 390 OFFCURVE",
"64 384 OFFCURVE",
"60 380 CURVE SMOOTH",
"58 374 OFFCURVE",
"54 368 OFFCURVE",
"52 362 CURVE SMOOTH",
"52 359 OFFCURVE",
"48 351 OFFCURVE",
"46 347 CURVE SMOOTH",
"43 345 OFFCURVE",
"37 331 OFFCURVE",
"35 318 CURVE SMOOTH",
"27 296 LINE",
"27 255 LINE SMOOTH",
"27 216 OFFCURVE",
"27 212 OFFCURVE",
"33 189 CURVE SMOOTH",
"45 134 OFFCURVE",
"62 103 OFFCURVE",
"99 64 CURVE SMOOTH",
"123 41 OFFCURVE",
"140 29 OFFCURVE",
"169 15 CURVE SMOOTH",
"206 0 OFFCURVE",
"232 -6 OFFCURVE",
"284 -8 CURVE SMOOTH",
"310 -8 OFFCURVE",
"318 -8 OFFCURVE",
"333 -4 CURVE SMOOTH",
"370 4 OFFCURVE",
"396 11 OFFCURVE",
"397 15 CURVE SMOOTH",
"399 15 OFFCURVE",
"401 17 OFFCURVE",
"401 17 CURVE SMOOTH",
"403 17 OFFCURVE",
"409 19 OFFCURVE",
"415 23 CURVE SMOOTH",
"425 27 OFFCURVE",
"464 58 OFFCURVE",
"464 62 CURVE SMOOTH",
"464 64 OFFCURVE",
"466 66 OFFCURVE",
"470 70 CURVE SMOOTH",
"479 80 OFFCURVE",
"495 99 OFFCURVE",
"501 115 CURVE SMOOTH",
"511 132 OFFCURVE",
"514 146 OFFCURVE",
"514 158 CURVE SMOOTH",
"514 166 OFFCURVE",
"514 167 OFFCURVE",
"505 169 CURVE SMOOTH",
"499 171 OFFCURVE",
"483 175 OFFCURVE",
"470 177 CURVE SMOOTH",
"456 179 OFFCURVE",
"436 183 OFFCURVE",
"425 185 CURVE SMOOTH",
"409 189 OFFCURVE",
"407 189 OFFCURVE",
"401 185 CURVE SMOOTH",
"399 183 OFFCURVE",
"396 181 OFFCURVE",
"396 179 CURVE SMOOTH",
"394 175 OFFCURVE",
"376 150 OFFCURVE",
"374 148 CURVE SMOOTH",
"372 146 OFFCURVE",
"370 142 OFFCURVE",
"368 138 CURVE SMOOTH",
"364 132 OFFCURVE",
"349 117 OFFCURVE",
"341 113 CURVE SMOOTH",
"339 113 OFFCURVE",
"329 111 OFFCURVE",
"318 109 CURVE SMOOTH",
"300 107 OFFCURVE",
"296 107 OFFCURVE",
"284 111 CURVE SMOOTH",
"269 115 OFFCURVE",
"251 125 OFFCURVE",
"241 136 CURVE SMOOTH",
"232 148 OFFCURVE",
"232 150 OFFCURVE",
"226 175 CURVE SMOOTH",
"220 201 OFFCURVE",
"216 224 OFFCURVE",
"216 244 CURVE SMOOTH",
"216 279 OFFCURVE",
"224 335 OFFCURVE",
"232 351 CURVE SMOOTH",
"236 361 OFFCURVE",
"249 376 OFFCURVE",
"255 380 CURVE SMOOTH",
"271 390 OFFCURVE",
"300 394 OFFCURVE",
"312 388 CURVE SMOOTH",
"314 386 OFFCURVE",
"318 384 OFFCURVE",
"319 384 CURVE SMOOTH",
"323 384 OFFCURVE",
"337 372 OFFCURVE",
"341 366 CURVE SMOOTH",
"343 362 OFFCURVE",
"347 353 OFFCURVE",
"347 343 CURVE SMOOTH",
"349 331 OFFCURVE",
"351 327 OFFCURVE",
"355 323 CURVE SMOOTH",
"360 318 OFFCURVE",
"364 318 OFFCURVE",
"396 320 CURVE SMOOTH",
"407 322 OFFCURVE",
"431 322 OFFCURVE",
"450 323 CURVE SMOOTH",
"493 323 OFFCURVE",
"501 325 OFFCURVE",
"507 329 CURVE SMOOTH",
"516 335 OFFCURVE",
"518 347 OFFCURVE",
"507 368 CURVE SMOOTH",
"503 378 OFFCURVE",
"497 390 OFFCURVE",
"495 396 CURVE SMOOTH",
"493 401 OFFCURVE",
"487 409 OFFCURVE",
"483 415 CURVE SMOOTH",
"479 419 OFFCURVE",
"475 425 OFFCURVE",
"472 429 CURVE SMOOTH",
"468 435 OFFCURVE",
"429 470 OFFCURVE",
"417 476 CURVE SMOOTH",
"409 481 OFFCURVE",
"380 493 OFFCURVE",
"368 497 CURVE SMOOTH",
"345 505 OFFCURVE",
"333 505 OFFCURVE",
"300 507 CURVE SMOOTH",
"269 507 OFFCURVE",
"261 507 OFFCURVE",
"241 501 CURVE SMOOTH"
);
}
);
width = 540;
}
);
unicode = 0063;
},
{
glyphname = d;
lastChange = "2015-06-01 23:15:56 +0000";
layers = (
{
layerId = "258ED206-D907-4350-8EBA-CBDDA1C16BF7";
name = Regular;
paths = (
{
closed = 1;
nodes = (
"376 696 OFFCURVE",
"368 687 OFFCURVE",
"366 677 CURVE SMOOTH",
"366 672 OFFCURVE",
"365 621 OFFCURVE",
"366 563 CURVE SMOOTH",
"366 505 OFFCURVE",
"366 457 OFFCURVE",
"366 456 CURVE SMOOTH",
"365 454 OFFCURVE",
"363 453 OFFCURVE",
"361 453 CURVE SMOOTH",
"358 453 OFFCURVE",
"338 466 OFFCURVE",
"326 476 CURVE SMOOTH",
"320 481 OFFCURVE",
"297 490 OFFCURVE",
"275 497 CURVE SMOOTH",
"260 502 OFFCURVE",
"257 502 OFFCURVE",
"238 501 CURVE SMOOTH",
"227 500 OFFCURVE",
"212 499 OFFCURVE",
"205 499 CURVE SMOOTH",
"193 499 OFFCURVE",
"177 495 OFFCURVE",
"173 492 CURVE SMOOTH",
"172 491 OFFCURVE",
"166 488 OFFCURVE",
"161 486 CURVE SMOOTH",
"150 482 OFFCURVE",
"122 465 OFFCURVE",
"113 457 CURVE SMOOTH",
"109 454 OFFCURVE",
"105 450 OFFCURVE",
"101 449 CURVE SMOOTH",
"98 447 OFFCURVE",
"93 441 OFFCURVE",
"89 435 CURVE SMOOTH",
"86 429 OFFCURVE",
"80 421 OFFCURVE",
"76 415 CURVE SMOOTH",
"72 410 OFFCURVE",
"68 402 OFFCURVE",
"68 398 CURVE SMOOTH",
"67 394 OFFCURVE",
"64 387 OFFCURVE",
"61 384 CURVE SMOOTH",
"55 378 OFFCURVE",
"46 355 OFFCURVE",
"41 335 CURVE SMOOTH",
"38 324 OFFCURVE",
"36 310 OFFCURVE",
"32 279 CURVE SMOOTH",
"28 249 OFFCURVE",
"30 208 OFFCURVE",
"38 159 CURVE SMOOTH",
"41 139 OFFCURVE",
"52 106 OFFCURVE",
"60 94 CURVE SMOOTH",
"63 89 OFFCURVE",
"68 81 OFFCURVE",
"71 76 CURVE SMOOTH",
"79 64 OFFCURVE",
"97 44 OFFCURVE",
"108 35 CURVE SMOOTH",
"123 23 OFFCURVE",
"149 9 OFFCURVE",
"170 1 CURVE SMOOTH",
"191 -6 OFFCURVE",
"191 -6 OFFCURVE",
"221 -6 CURVE SMOOTH",
"256 -6 OFFCURVE",
"269 -3 OFFCURVE",
"293 7 CURVE SMOOTH",
"301 11 OFFCURVE",
"309 14 OFFCURVE",
"310 14 CURVE SMOOTH",
"313 14 OFFCURVE",
"342 33 OFFCURVE",
"350 41 CURVE SMOOTH",
"354 45 OFFCURVE",
"360 47 OFFCURVE",
"362 47 CURVE SMOOTH",
"367 47 OFFCURVE",
"367 47 OFFCURVE",
"367 31 CURVE SMOOTH",
"367 10 OFFCURVE",
"371 4 OFFCURVE",
"384 2 CURVE SMOOTH",
"400 -1 OFFCURVE",
"520 -1 OFFCURVE",
"528 1 CURVE SMOOTH",
"538 3 OFFCURVE",
"544 9 OFFCURVE",
"547 17 CURVE SMOOTH",
"549 25 OFFCURVE",
"550 59 OFFCURVE",
"549 147 CURVE SMOOTH",
"549 201 OFFCURVE",
"548 564 OFFCURVE",
"548 597 CURVE SMOOTH",
"548 601 OFFCURVE",
"549 620 OFFCURVE",
"549 639 CURVE SMOOTH",
"551 674 OFFCURVE",
"551 675 OFFCURVE",
"546 682 CURVE SMOOTH",
"539 694 OFFCURVE",
"533 697 OFFCURVE",
"507 697 CURVE SMOOTH",
"495 697 OFFCURVE",
"477 697 OFFCURVE",
"466 697 CURVE SMOOTH",
"455 697 OFFCURVE",
"434 697 OFFCURVE",
"418 697 CURVE SMOOTH",
"402 698 OFFCURVE",
"387 698 OFFCURVE",
"384 698 CURVE SMOOTH"
);
},
{
closed = 1;
nodes = (
"335 385 OFFCURVE",
"340 382 OFFCURVE",
"349 373 CURVE SMOOTH",
"364 359 OFFCURVE",
"365 354 OFFCURVE",
"365 291 CURVE SMOOTH",
"366 264 OFFCURVE",
"366 235 OFFCURVE",
"366 228 CURVE SMOOTH",
"366 220 OFFCURVE",
"366 199 OFFCURVE",
"365 180 CURVE SMOOTH",
"364 138 OFFCURVE",
"364 139 OFFCURVE",
"341 119 CURVE SMOOTH",
"321 101 OFFCURVE",
"289 98 OFFCURVE",
"262 113 CURVE SMOOTH",
"238 127 OFFCURVE",
"228 152 OFFCURVE",
"225 212 CURVE SMOOTH",
"222 270 OFFCURVE",
"228 324 OFFCURVE",
"239 349 CURVE SMOOTH",
"257 387 OFFCURVE",
"287 400 OFFCURVE",
"325 389 CURVE SMOOTH"
);
},
{
closed = 1;
nodes = (
"87 142 OFFCURVE",
"85 141 OFFCURVE",
"84 141 CURVE SMOOTH",
"83 141 OFFCURVE",
"83 142 OFFCURVE",
"84 143 CURVE SMOOTH",
"84 144 OFFCURVE",
"85 145 OFFCURVE",
"87 145 CURVE SMOOTH",
"88 145 OFFCURVE",
"88 144 OFFCURVE",
"87 143 CURVE SMOOTH"
);
}
);
width = 580;
}
);
unicode = 0064;
},
{
glyphname = e;
lastChange = "2015-06-01 23:14:40 +0000";
layers = (
{
layerId = "258ED206-D907-4350-8EBA-CBDDA1C16BF7";
name = Regular;
paths = (
{
closed = 1;
nodes = (
"265 509 OFFCURVE",
"257 507 OFFCURVE",
"248 506 CURVE SMOOTH",
"239 505 OFFCURVE",
"229 502 OFFCURVE",
"226 501 CURVE SMOOTH",
"222 499 OFFCURVE",
"214 496 OFFCURVE",
"206 494 CURVE SMOOTH",
"187 488 OFFCURVE",
"134 462 OFFCURVE",
"124 453 CURVE SMOOTH",
"120 449 OFFCURVE",
"111 441 OFFCURVE",
"104 435 CURVE SMOOTH",
"85 420 OFFCURVE",
"56 379 OFFCURVE",
"46 352 CURVE SMOOTH",
"30 312 OFFCURVE",
"28 303 OFFCURVE",
"25 280 CURVE SMOOTH",
"19 239 OFFCURVE",
"24 188 OFFCURVE",
"37 155 CURVE SMOOTH",
"45 134 OFFCURVE",
"48 129 OFFCURVE",
"66 100 CURVE SMOOTH",
"79 79 OFFCURVE",
"124 38 OFFCURVE",
"134 38 CURVE SMOOTH",
"135 38 OFFCURVE",
"141 35 OFFCURVE",
"145 31 CURVE SMOOTH",
"163 18 OFFCURVE",
"199 3 OFFCURVE",
"221 0 CURVE SMOOTH",
"224 -1 OFFCURVE",
"231 -2 OFFCURVE",
"239 -4 CURVE SMOOTH",
"250 -7 OFFCURVE",
"261 -8 OFFCURVE",
"295 -8 CURVE SMOOTH",
"341 -8 OFFCURVE",
"364 -5 OFFCURVE",
"385 4 CURVE SMOOTH",
"392 6 OFFCURVE",
"398 8 OFFCURVE",
"400 8 CURVE SMOOTH",
"404 8 OFFCURVE",
"436 26 OFFCURVE",
"450 36 CURVE SMOOTH",
"457 41 OFFCURVE",
"466 47 OFFCURVE",
"470 49 CURVE SMOOTH",
"480 54 OFFCURVE",
"513 89 OFFCURVE",
"523 104 CURVE SMOOTH",
"527 111 OFFCURVE",
"531 119 OFFCURVE",
"531 121 CURVE SMOOTH",
"531 132 OFFCURVE",
"526 134 OFFCURVE",
"489 147 CURVE SMOOTH",
"482 150 OFFCURVE",
"476 152 OFFCURVE",
"475 153 CURVE SMOOTH",
"474 154 OFFCURVE",
"470 155 OFFCURVE",
"466 156 CURVE SMOOTH",
"462 156 OFFCURVE",
"458 158 OFFCURVE",
"456 160 CURVE SMOOTH",
"455 161 OFFCURVE",
"453 163 OFFCURVE",
"451 163 CURVE SMOOTH",
"449 163 OFFCURVE",
"444 165 OFFCURVE",
"440 167 CURVE SMOOTH",
"427 176 OFFCURVE",
"421 174 OFFCURVE",
"408 160 CURVE SMOOTH",
"401 153 OFFCURVE",
"389 143 OFFCURVE",
"380 137 CURVE SMOOTH",
"367 127 OFFCURVE",
"360 124 OFFCURVE",
"343 120 CURVE SMOOTH",
"322 114 OFFCURVE",
"317 114 OFFCURVE",
"294 117 CURVE SMOOTH",
"282 118 OFFCURVE",
"260 126 OFFCURVE",
"250 133 CURVE SMOOTH",
"242 138 OFFCURVE",
"230 149 OFFCURVE",
"227 156 CURVE SMOOTH",
"222 165 OFFCURVE",
"217 186 OFFCURVE",
"217 198 CURVE SMOOTH",
"217 216 OFFCURVE",
"216 216 OFFCURVE",
"259 216 CURVE SMOOTH",
"292 215 OFFCURVE",
"361 214 OFFCURVE",
"392 213 CURVE SMOOTH",
"425 212 OFFCURVE",
"526 215 OFFCURVE",
"531 217 CURVE SMOOTH",
"540 220 OFFCURVE",
"542 226 OFFCURVE",
"542 244 CURVE SMOOTH",
"542 254 OFFCURVE",
"541 264 OFFCURVE",
"540 268 CURVE SMOOTH",
"538 274 OFFCURVE",
"537 283 OFFCURVE",
"533 314 CURVE SMOOTH",
"531 324 OFFCURVE",
"528 332 OFFCURVE",
"514 367 CURVE SMOOTH",
"502 398 OFFCURVE",
"469 443 OFFCURVE",
"453 451 CURVE SMOOTH",
"450 453 OFFCURVE",
"444 457 OFFCURVE",
"440 460 CURVE SMOOTH",
"436 464 OFFCURVE",
"429 469 OFFCURVE",
"424 471 CURVE SMOOTH",
"420 473 OFFCURVE",
"412 477 OFFCURVE",
"407 481 CURVE SMOOTH",
"401 485 OFFCURVE",
"392 490 OFFCURVE",
"378 494 CURVE SMOOTH",
"367 497 OFFCURVE",
"354 501 OFFCURVE",
"349 503 CURVE SMOOTH",
"343 505 OFFCURVE",
"330 506 OFFCURVE",
"314 507 CURVE SMOOTH",
"299 507 OFFCURVE",
"283 508 OFFCURVE",
"277 509 CURVE SMOOTH",
"271 509 OFFCURVE",
"266 510 OFFCURVE",
"265 509 CURVE SMOOTH"
);
},
{
closed = 1;
nodes = (
"331 390 OFFCURVE",
"349 371 OFFCURVE",
"353 353 CURVE SMOOTH",
"354 348 OFFCURVE",
"356 341 OFFCURVE",
"357 337 CURVE SMOOTH",
"359 330 OFFCURVE",
"359 327 OFFCURVE",
"357 321 CURVE SMOOTH",
"355 313 LINE",
"344 312 LINE SMOOTH",
"338 312 OFFCURVE",
"330 312 OFFCURVE",
"328 312 CURVE SMOOTH",
"312 313 OFFCURVE",
"265 314 OFFCURVE",
"243 314 CURVE SMOOTH",
"219 314 LINE",
"219 325 LINE SMOOTH",
"219 331 OFFCURVE",
"221 341 OFFCURVE",
"223 348 CURVE SMOOTH",
"228 361 OFFCURVE",
"241 379 OFFCURVE",
"245 379 CURVE SMOOTH",
"246 379 OFFCURVE",
"250 382 OFFCURVE",
"253 386 CURVE SMOOTH",
"259 393 OFFCURVE",
"260 394 OFFCURVE",
"273 396 CURVE SMOOTH",
"281 397 OFFCURVE",
"290 399 OFFCURVE",
"294 399 CURVE SMOOTH",
"297 400 OFFCURVE",
"300 400 OFFCURVE",
"301 400 CURVE SMOOTH",
"302 400 OFFCURVE",
"307 399 OFFCURVE",
"312 397 CURVE SMOOTH"
);
}
);
width = 560;
}
);
unicode = 0065;
},
{
glyphname = f;
lastChange = "2015-06-01 23:09:01 +0000";
layers = (
{
layerId = "258ED206-D907-4350-8EBA-CBDDA1C16BF7";
name = Regular;
paths = (
{
closed = 1;
nodes = (
"285 697 OFFCURVE",
"267 696 OFFCURVE",
"246 695 CURVE SMOOTH",
"197 694 OFFCURVE",
"182 691 OFFCURVE",
"160 680 CURVE SMOOTH",
"131 665 OFFCURVE",
"112 645 OFFCURVE",
"99 614 CURVE SMOOTH",
"92 596 LINE",
"93 547 LINE SMOOTH",
"94 511 OFFCURVE",
"94 496 OFFCURVE",
"92 493 CURVE SMOOTH",
"89 487 OFFCURVE",
"82 486 OFFCURVE",
"65 487 CURVE SMOOTH",
"58 488 OFFCURVE",
"52 488 OFFCURVE",
"50 487 CURVE SMOOTH",
"47 486 OFFCURVE",
"44 486 OFFCURVE",
"40 487 CURVE SMOOTH",
"36 489 OFFCURVE",
"32 489 OFFCURVE",
"24 487 CURVE SMOOTH",
"8 483 OFFCURVE",
"8 481 OFFCURVE",
"8 429 CURVE SMOOTH",
"8 385 OFFCURVE",
"9 379 OFFCURVE",
"17 372 CURVE SMOOTH",
"21 369 OFFCURVE",
"42 369 OFFCURVE",
"70 371 CURVE SMOOTH",
"88 373 OFFCURVE",
"88 373 OFFCURVE",
"91 368 CURVE SMOOTH",
"93 364 OFFCURVE",
"93 335 OFFCURVE",
"91 160 CURVE SMOOTH",
"91 120 OFFCURVE",
"90 85 OFFCURVE",
"91 82 CURVE SMOOTH",
"91 69 OFFCURVE",
"91 59 OFFCURVE",
"90 38 CURVE SMOOTH",
"88 20 OFFCURVE",
"89 17 OFFCURVE",
"92 12 CURVE SMOOTH",
"98 1 OFFCURVE",
"105 0 OFFCURVE",
"149 0 CURVE SMOOTH",
"171 0 OFFCURVE",
"205 0 OFFCURVE",
"224 0 CURVE SMOOTH",
"262 -1 OFFCURVE",
"267 0 OFFCURVE",
"274 10 CURVE SMOOTH",
"279 16 OFFCURVE",
"279 14 OFFCURVE",
"277 97 CURVE SMOOTH",
"276 134 OFFCURVE",
"275 171 OFFCURVE",
"275 178 CURVE SMOOTH",
"275 186 OFFCURVE",
"276 231 OFFCURVE",
"276 278 CURVE SMOOTH",
"277 365 LINE",
"282 369 LINE SMOOTH",
"286 372 OFFCURVE",
"288 373 OFFCURVE",
"310 371 CURVE SMOOTH",
"352 368 OFFCURVE",
"361 370 OFFCURVE",
"366 381 CURVE SMOOTH",
"367 386 OFFCURVE",
"367 441 OFFCURVE",
"365 470 CURVE SMOOTH",
"364 479 OFFCURVE",
"362 482 OFFCURVE",
"347 487 CURVE SMOOTH",
"335 491 OFFCURVE",
"316 493 OFFCURVE",
"294 490 CURVE SMOOTH",
"286 489 OFFCURVE",
"281 490 OFFCURVE",
"278 492 CURVE SMOOTH",
"273 494 OFFCURVE",
"273 495 OFFCURVE",
"272 517 CURVE SMOOTH",
"272 542 OFFCURVE",
"274 548 OFFCURVE",
"286 560 CURVE SMOOTH",
"301 574 OFFCURVE",
"306 576 OFFCURVE",
"335 575 CURVE SMOOTH",
"358 575 OFFCURVE",
"361 575 OFFCURVE",
"364 578 CURVE SMOOTH",
"370 585 OFFCURVE",
"371 597 OFFCURVE",
"371 637 CURVE SMOOTH",
"371 676 LINE",
"364 683 LINE SMOOTH",
"358 689 OFFCURVE",
"354 692 OFFCURVE",
"347 694 CURVE SMOOTH",
"336 696 OFFCURVE",
"287 699 OFFCURVE",
"285 697 CURVE SMOOTH"
);
}
);
width = 390;
}
);
unicode = 0066;
},
{
glyphname = g;
lastChange = "2015-06-01 23:16:15 +0000";
layers = (
{
layerId = "258ED206-D907-4350-8EBA-CBDDA1C16BF7";
name = Regular;
paths = (
{
closed = 1;
nodes = (
"175 500 OFFCURVE",
"158 495 OFFCURVE",
"123 482 CURVE SMOOTH",
"94 470 OFFCURVE",
"56 438 OFFCURVE",
"43 414 CURVE SMOOTH",
"32 395 OFFCURVE",
"25 364 OFFCURVE",
"27 345 CURVE SMOOTH",
"30 314 OFFCURVE",
"40 292 OFFCURVE",
"65 269 CURVE SMOOTH",
"84 250 OFFCURVE",
"102 237 OFFCURVE",
"117 232 CURVE SMOOTH",
"132 227 OFFCURVE",
"131 223 OFFCURVE",
"108 212 CURVE SMOOTH",
"65 191 OFFCURVE",
"34 164 OFFCURVE",
"28 144 CURVE SMOOTH",
"24 132 OFFCURVE",
"20 108 OFFCURVE",
"20 101 CURVE SMOOTH",
"20 98 OFFCURVE",
"22 91 OFFCURVE",
"25 86 CURVE SMOOTH",
"35 68 OFFCURVE",
"42 60 OFFCURVE",
"55 53 CURVE SMOOTH",
"62 49 OFFCURVE",
"69 45 OFFCURVE",
"71 44 CURVE SMOOTH",
"72 43 OFFCURVE",
"76 41 OFFCURVE",
"79 40 CURVE SMOOTH",
"90 36 OFFCURVE",
"84 30 OFFCURVE",
"69 27 CURVE SMOOTH",
"64 26 OFFCURVE",
"58 24 OFFCURVE",
"55 21 CURVE SMOOTH",
"52 19 OFFCURVE",
"47 17 OFFCURVE",
"45 17 CURVE SMOOTH",
"42 17 OFFCURVE",
"37 14 OFFCURVE",
"33 11 CURVE SMOOTH",
"29 8 OFFCURVE",
"24 5 OFFCURVE",
"23 5 CURVE SMOOTH",
"22 5 OFFCURVE",
"17 1 OFFCURVE",
"11 -5 CURVE SMOOTH",
"1 -15 OFFCURVE",
"-7 -32 OFFCURVE",
"-9 -46 CURVE SMOOTH",
"-11 -63 OFFCURVE",
"1 -87 OFFCURVE",
"18 -99 CURVE SMOOTH",
"27 -106 OFFCURVE",
"65 -126 OFFCURVE",
"70 -126 CURVE SMOOTH",
"71 -126 OFFCURVE",
"77 -128 OFFCURVE",
"84 -130 CURVE SMOOTH",
"105 -139 OFFCURVE",
"148 -144 OFFCURVE",
"209 -146 CURVE SMOOTH",
"295 -149 OFFCURVE",
"367 -147 OFFCURVE",
"395 -140 CURVE SMOOTH",
"402 -139 OFFCURVE",
"410 -137 OFFCURVE",
"414 -137 CURVE SMOOTH",
"420 -137 OFFCURVE",
"426 -136 OFFCURVE",
"462 -122 CURVE SMOOTH",
"492 -111 OFFCURVE",
"505 -102 OFFCURVE",
"527 -80 CURVE SMOOTH",
"533 -74 OFFCURVE",
"547 -57 OFFCURVE",
"547 -55 CURVE SMOOTH",
"547 -54 OFFCURVE",
"551 -45 OFFCURVE",
"556 -35 CURVE SMOOTH",
"563 -18 OFFCURVE",
"565 -13 OFFCURVE",
"566 -1 CURVE SMOOTH",
"567 28 OFFCURVE",
"559 59 OFFCURVE",
"544 79 CURVE SMOOTH",
"530 97 OFFCURVE",
"517 110 OFFCURVE",
"510 111 CURVE SMOOTH",
"507 112 OFFCURVE",
"503 115 OFFCURVE",
"500 117 CURVE SMOOTH",
"494 123 OFFCURVE",
"465 138 OFFCURVE",
"459 138 CURVE SMOOTH",
"456 138 OFFCURVE",
"448 139 OFFCURVE",
"440 141 CURVE SMOOTH",
"406 148 OFFCURVE",
"378 151 OFFCURVE",
"325 152 CURVE SMOOTH",
"314 153 OFFCURVE",
"296 153 OFFCURVE",
"284 154 CURVE SMOOTH",
"272 155 OFFCURVE",
"259 156 OFFCURVE",
"254 156 CURVE SMOOTH",
"212 159 OFFCURVE",
"202 160 OFFCURVE",
"192 164 CURVE SMOOTH",
"183 168 OFFCURVE",
"182 170 OFFCURVE",
"181 175 CURVE SMOOTH",
"179 183 OFFCURVE",
"183 190 OFFCURVE",
"191 196 CURVE SMOOTH",
"198 200 OFFCURVE",
"221 204 OFFCURVE",
"238 203 CURVE SMOOTH",
"259 203 OFFCURVE",
"319 204 OFFCURVE",
"332 205 CURVE SMOOTH",
"338 205 OFFCURVE",
"349 208 OFFCURVE",
"357 210 CURVE SMOOTH",
"365 212 OFFCURVE",
"376 215 OFFCURVE",
"381 216 CURVE SMOOTH",
"386 217 OFFCURVE",
"397 221 OFFCURVE",
"405 225 CURVE SMOOTH",
"414 230 OFFCURVE",
"423 233 OFFCURVE",
"424 233 CURVE SMOOTH",
"426 233 OFFCURVE",
"429 235 OFFCURVE",
"432 237 CURVE SMOOTH",
"434 239 OFFCURVE",
"440 242 OFFCURVE",
"444 244 CURVE SMOOTH",
"456 250 OFFCURVE",
"482 277 OFFCURVE",
"490 291 CURVE SMOOTH",
"499 309 OFFCURVE",
"506 328 OFFCURVE",
"508 344 CURVE SMOOTH",
"509 357 OFFCURVE",
"509 362 OFFCURVE",
"504 384 CURVE SMOOTH",
"500 405 OFFCURVE",
"500 409 OFFCURVE",
"502 412 CURVE SMOOTH",
"508 420 OFFCURVE",
"526 421 OFFCURVE",
"543 415 CURVE SMOOTH",
"553 411 OFFCURVE",
"560 406 OFFCURVE",
"573 393 CURVE SMOOTH",
"575 391 OFFCURVE",
"579 389 OFFCURVE",
"582 389 CURVE SMOOTH",
"591 389 OFFCURVE",
"594 395 OFFCURVE",
"595 414 CURVE SMOOTH",
"597 432 OFFCURVE",
"595 492 OFFCURVE",
"593 497 CURVE SMOOTH",
"589 505 OFFCURVE",
"565 509 OFFCURVE",
"544 506 CURVE SMOOTH",
"530 504 OFFCURVE",
"507 495 OFFCURVE",
"505 491 CURVE SMOOTH",
"504 490 OFFCURVE",
"502 489 OFFCURVE",
"499 489 CURVE SMOOTH",
"494 489 OFFCURVE",
"471 473 OFFCURVE",
"463 464 CURVE SMOOTH",
"454 455 OFFCURVE",
"449 456 OFFCURVE",
"432 467 CURVE SMOOTH",
"413 482 OFFCURVE",
"397 488 OFFCURVE",
"352 499 CURVE SMOOTH",
"321 507 OFFCURVE",
"256 510 OFFCURVE",
"220 505 CURVE SMOOTH"
);
},
{
closed = 1;
nodes = (
"313 413 OFFCURVE",
"327 401 OFFCURVE",
"335 385 CURVE SMOOTH",
"341 372 OFFCURVE",
"342 370 OFFCURVE",
"342 355 CURVE SMOOTH",
"342 337 OFFCURVE",
"339 328 OFFCURVE",
"329 313 CURVE SMOOTH",
"325 305 OFFCURVE",
"321 301 OFFCURVE",
"317 300 CURVE SMOOTH",
"314 299 OFFCURVE",
"306 296 OFFCURVE",
"300 293 CURVE SMOOTH",
"289 287 OFFCURVE",
"287 287 OFFCURVE",
"267 287 CURVE SMOOTH",
"244 287 OFFCURVE",
"241 288 OFFCURVE",
"223 301 CURVE SMOOTH",
"210 310 OFFCURVE",
"196 329 OFFCURVE",
"194 342 CURVE SMOOTH",
"192 355 OFFCURVE",
"195 374 OFFCURVE",
"199 384 CURVE SMOOTH",
"207 400 OFFCURVE",
"222 412 OFFCURVE",
"248 421 CURVE SMOOTH",
"261 425 OFFCURVE",
"281 424 OFFCURVE",
"296 419 CURVE SMOOTH"
);
},
{
closed = 1;
nodes = (
"262 11 OFFCURVE",
"283 10 OFFCURVE",
"300 10 CURVE SMOOTH",
"327 9 OFFCURVE",
"354 8 OFFCURVE",
"354 7 CURVE SMOOTH",
"354 7 OFFCURVE",
"358 6 OFFCURVE",
"363 6 CURVE SMOOTH",
"375 5 OFFCURVE",
"382 2 OFFCURVE",
"393 -5 CURVE SMOOTH",
"412 -19 OFFCURVE",
"410 -35 OFFCURVE",
"386 -46 CURVE SMOOTH",
"375 -51 OFFCURVE",
"368 -53 OFFCURVE",
"345 -54 CURVE SMOOTH",
"337 -55 OFFCURVE",
"325 -57 OFFCURVE",
"317 -58 CURVE SMOOTH",
"307 -60 OFFCURVE",
"296 -60 OFFCURVE",
"272 -59 CURVE SMOOTH",
"234 -57 OFFCURVE",
"194 -53 OFFCURVE",
"191 -50 CURVE SMOOTH",
"190 -49 OFFCURVE",
"185 -48 OFFCURVE",
"181 -48 CURVE SMOOTH",
"174 -48 OFFCURVE",
"157 -43 OFFCURVE",
"151 -40 CURVE SMOOTH",
"143 -36 OFFCURVE",
"137 -21 OFFCURVE",
"139 -11 CURVE SMOOTH",
"142 -2 OFFCURVE",
"161 10 OFFCURVE",
"176 13 CURVE SMOOTH",
"186 14 OFFCURVE",
"217 14 OFFCURVE",
"254 12 CURVE SMOOTH"
);
},
{
closed = 1;
nodes = (
"536 -14 OFFCURVE",
"534 -14 OFFCURVE",
"533 -14 CURVE SMOOTH",
"531 -13 OFFCURVE",
"532 -11 OFFCURVE",
"534 -8 CURVE SMOOTH",
"537 -5 OFFCURVE",
"538 -5 OFFCURVE",
"538 -8 CURVE SMOOTH",
"539 -9 OFFCURVE",
"538 -12 OFFCURVE",
"537 -13 CURVE SMOOTH"
);
}
);
width = 570;
}
);
unicode = 0067;
},
{
glyphname = h;
lastChange = "2015-06-01 23:16:25 +0000";
layers = (
{
layerId = "258ED206-D907-4350-8EBA-CBDDA1C16BF7";
name = Regular;
paths = (
{
closed = 1;
nodes = (
"47 694 OFFCURVE",
"44 693 OFFCURVE",
"41 690 CURVE SMOOTH",
"35 681 OFFCURVE",
"35 674 OFFCURVE",
"36 627 CURVE SMOOTH",
"36 602 OFFCURVE",
"36 555 OFFCURVE",
"35 523 CURVE SMOOTH",
"33 447 OFFCURVE",
"32 436 OFFCURVE",
"34 418 CURVE SMOOTH",
"35 409 OFFCURVE",
"36 401 OFFCURVE",
"36 399 CURVE SMOOTH",
"35 392 OFFCURVE",
"34 248 OFFCURVE",
"34 194 CURVE SMOOTH",
"34 163 OFFCURVE",
"34 131 OFFCURVE",
"34 124 CURVE SMOOTH",
"34 117 OFFCURVE",
"35 106 OFFCURVE",
"36 100 CURVE SMOOTH",
"37 91 OFFCURVE",
"37 85 OFFCURVE",
"35 71 CURVE SMOOTH",
"31 48 OFFCURVE",
"31 23 OFFCURVE",
"35 14 CURVE SMOOTH",
"36 10 OFFCURVE",
"40 6 OFFCURVE",
"44 3 CURVE SMOOTH",
"50 0 OFFCURVE",
"54 0 OFFCURVE",
"130 0 CURVE SMOOTH",
"210 0 LINE",
"214 4 LINE SMOOTH",
"221 11 OFFCURVE",
"222 19 OFFCURVE",
"219 63 CURVE SMOOTH",
"218 86 OFFCURVE",
"218 155 OFFCURVE",
"218 217 CURVE SMOOTH",
"218 330 LINE",
"223 338 LINE SMOOTH",
"227 346 OFFCURVE",
"248 365 OFFCURVE",
"261 372 CURVE SMOOTH",
"266 375 OFFCURVE",
"272 377 OFFCURVE",
"285 377 CURVE SMOOTH",
"315 379 OFFCURVE",
"325 373 OFFCURVE",
"337 349 CURVE SMOOTH",
"343 336 LINE",
"343 205 LINE SMOOTH",
"343 131 OFFCURVE",
"342 62 OFFCURVE",
"340 46 CURVE SMOOTH",
"339 27 OFFCURVE",
"339 15 OFFCURVE",
"340 12 CURVE SMOOTH",
"344 1 OFFCURVE",
"348 0 OFFCURVE",
"428 0 CURVE SMOOTH",
"531 0 OFFCURVE",
"526 -3 OFFCURVE",
"526 51 CURVE SMOOTH",
"526 70 OFFCURVE",
"527 100 OFFCURVE",
"527 117 CURVE SMOOTH",
"527 135 OFFCURVE",
"526 179 OFFCURVE",
"526 216 CURVE SMOOTH",
"525 253 OFFCURVE",
"525 285 OFFCURVE",
"525 288 CURVE SMOOTH",
"525 291 OFFCURVE",
"525 309 OFFCURVE",
"525 328 CURVE SMOOTH",
"526 354 OFFCURVE",
"525 368 OFFCURVE",
"522 380 CURVE SMOOTH",
"513 427 OFFCURVE",
"510 433 OFFCURVE",
"492 452 CURVE SMOOTH",
"481 465 OFFCURVE",
"469 472 OFFCURVE",
"455 478 CURVE SMOOTH",
"450 480 OFFCURVE",
"443 483 OFFCURVE",
"439 486 CURVE SMOOTH",
"424 496 OFFCURVE",
"403 499 OFFCURVE",
"363 496 CURVE SMOOTH",
"352 496 OFFCURVE",
"343 494 OFFCURVE",
"334 490 CURVE SMOOTH",
"327 487 OFFCURVE",
"320 485 OFFCURVE",
"319 485 CURVE SMOOTH",
"318 485 OFFCURVE",
"311 483 OFFCURVE",
"304 481 CURVE SMOOTH",
"291 476 OFFCURVE",
"268 462 OFFCURVE",
"242 441 CURVE SMOOTH",
"224 426 OFFCURVE",
"218 425 OFFCURVE",
"218 436 CURVE SMOOTH",
"217 440 OFFCURVE",
"217 460 OFFCURVE",
"217 480 CURVE SMOOTH",
"217 501 OFFCURVE",
"217 520 OFFCURVE",
"217 523 CURVE SMOOTH",
"217 564 OFFCURVE",
"218 595 OFFCURVE",
"218 631 CURVE SMOOTH",
"218 675 OFFCURVE",
"218 675 OFFCURVE",
"213 682 CURVE SMOOTH",
"205 695 OFFCURVE",
"205 695 OFFCURVE",
"157 695 CURVE SMOOTH",
"132 695 OFFCURVE",
"104 695 OFFCURVE",
"92 696 CURVE SMOOTH",
"81 696 OFFCURVE",
"66 696 OFFCURVE",
"58 695 CURVE SMOOTH"
);
}
);
width = 560;
}
);
unicode = 0068;
},
{
glyphname = i;
lastChange = "2015-06-02 16:23:42 +0000";
layers = (
{
layerId = "258ED206-D907-4350-8EBA-CBDDA1C16BF7";
name = Regular;
paths = (
{
closed = 1;
nodes = (
"53 697 OFFCURVE",
"49 695 OFFCURVE",
"46 687 CURVE SMOOTH",
"45 684 OFFCURVE",
"44 659 OFFCURVE",
"43 632 CURVE SMOOTH",
"43 605 OFFCURVE",
"42 581 OFFCURVE",
"41 578 CURVE SMOOTH",
"38 569 OFFCURVE",
"42 551 OFFCURVE",
"46 546 CURVE SMOOTH",
"51 542 LINE",
"133 542 LINE SMOOTH",
"177 542 OFFCURVE",
"216 542 OFFCURVE",
"218 543 CURVE SMOOTH",
"225 545 OFFCURVE",
"228 554 OFFCURVE",
"228 588 CURVE SMOOTH",
"229 606 OFFCURVE",
"229 625 OFFCURVE",
"229 630 CURVE SMOOTH",
"230 635 OFFCURVE",
"229 648 OFFCURVE",
"228 657 CURVE SMOOTH",
"228 667 OFFCURVE",
"227 677 OFFCURVE",
"227 680 CURVE SMOOTH",
"227 684 OFFCURVE",
"225 688 OFFCURVE",
"220 693 CURVE SMOOTH",
"213 699 OFFCURVE",
"212 699 OFFCURVE",
"195 699 CURVE SMOOTH",
"185 699 OFFCURVE",
"156 700 OFFCURVE",
"130 700 CURVE SMOOTH",
"103 700 OFFCURVE",
"76 700 OFFCURVE",
"69 699 CURVE SMOOTH"
);
},
{
closed = 1;
nodes = (
"60 492 OFFCURVE",
"56 490 OFFCURVE",
"53 489 CURVE SMOOTH",
"43 484 OFFCURVE",
"43 486 OFFCURVE",
"42 310 CURVE SMOOTH",
"42 221 OFFCURVE",
"42 145 OFFCURVE",
"42 141 CURVE SMOOTH",
"42 136 OFFCURVE",
"42 124 OFFCURVE",
"42 113 CURVE SMOOTH",
"42 41 OFFCURVE",
"42 16 OFFCURVE",
"43 14 CURVE SMOOTH",
"43 12 OFFCURVE",
"47 9 OFFCURVE",
"52 6 CURVE SMOOTH",
"60 0 LINE",
"135 0 LINE SMOOTH",
"216 0 OFFCURVE",
"220 0 OFFCURVE",
"226 10 CURVE SMOOTH",
"229 15 OFFCURVE",
"229 19 OFFCURVE",
"229 45 CURVE SMOOTH",
"228 71 OFFCURVE",
"228 112 OFFCURVE",
"228 235 CURVE SMOOTH",
"228 255 OFFCURVE",
"228 275 OFFCURVE",
"229 279 CURVE SMOOTH",
"229 283 OFFCURVE",
"229 309 OFFCURVE",
"228 336 CURVE SMOOTH",
"228 363 OFFCURVE",
"228 391 OFFCURVE",
"229 399 CURVE SMOOTH",
"229 407 OFFCURVE",
"228 423 OFFCURVE",
"227 434 CURVE SMOOTH",
"226 447 OFFCURVE",
"226 460 OFFCURVE",
"227 467 CURVE SMOOTH",
"228 478 OFFCURVE",
"228 481 OFFCURVE",
"226 485 CURVE SMOOTH",
"220 495 OFFCURVE",
"220 495 OFFCURVE",
"128 495 CURVE SMOOTH",
"82 495 OFFCURVE",
"65 495 OFFCURVE",
"62 493 CURVE SMOOTH"
);
}
);
width = 270;
}
);
unicode = 0069;
},
{
glyphname = j;
lastChange = "2015-06-02 16:24:05 +0000";
layers = (
{
layerId = "258ED206-D907-4350-8EBA-CBDDA1C16BF7";
name = Regular;
paths = (
{
closed = 1;
nodes = (
"40 694 OFFCURVE",
"39 687 OFFCURVE",
"38 623 CURVE SMOOTH",
"38 574 OFFCURVE",
"39 555 OFFCURVE",
"43 551 CURVE SMOOTH",
"47 546 OFFCURVE",
"71 541 OFFCURVE",
"78 544 CURVE SMOOTH",
"81 545 OFFCURVE",
"111 546 OFFCURVE",
"146 546 CURVE SMOOTH",
"226 547 OFFCURVE",
"223 546 OFFCURVE",
"225 578 CURVE SMOOTH",
"226 586 OFFCURVE",
"226 608 OFFCURVE",
"226 627 CURVE SMOOTH",
"227 687 OFFCURVE",
"226 691 OFFCURVE",
"216 701 CURVE SMOOTH",
"212 705 OFFCURVE",
"211 705 OFFCURVE",
"134 706 CURVE SMOOTH",
"59 706 OFFCURVE",
"56 706 OFFCURVE",
"52 703 CURVE SMOOTH"
);
},
{
closed = 1;
nodes = (
"78 499 OFFCURVE",
"74 499 OFFCURVE",
"69 500 CURVE SMOOTH",
"60 503 OFFCURVE",
"50 499 OFFCURVE",
"46 492 CURVE SMOOTH",
"40 480 OFFCURVE",
"39 457 OFFCURVE",
"40 292 CURVE SMOOTH",
"41 202 OFFCURVE",
"41 106 OFFCURVE",
"42 79 CURVE SMOOTH",
"43 25 OFFCURVE",
"42 19 OFFCURVE",
"31 1 CURVE SMOOTH",
"26 -7 OFFCURVE",
"25 -8 OFFCURVE",
"14 -10 CURVE SMOOTH",
"8 -11 OFFCURVE",
"0 -13 OFFCURVE",
"-4 -14 CURVE SMOOTH",
"-13 -15 OFFCURVE",
"-23 -25 OFFCURVE",
"-24 -33 CURVE SMOOTH",
"-25 -36 OFFCURVE",
"-25 -62 OFFCURVE",
"-25 -91 CURVE SMOOTH",
"-24 -143 OFFCURVE",
"-24 -143 OFFCURVE",
"-20 -148 CURVE SMOOTH",
"-13 -155 OFFCURVE",
"-3 -156 OFFCURVE",
"31 -156 CURVE SMOOTH",
"53 -156 OFFCURVE",
"64 -155 OFFCURVE",
"70 -152 CURVE SMOOTH",
"75 -151 OFFCURVE",
"81 -149 OFFCURVE",
"85 -149 CURVE SMOOTH",
"97 -149 OFFCURVE",
"137 -133 OFFCURVE",
"154 -121 CURVE SMOOTH",
"158 -118 OFFCURVE",
"164 -114 OFFCURVE",
"168 -111 CURVE SMOOTH",
"183 -100 OFFCURVE",
"194 -90 OFFCURVE",
"203 -75 CURVE SMOOTH",
"208 -67 OFFCURVE",
"213 -60 OFFCURVE",
"213 -59 CURVE SMOOTH",
"213 -58 OFFCURVE",
"215 -52 OFFCURVE",
"218 -46 CURVE SMOOTH",
"221 -40 OFFCURVE",
"224 -26 OFFCURVE",
"226 -14 CURVE SMOOTH",
"230 6 OFFCURVE",
"230 17 OFFCURVE",
"229 142 CURVE SMOOTH",
"228 216 OFFCURVE",
"227 282 OFFCURVE",
"227 288 CURVE SMOOTH",
"227 294 OFFCURVE",
"228 315 OFFCURVE",
"228 335 CURVE SMOOTH",
"228 356 OFFCURVE",
"228 397 OFFCURVE",
"227 426 CURVE SMOOTH",
"226 480 LINE",
"220 489 LINE SMOOTH",
"217 494 OFFCURVE",
"213 498 OFFCURVE",
"211 499 CURVE SMOOTH",
"205 501 OFFCURVE",
"153 502 OFFCURVE",
"151 500 CURVE SMOOTH",
"150 499 OFFCURVE",
"141 499 OFFCURVE",
"129 500 CURVE SMOOTH",
"95 503 OFFCURVE",
"90 504 OFFCURVE",
"83 501 CURVE SMOOTH"
);
}
);
width = 270;
}
);
unicode = 006A;
},
{
glyphname = k;
lastChange = "2015-06-01 23:16:39 +0000";
layers = (
{
layerId = "258ED206-D907-4350-8EBA-CBDDA1C16BF7";
name = Regular;
paths = (
{
closed = 1;
nodes = (
"48 695 OFFCURVE",
"42 690 OFFCURVE",
"39 679 CURVE SMOOTH",
"38 673 OFFCURVE",
"38 653 OFFCURVE",
"39 614 CURVE SMOOTH",
"40 577 OFFCURVE",
"40 545 OFFCURVE",
"39 521 CURVE SMOOTH",
"38 492 OFFCURVE",
"38 235 OFFCURVE",
"39 126 CURVE SMOOTH",
"39 113 OFFCURVE",
"38 97 OFFCURVE",
"37 91 CURVE SMOOTH",
"35 83 OFFCURVE",
"35 67 OFFCURVE",
"35 48 CURVE SMOOTH",
"36 22 OFFCURVE",
"36 16 OFFCURVE",
"39 12 CURVE SMOOTH",
"46 1 OFFCURVE",
"49 0 OFFCURVE",
"85 0 CURVE SMOOTH",
"103 1 OFFCURVE",
"140 1 OFFCURVE",
"167 0 CURVE SMOOTH",
"216 0 LINE",
"222 6 LINE",
"228 12 LINE",
"227 50 LINE SMOOTH",
"225 121 OFFCURVE",
"225 133 OFFCURVE",
"229 141 CURVE SMOOTH",
"231 144 OFFCURVE",
"243 159 OFFCURVE",
"257 172 CURVE SMOOTH",
"289 204 OFFCURVE",
"294 205 OFFCURVE",
"301 181 CURVE SMOOTH",
"303 176 OFFCURVE",
"308 162 OFFCURVE",
"313 152 CURVE SMOOTH",
"318 141 OFFCURVE",
"323 130 OFFCURVE",
"324 127 CURVE SMOOTH",
"325 124 OFFCURVE",
"328 118 OFFCURVE",
"330 113 CURVE SMOOTH",
"337 100 OFFCURVE",
"344 83 OFFCURVE",
"350 67 CURVE SMOOTH",
"362 36 OFFCURVE",
"364 30 OFFCURVE",
"370 20 CURVE SMOOTH",
"379 2 OFFCURVE",
"381 1 OFFCURVE",
"415 2 CURVE SMOOTH",
"436 2 OFFCURVE",
"444 3 OFFCURVE",
"450 6 CURVE SMOOTH",
"454 7 OFFCURVE",
"459 9 OFFCURVE",
"462 9 CURVE SMOOTH",
"466 8 OFFCURVE",
"468 9 OFFCURVE",
"469 12 CURVE SMOOTH",
"471 18 OFFCURVE",
"473 17 OFFCURVE",
"475 10 CURVE SMOOTH",
"477 1 OFFCURVE",
"479 1 OFFCURVE",
"528 1 CURVE SMOOTH",
"568 0 LINE",
"574 6 LINE SMOOTH",
"581 14 OFFCURVE",
"582 23 OFFCURVE",
"575 31 CURVE SMOOTH",
"573 34 OFFCURVE",
"569 41 OFFCURVE",
"566 47 CURVE SMOOTH",
"563 53 OFFCURVE",
"558 61 OFFCURVE",
"555 65 CURVE SMOOTH",
"552 69 OFFCURVE",
"550 73 OFFCURVE",
"550 74 CURVE SMOOTH",
"550 76 OFFCURVE",
"535 109 OFFCURVE",
"525 127 CURVE SMOOTH",
"522 134 OFFCURVE",
"509 160 OFFCURVE",
"497 184 CURVE SMOOTH",
"485 208 OFFCURVE",
"473 232 OFFCURVE",
"470 237 CURVE SMOOTH",
"467 243 OFFCURVE",
"459 259 OFFCURVE",
"451 274 CURVE SMOOTH",
"444 289 OFFCURVE",
"434 307 OFFCURVE",
"429 314 CURVE SMOOTH",
"423 324 OFFCURVE",
"421 328 OFFCURVE",
"421 335 CURVE SMOOTH",
"421 343 OFFCURVE",
"422 344 OFFCURVE",
"447 369 CURVE SMOOTH",
"473 395 OFFCURVE",
"533 452 OFFCURVE",
"546 464 CURVE SMOOTH",
"559 475 OFFCURVE",
"561 483 OFFCURVE",
"552 490 CURVE SMOOTH",
"546 495 LINE",
"471 495 LINE SMOOTH",
"421 495 OFFCURVE",
"395 494 OFFCURVE",
"393 492 CURVE SMOOTH",
"389 490 OFFCURVE",
"375 477 OFFCURVE",
"359 458 CURVE SMOOTH",
"345 442 OFFCURVE",
"322 416 OFFCURVE",
"304 397 CURVE SMOOTH",
"279 370 OFFCURVE",
"272 363 OFFCURVE",
"267 356 CURVE SMOOTH",
"260 346 OFFCURVE",
"233 320 OFFCURVE",
"231 320 CURVE SMOOTH",
"229 320 OFFCURVE",
"227 321 OFFCURVE",
"227 322 CURVE SMOOTH",
"226 324 OFFCURVE",
"225 386 OFFCURVE",
"224 460 CURVE SMOOTH",
"223 612 OFFCURVE",
"223 606 OFFCURVE",
"225 641 CURVE SMOOTH",
"225 655 OFFCURVE",
"225 669 OFFCURVE",
"224 673 CURVE SMOOTH",
"223 677 OFFCURVE",
"222 682 OFFCURVE",
"221 685 CURVE SMOOTH",
"219 695 OFFCURVE",
"211 697 OFFCURVE",
"165 698 CURVE SMOOTH",
"142 698 OFFCURVE",
"113 699 OFFCURVE",
"101 699 CURVE SMOOTH",
"88 699 OFFCURVE",
"72 699 OFFCURVE",
"64 697 CURVE SMOOTH"
);
}
);
width = 560;
}
);
unicode = 006B;
},
{
glyphname = l;
lastChange = "2015-06-02 16:23:54 +0000";
layers = (
{
layerId = "258ED206-D907-4350-8EBA-CBDDA1C16BF7";
name = Regular;
paths = (
{
closed = 1;
nodes = (
"54 697 OFFCURVE",
"50 694 OFFCURVE",
"48 690 CURVE SMOOTH",
"44 684 OFFCURVE",
"44 678 OFFCURVE",
"43 593 CURVE SMOOTH",
"43 543 OFFCURVE",
"43 467 OFFCURVE",
"43 425 CURVE SMOOTH",
"43 382 OFFCURVE",
"43 332 OFFCURVE",
"42 313 CURVE SMOOTH",
"42 293 OFFCURVE",
"43 238 OFFCURVE",
"43 189 CURVE SMOOTH",
"43 137 OFFCURVE",
"42 90 OFFCURVE",
"41 77 CURVE SMOOTH",
"40 64 OFFCURVE",
"39 44 OFFCURVE",
"38 32 CURVE SMOOTH",
"38 11 LINE",
"44 5 LINE",
"50 0 LINE",
"129 0 LINE SMOOTH",
"213 0 OFFCURVE",
"215 0 OFFCURVE",
"224 10 CURVE SMOOTH",
"230 17 OFFCURVE",
"232 31 OFFCURVE",
"231 98 CURVE SMOOTH",
"230 214 OFFCURVE",
"230 262 OFFCURVE",
"231 292 CURVE SMOOTH",
"232 308 OFFCURVE",
"232 333 OFFCURVE",
"232 347 CURVE SMOOTH",
"231 360 OFFCURVE",
"230 382 OFFCURVE",
"230 394 CURVE SMOOTH",
"230 448 OFFCURVE",
"230 456 OFFCURVE",
"231 476 CURVE SMOOTH",
"231 529 OFFCURVE",
"230 599 OFFCURVE",
"228 613 CURVE SMOOTH",
"227 624 OFFCURVE",
"227 631 OFFCURVE",
"228 634 CURVE SMOOTH",
"231 641 OFFCURVE",
"231 683 OFFCURVE",
"228 688 CURVE SMOOTH",
"224 696 OFFCURVE",
"217 697 OFFCURVE",
"187 697 CURVE SMOOTH",
"171 697 OFFCURVE",
"157 698 OFFCURVE",
"156 698 CURVE SMOOTH",
"155 699 OFFCURVE",
"134 700 OFFCURVE",
"110 701 CURVE SMOOTH",
"77 701 OFFCURVE",
"63 701 OFFCURVE",
"58 699 CURVE SMOOTH"
);
}
);
width = 270;
}
);
unicode = 006C;
},
{
glyphname = m;
lastChange = "2015-06-01 23:16:49 +0000";
layers = (
{
layerId = "258ED206-D907-4350-8EBA-CBDDA1C16BF7";
name = Regular;
paths = (
{
closed = 1;
nodes = (
"361 500 OFFCURVE",
"354 496 OFFCURVE",
"348 496 CURVE SMOOTH",
"333 496 OFFCURVE",
"303 485 OFFCURVE",
"287 474 CURVE SMOOTH",
"282 470 OFFCURVE",
"276 467 OFFCURVE",
"274 466 CURVE SMOOTH",
"272 465 OFFCURVE",
"262 458 OFFCURVE",
"253 449 CURVE SMOOTH",
"234 433 OFFCURVE",
"228 429 OFFCURVE",
"223 434 CURVE SMOOTH",
"220 437 OFFCURVE",
"219 456 OFFCURVE",
"221 471 CURVE SMOOTH",
"222 479 OFFCURVE",
"222 482 OFFCURVE",
"219 488 CURVE SMOOTH",
"213 497 OFFCURVE",
"207 499 OFFCURVE",
"194 496 CURVE SMOOTH",
"186 495 OFFCURVE",
"161 495 OFFCURVE",
"118 495 CURVE SMOOTH",
"83 496 OFFCURVE",
"52 495 OFFCURVE",
"49 495 CURVE SMOOTH",
"47 494 OFFCURVE",
"42 490 OFFCURVE",
"40 486 CURVE SMOOTH",
"34 477 LINE",
"35 413 LINE SMOOTH",
"36 208 OFFCURVE",
"35 71 OFFCURVE",
"33 62 CURVE SMOOTH",
"32 57 OFFCURVE",
"32 51 OFFCURVE",
"32 49 CURVE SMOOTH",
"33 46 OFFCURVE",
"34 38 OFFCURVE",
"34 30 CURVE SMOOTH",
"34 13 OFFCURVE",
"37 8 OFFCURVE",
"46 3 CURVE SMOOTH",
"51 0 OFFCURVE",
"59 0 OFFCURVE",
"131 0 CURVE SMOOTH",
"208 0 OFFCURVE",
"211 1 OFFCURVE",
"218 4 CURVE SMOOTH",
"221 7 OFFCURVE",
"225 10 OFFCURVE",
"225 13 CURVE SMOOTH",
"226 15 OFFCURVE",
"226 47 OFFCURVE",
"225 84 CURVE SMOOTH",
"224 121 OFFCURVE",
"223 157 OFFCURVE",
"224 163 CURVE SMOOTH",
"225 218 OFFCURVE",
"224 268 OFFCURVE",
"222 275 CURVE SMOOTH",
"221 280 OFFCURVE",
"221 284 OFFCURVE",
"222 289 CURVE SMOOTH",
"223 293 OFFCURVE",
"224 306 OFFCURVE",
"224 317 CURVE SMOOTH",
"225 339 LINE",
"232 346 LINE SMOOTH",
"256 371 OFFCURVE",
"287 382 OFFCURVE",
"312 373 CURVE SMOOTH",
"323 370 OFFCURVE",
"326 367 OFFCURVE",
"331 360 CURVE SMOOTH",
"345 341 OFFCURVE",
"344 351 OFFCURVE",
"344 205 CURVE SMOOTH",
"343 133 OFFCURVE",
"342 61 OFFCURVE",
"341 46 CURVE SMOOTH",
"340 26 OFFCURVE",
"340 18 OFFCURVE",
"342 13 CURVE SMOOTH",
"347 1 OFFCURVE",
"344 2 OFFCURVE",
"433 2 CURVE SMOOTH",
"486 2 OFFCURVE",
"516 3 OFFCURVE",
"519 4 CURVE SMOOTH",
"530 8 OFFCURVE",
"531 16 OFFCURVE",
"530 56 CURVE SMOOTH",
"529 75 OFFCURVE",
"528 144 OFFCURVE",
"528 209 CURVE SMOOTH",
"528 310 OFFCURVE",
"529 328 OFFCURVE",
"531 334 CURVE SMOOTH",
"535 343 OFFCURVE",
"555 361 OFFCURVE",
"573 370 CURVE SMOOTH",
"588 378 OFFCURVE",
"598 379 OFFCURVE",
"617 375 CURVE SMOOTH",
"625 373 OFFCURVE",
"629 371 OFFCURVE",
"636 363 CURVE SMOOTH",
"642 357 OFFCURVE",
"646 351 OFFCURVE",
"648 345 CURVE SMOOTH",
"651 335 OFFCURVE",
"651 228 OFFCURVE",
"649 108 CURVE SMOOTH",
"648 65 OFFCURVE",
"647 27 OFFCURVE",
"647 23 CURVE SMOOTH",
"647 12 OFFCURVE",
"653 4 OFFCURVE",
"662 4 CURVE SMOOTH",
"665 4 OFFCURVE",
"688 4 OFFCURVE",
"713 4 CURVE SMOOTH",
"818 3 OFFCURVE",
"816 3 OFFCURVE",
"823 8 CURVE SMOOTH",
"827 10 OFFCURVE",
"831 14 OFFCURVE",
"833 17 CURVE SMOOTH",
"836 24 OFFCURVE",
"836 23 OFFCURVE",
"833 104 CURVE SMOOTH",
"832 138 OFFCURVE",
"832 211 OFFCURVE",
"832 266 CURVE SMOOTH",
"833 373 OFFCURVE",
"832 391 OFFCURVE",
"823 408 CURVE SMOOTH",
"821 412 OFFCURVE",
"819 417 OFFCURVE",
"819 418 CURVE SMOOTH",
"819 423 OFFCURVE",
"804 447 OFFCURVE",
"792 459 CURVE SMOOTH",
"778 474 OFFCURVE",
"762 484 OFFCURVE",
"741 491 CURVE SMOOTH",
"715 499 OFFCURVE",
"711 500 OFFCURVE",
"692 499 CURVE SMOOTH",
"661 497 OFFCURVE",
"653 496 OFFCURVE",
"634 491 CURVE SMOOTH",
"615 487 OFFCURVE",
"603 480 OFFCURVE",
"575 459 CURVE SMOOTH",
"570 456 OFFCURVE",
"565 453 OFFCURVE",
"564 452 CURVE SMOOTH",
"562 451 OFFCURVE",
"554 444 OFFCURVE",
"545 436 CURVE SMOOTH",
"530 421 OFFCURVE",
"520 415 OFFCURVE",
"514 417 CURVE SMOOTH",
"513 418 OFFCURVE",
"510 421 OFFCURVE",
"508 425 CURVE SMOOTH",
"502 439 OFFCURVE",
"491 453 OFFCURVE",
"479 464 CURVE SMOOTH",
"458 483 OFFCURVE",
"416 500 OFFCURVE",
"389 500 CURVE SMOOTH",
"380 500 OFFCURVE",
"374 501 OFFCURVE",
"372 503 CURVE SMOOTH",
"367 506 OFFCURVE",
"361 507 OFFCURVE",
"361 504 CURVE SMOOTH"
);
}
);
width = 860;
}
);
unicode = 006D;
},
{
glyphname = n;
lastChange = "2015-06-01 23:02:27 +0000";
layers = (
{
background = {
paths = (
{
closed = 1;
nodes = (
"362 503 OFFCURVE",
"356 501 OFFCURVE",
"351 501 CURVE SMOOTH",
"334 499 OFFCURVE",
"316 493 OFFCURVE",
"307 488 CURVE SMOOTH",
"302 485 OFFCURVE",
"297 482 OFFCURVE",
"295 482 CURVE SMOOTH",
"293 482 OFFCURVE",
"287 478 OFFCURVE",
"281 474 CURVE SMOOTH",
"276 469 OFFCURVE",
"266 462 OFFCURVE",
"260 458 CURVE SMOOTH",
"253 454 OFFCURVE",
"246 448 OFFCURVE",
"243 444 CURVE SMOOTH",
"234 433 OFFCURVE",
"222 428 OFFCURVE",
"217 434 CURVE SMOOTH",
"215 437 OFFCURVE",
"215 439 OFFCURVE",
"217 447 CURVE SMOOTH",
"220 459 OFFCURVE",
"221 476 OFFCURVE",
"219 487 CURVE SMOOTH",
"218 492 OFFCURVE",
"216 495 OFFCURVE",
"212 496 CURVE SMOOTH",
"207 498 OFFCURVE",
"144 500 OFFCURVE",
"69 500 CURVE SMOOTH",
"47 501 OFFCURVE",
"44 500 OFFCURVE",
"38 496 CURVE SMOOTH",
"33 493 OFFCURVE",
"32 490 OFFCURVE",
"31 481 CURVE SMOOTH",
"30 475 OFFCURVE",
"30 464 OFFCURVE",
"31 456 CURVE SMOOTH",
"32 448 OFFCURVE",
"33 435 OFFCURVE",
"33 426 CURVE SMOOTH",
"33 402 OFFCURVE",
"30 127 OFFCURVE",
"30 121 CURVE SMOOTH",
"29 79 OFFCURVE",
"30 29 OFFCURVE",
"32 20 CURVE SMOOTH",
"34 11 OFFCURVE",
"41 5 OFFCURVE",
"50 3 CURVE SMOOTH",
"54 2 OFFCURVE",
"69 2 OFFCURVE",
"85 3 CURVE SMOOTH",
"100 3 OFFCURVE",
"113 4 OFFCURVE",
"114 3 CURVE SMOOTH",
"115 3 OFFCURVE",
"138 2 OFFCURVE",
"165 2 CURVE SMOOTH",
"219 2 OFFCURVE",
"218 2 OFFCURVE",
"221 14 CURVE SMOOTH",
"222 18 OFFCURVE",
"222 33 OFFCURVE",
"221 47 CURVE SMOOTH",
"220 62 OFFCURVE",
"219 104 OFFCURVE",
"220 141 CURVE SMOOTH",
"220 178 OFFCURVE",
"220 236 OFFCURVE",
"220 270 CURVE SMOOTH",
"219 326 OFFCURVE",
"219 331 OFFCURVE",
"223 337 CURVE SMOOTH",
"228 347 OFFCURVE",
"247 362 OFFCURVE",
"264 371 CURVE SMOOTH",
"279 378 OFFCURVE",
"283 379 OFFCURVE",
"294 379 CURVE SMOOTH",
"304 380 OFFCURVE",
"308 379 OFFCURVE",
"317 374 CURVE SMOOTH",
"328 367 OFFCURVE",
"330 365 OFFCURVE",
"338 349 CURVE SMOOTH",
"343 339 LINE",
"343 259 LINE SMOOTH",
"342 165 OFFCURVE",
"340 82 OFFCURVE",
"338 53 CURVE SMOOTH",
"337 29 OFFCURVE",
"337 11 OFFCURVE",
"340 7 CURVE SMOOTH",
"345 2 OFFCURVE",
"355 0 OFFCURVE",
"385 1 CURVE SMOOTH",
"402 2 OFFCURVE",
"436 1 OFFCURVE",
"461 0 CURVE SMOOTH",
"486 0 OFFCURVE",
"510 0 OFFCURVE",
"513 1 CURVE SMOOTH",
"517 2 OFFCURVE",
"521 5 OFFCURVE",
"524 10 CURVE SMOOTH",
"529 17 LINE",
"528 76 LINE SMOOTH",
"527 108 OFFCURVE",
"526 163 OFFCURVE",
"527 199 CURVE SMOOTH",
"528 292 OFFCURVE",
"527 350 OFFCURVE",
"525 371 CURVE SMOOTH",
"523 396 OFFCURVE",
"516 423 OFFCURVE",
"508 437 CURVE SMOOTH",
"500 451 OFFCURVE",
"475 476 OFFCURVE",
"461 482 CURVE SMOOTH",
"439 494 OFFCURVE",
"416 501 OFFCURVE",
"400 503 CURVE SMOOTH",
"391 503 OFFCURVE",
"380 504 OFFCURVE",
"375 505 CURVE SMOOTH",
"370 505 OFFCURVE",
"365 505 OFFCURVE",
"364 504 CURVE SMOOTH"
);
}
);
};
layerId = "258ED206-D907-4350-8EBA-CBDDA1C16BF7";
name = Regular;
paths = (
{
closed = 1;
nodes = (
"362 503 OFFCURVE",
"356 501 OFFCURVE",
"351 501 CURVE SMOOTH",
"334 499 OFFCURVE",
"316 493 OFFCURVE",
"307 488 CURVE SMOOTH",
"302 485 OFFCURVE",
"297 482 OFFCURVE",
"295 482 CURVE SMOOTH",
"293 482 OFFCURVE",
"287 478 OFFCURVE",
"281 474 CURVE SMOOTH",
"276 469 OFFCURVE",
"266 462 OFFCURVE",
"260 458 CURVE SMOOTH",
"253 454 OFFCURVE",
"246 448 OFFCURVE",
"243 444 CURVE SMOOTH",
"237 436 OFFCURVE",
"229 431 OFFCURVE",
"223 431 CURVE SMOOTH",
"221 431 OFFCURVE",
"218 432 OFFCURVE",
"217 434 CURVE SMOOTH",
"215 437 OFFCURVE",
"215 439 OFFCURVE",
"217 447 CURVE SMOOTH",
"219 455 OFFCURVE",
"220 465 OFFCURVE",
"220 474 CURVE SMOOTH",
"220 478 OFFCURVE",
"220 483 OFFCURVE",
"219 487 CURVE SMOOTH",
"218 492 OFFCURVE",
"216 495 OFFCURVE",
"212 496 CURVE SMOOTH",
"207 498 OFFCURVE",
"137 500 OFFCURVE",
"56 500 CURVE SMOOTH",
"45 500 OFFCURVE",
"43 499 OFFCURVE",
"38 496 CURVE SMOOTH",
"33 493 OFFCURVE",
"32 490 OFFCURVE",
"31 481 CURVE SMOOTH",
"31 478 OFFCURVE",
"30 474 OFFCURVE",
"30 469 CURVE SMOOTH",
"30 465 OFFCURVE",
"31 460 OFFCURVE",
"31 456 CURVE SMOOTH",
"32 448 OFFCURVE",
"33 435 OFFCURVE",
"33 426 CURVE SMOOTH",
"33 402 OFFCURVE",
"30 127 OFFCURVE",
"30 121 CURVE SMOOTH",
"30 110 OFFCURVE",
"30 98 OFFCURVE",
"30 86 CURVE SMOOTH",
"30 55 OFFCURVE",
"31 27 OFFCURVE",
"32 20 CURVE SMOOTH",
"34 11 OFFCURVE",
"41 5 OFFCURVE",
"50 3 CURVE SMOOTH",
"52 3 OFFCURVE",
"57 2 OFFCURVE",
"63 2 CURVE SMOOTH",
"69 2 OFFCURVE",
"77 3 OFFCURVE",
"85 3 CURVE SMOOTH",
"100 3 OFFCURVE",
"113 4 OFFCURVE",
"114 3 CURVE SMOOTH",
"115 3 OFFCURVE",
"138 2 OFFCURVE",
"165 2 CURVE SMOOTH",
"219 2 OFFCURVE",
"218 2 OFFCURVE",
"221 14 CURVE SMOOTH",
"222 16 OFFCURVE",
"222 21 OFFCURVE",
"222 27 CURVE SMOOTH",
"222 33 OFFCURVE",
"222 40 OFFCURVE",
"221 47 CURVE SMOOTH",
"220 58 OFFCURVE",
"220 82 OFFCURVE",
"220 108 CURVE SMOOTH",
"220 119 OFFCURVE",
"220 130 OFFCURVE",
"220 141 CURVE SMOOTH",
"220 178 OFFCURVE",
"220 236 OFFCURVE",
"220 270 CURVE SMOOTH",
"220 289 OFFCURVE",
"219 302 OFFCURVE",
"219 311 CURVE SMOOTH",
"219 329 OFFCURVE",
"220 333 OFFCURVE",
"223 337 CURVE SMOOTH",
"228 347 OFFCURVE",
"247 362 OFFCURVE",
"264 371 CURVE SMOOTH",
"281 379 OFFCURVE",
"284 379 OFFCURVE",
"300 379 CURVE SMOOTH",
"306 379 OFFCURVE",
"310 378 OFFCURVE",
"317 374 CURVE SMOOTH",
"328 367 OFFCURVE",
"330 365 OFFCURVE",
"338 349 CURVE SMOOTH",
"343 339 LINE",
"343 259 LINE SMOOTH",
"342 165 OFFCURVE",
"340 82 OFFCURVE",
"338 53 CURVE SMOOTH",
"337 29 OFFCURVE",
"337 11 OFFCURVE",
"340 7 CURVE SMOOTH",
"345 2 OFFCURVE",
"355 0 OFFCURVE",
"385 1 CURVE SMOOTH",
"402 2 OFFCURVE",
"436 1 OFFCURVE",
"461 0 CURVE SMOOTH",
"486 0 OFFCURVE",
"510 0 OFFCURVE",
"513 1 CURVE SMOOTH",
"517 2 OFFCURVE",
"521 5 OFFCURVE",
"524 10 CURVE SMOOTH",
"529 17 LINE",
"528 76 LINE SMOOTH",
"527 99 OFFCURVE",
"527 133 OFFCURVE",
"527 164 CURVE SMOOTH",
"527 176 OFFCURVE",
"527 188 OFFCURVE",
"527 199 CURVE SMOOTH",
"527 224 OFFCURVE",
"527 246 OFFCURVE",
"527 266 CURVE SMOOTH",
"527 320 OFFCURVE",
"526 356 OFFCURVE",
"525 371 CURVE SMOOTH",
"523 396 OFFCURVE",
"516 423 OFFCURVE",
"508 437 CURVE SMOOTH",
"500 451 OFFCURVE",
"475 476 OFFCURVE",
"461 482 CURVE SMOOTH",
"439 494 OFFCURVE",
"416 501 OFFCURVE",
"400 503 CURVE SMOOTH",
"391 503 OFFCURVE",
"380 504 OFFCURVE",
"375 505 CURVE SMOOTH",
"370 505 OFFCURVE",
"365 505 OFFCURVE",
"364 504 CURVE SMOOTH"
);
}
);
width = 560;
}
);
unicode = 006E;
},
{
glyphname = o;
lastChange = "2015-06-01 23:02:24 +0000";
layers = (
{
background = {
paths = (
{
closed = 1;
nodes = (
"223 502 OFFCURVE",
"208 500 OFFCURVE",
"204 499 CURVE SMOOTH",
"194 497 OFFCURVE",
"172 488 OFFCURVE",
"168 486 CURVE SMOOTH",
"166 484 OFFCURVE",
"162 483 OFFCURVE",
"160 483 CURVE SMOOTH",
"157 483 OFFCURVE",
"150 479 OFFCURVE",
"144 475 CURVE SMOOTH",
"138 471 OFFCURVE",
"132 467 OFFCURVE",
"131 467 CURVE SMOOTH",
"124 467 OFFCURVE",
"78 424 OFFCURVE",
"65 405 CURVE SMOOTH",
"61 400 OFFCURVE",
"56 393 OFFCURVE",
"53 390 CURVE SMOOTH",
"50 386 OFFCURVE",
"47 380 OFFCURVE",
"47 377 CURVE SMOOTH",
"46 373 OFFCURVE",
"42 366 OFFCURVE",
"38 361 CURVE SMOOTH",
"24 342 OFFCURVE",
"16 304 OFFCURVE",
"16 256 CURVE SMOOTH",
"16 228 OFFCURVE",
"18 210 OFFCURVE",
"24 176 CURVE SMOOTH",
"27 163 OFFCURVE",
"40 132 OFFCURVE",
"47 121 CURVE SMOOTH",
"50 117 OFFCURVE",
"55 108 OFFCURVE",
"59 101 CURVE SMOOTH",
"69 83 OFFCURVE",
"110 43 OFFCURVE",
"134 28 CURVE SMOOTH",
"140 24 OFFCURVE",
"173 9 OFFCURVE",
"176 9 CURVE SMOOTH",
"177 9 OFFCURVE",
"182 7 OFFCURVE",
"186 5 CURVE SMOOTH",
"201 -3 OFFCURVE",
"248 -9 OFFCURVE",
"288 -8 CURVE SMOOTH",
"309 -7 OFFCURVE",
"316 -6 OFFCURVE",
"347 1 CURVE SMOOTH",
"355 3 OFFCURVE",
"368 6 OFFCURVE",
"374 8 CURVE SMOOTH",
"387 11 OFFCURVE",
"389 11 OFFCURVE",
"418 26 CURVE SMOOTH",
"440 37 OFFCURVE",
"449 44 OFFCURVE",
"468 61 CURVE SMOOTH",
"484 77 OFFCURVE",
"521 128 OFFCURVE",
"521 135 CURVE SMOOTH",
"521 136 OFFCURVE",
"524 141 OFFCURVE",
"526 147 CURVE SMOOTH",
"533 159 OFFCURVE",
"540 187 OFFCURVE",
"543 209 CURVE SMOOTH",
"546 232 OFFCURVE",
"546 281 OFFCURVE",
"543 292 CURVE SMOOTH",
"540 303 OFFCURVE",
"535 322 OFFCURVE",
"533 333 CURVE SMOOTH",
"532 339 OFFCURVE",
"527 350 OFFCURVE",
"523 358 CURVE SMOOTH",
"518 366 OFFCURVE",
"513 375 OFFCURVE",
"513 377 CURVE SMOOTH",
"510 384 OFFCURVE",
"494 414 OFFCURVE",
"489 422 CURVE SMOOTH",
"486 425 OFFCURVE",
"480 431 OFFCURVE",
"475 435 CURVE SMOOTH",
"470 439 OFFCURVE",
"461 445 OFFCURVE",
"456 450 CURVE SMOOTH",
"442 461 OFFCURVE",
"412 481 OFFCURVE",
"403 484 CURVE SMOOTH",
"398 485 OFFCURVE",
"392 488 OFFCURVE",
"389 490 CURVE SMOOTH",
"385 492 OFFCURVE",
"378 495 OFFCURVE",
"374 496 CURVE SMOOTH",
"370 496 OFFCURVE",
"364 498 OFFCURVE",
"361 499 CURVE SMOOTH",
"353 503 OFFCURVE",
"313 508 OFFCURVE",
"290 508 CURVE SMOOTH",
"278 507 OFFCURVE",
"256 506 OFFCURVE",
"240 504 CURVE SMOOTH"
);
},
{
closed = 1;
nodes = (
"324 379 OFFCURVE",
"338 364 OFFCURVE",
"338 360 CURVE SMOOTH",
"338 359 OFFCURVE",
"340 356 OFFCURVE",
"342 354 CURVE SMOOTH",
"348 345 OFFCURVE",
"354 311 OFFCURVE",
"355 277 CURVE SMOOTH",
"355 222 OFFCURVE",
"350 164 OFFCURVE",
"343 148 CURVE SMOOTH",
"338 138 OFFCURVE",
"321 121 OFFCURVE",
"313 116 CURVE SMOOTH",
"297 108 OFFCURVE",
"266 108 OFFCURVE",
"251 115 CURVE SMOOTH",
"242 120 OFFCURVE",
"227 137 OFFCURVE",
"221 148 CURVE SMOOTH",
"213 166 OFFCURVE",
"211 179 OFFCURVE",
"210 236 CURVE SMOOTH",
"208 298 OFFCURVE",
"211 329 OFFCURVE",
"219 347 CURVE SMOOTH",
"220 349 OFFCURVE",
"222 354 OFFCURVE",
"224 358 CURVE SMOOTH",
"227 367 OFFCURVE",
"237 378 OFFCURVE",
"249 386 CURVE SMOOTH",
"259 393 LINE",
"281 393 LINE SMOOTH",
"303 392 OFFCURVE",
"304 392 OFFCURVE",
"314 385 CURVE SMOOTH"
);
}
);
};
layerId = "258ED206-D907-4350-8EBA-CBDDA1C16BF7";
name = Regular;
paths = (
{
closed = 1;
nodes = (
"223 502 OFFCURVE",
"208 500 OFFCURVE",
"204 499 CURVE SMOOTH",
"194 497 OFFCURVE",
"172 488 OFFCURVE",
"168 486 CURVE SMOOTH",
"166 484 OFFCURVE",
"162 483 OFFCURVE",
"160 483 CURVE SMOOTH",
"157 483 OFFCURVE",
"150 479 OFFCURVE",
"144 475 CURVE SMOOTH",
"138 471 OFFCURVE",
"132 467 OFFCURVE",
"131 467 CURVE SMOOTH",
"124 467 OFFCURVE",
"78 424 OFFCURVE",
"65 405 CURVE SMOOTH",
"61 400 OFFCURVE",
"56 393 OFFCURVE",
"53 390 CURVE SMOOTH",
"50 386 OFFCURVE",
"47 380 OFFCURVE",
"47 377 CURVE SMOOTH",
"46 373 OFFCURVE",
"42 366 OFFCURVE",
"38 361 CURVE SMOOTH",
"24 342 OFFCURVE",
"16 304 OFFCURVE",
"16 256 CURVE SMOOTH",
"16 228 OFFCURVE",
"18 210 OFFCURVE",
"24 176 CURVE SMOOTH",
"27 163 OFFCURVE",
"40 132 OFFCURVE",
"47 121 CURVE SMOOTH",
"50 117 OFFCURVE",
"55 108 OFFCURVE",
"59 101 CURVE SMOOTH",
"69 83 OFFCURVE",
"110 43 OFFCURVE",
"134 28 CURVE SMOOTH",
"140 24 OFFCURVE",
"173 9 OFFCURVE",
"176 9 CURVE SMOOTH",
"177 9 OFFCURVE",
"182 7 OFFCURVE",
"186 5 CURVE SMOOTH",
"200 -2 OFFCURVE",
"241 -8 OFFCURVE",
"279 -8 CURVE SMOOTH",
"308 -8 OFFCURVE",
"312 -7 OFFCURVE",
"347 1 CURVE SMOOTH",
"355 3 OFFCURVE",
"368 6 OFFCURVE",
"374 8 CURVE SMOOTH",
"387 11 OFFCURVE",
"389 11 OFFCURVE",
"418 26 CURVE SMOOTH",
"440 37 OFFCURVE",
"449 44 OFFCURVE",
"468 61 CURVE SMOOTH",
"484 77 OFFCURVE",
"521 128 OFFCURVE",
"521 135 CURVE SMOOTH",
"521 136 OFFCURVE",
"524 141 OFFCURVE",
"526 147 CURVE SMOOTH",
"533 159 OFFCURVE",
"540 187 OFFCURVE",
"543 209 CURVE SMOOTH",
"545 221 OFFCURVE",
"545 239 OFFCURVE",
"545 255 CURVE SMOOTH",
"545 272 OFFCURVE",
"545 287 OFFCURVE",
"543 292 CURVE SMOOTH",
"540 303 OFFCURVE",
"535 322 OFFCURVE",
"533 333 CURVE SMOOTH",
"532 339 OFFCURVE",
"527 350 OFFCURVE",
"523 358 CURVE SMOOTH",
"518 366 OFFCURVE",
"513 375 OFFCURVE",
"513 377 CURVE SMOOTH",
"510 384 OFFCURVE",
"494 414 OFFCURVE",
"489 422 CURVE SMOOTH",
"486 425 OFFCURVE",
"480 431 OFFCURVE",
"475 435 CURVE SMOOTH",
"470 439 OFFCURVE",
"461 445 OFFCURVE",
"456 450 CURVE SMOOTH",
"442 461 OFFCURVE",
"412 481 OFFCURVE",
"403 484 CURVE SMOOTH",
"398 485 OFFCURVE",
"392 488 OFFCURVE",
"389 490 CURVE SMOOTH",
"385 492 OFFCURVE",
"378 495 OFFCURVE",
"374 496 CURVE SMOOTH",
"370 496 OFFCURVE",
"364 498 OFFCURVE",
"361 499 CURVE SMOOTH",
"353 503 OFFCURVE",
"313 508 OFFCURVE",
"290 508 CURVE SMOOTH",
"278 507 OFFCURVE",
"256 506 OFFCURVE",
"240 504 CURVE SMOOTH"
);
},
{
closed = 1;
nodes = (
"324 379 OFFCURVE",
"338 364 OFFCURVE",
"338 360 CURVE SMOOTH",
"338 359 OFFCURVE",
"340 356 OFFCURVE",
"342 354 CURVE SMOOTH",
"348 345 OFFCURVE",
"354 311 OFFCURVE",
"355 277 CURVE SMOOTH",
"355 222 OFFCURVE",
"350 164 OFFCURVE",
"343 148 CURVE SMOOTH",
"338 138 OFFCURVE",
"321 121 OFFCURVE",
"313 116 CURVE SMOOTH",
"305 112 OFFCURVE",
"292 110 OFFCURVE",
"280 110 CURVE SMOOTH",
"269 110 OFFCURVE",
"258 112 OFFCURVE",
"251 115 CURVE SMOOTH",
"242 120 OFFCURVE",
"227 137 OFFCURVE",
"221 148 CURVE SMOOTH",
"213 166 OFFCURVE",
"211 179 OFFCURVE",
"210 236 CURVE SMOOTH",
"210 248 OFFCURVE",
"209 260 OFFCURVE",
"209 270 CURVE SMOOTH",
"209 310 OFFCURVE",
"213 333 OFFCURVE",
"219 347 CURVE SMOOTH",
"220 349 OFFCURVE",
"222 354 OFFCURVE",
"224 358 CURVE SMOOTH",
"227 367 OFFCURVE",
"237 378 OFFCURVE",
"249 386 CURVE SMOOTH",
"259 393 LINE",
"281 393 LINE SMOOTH",
"303 392 OFFCURVE",
"304 392 OFFCURVE",
"314 385 CURVE SMOOTH"
);
}
);
width = 560;
}
);
unicode = 006F;
},
{
glyphname = p;
lastChange = "2015-06-01 23:17:01 +0000";
layers = (
{
layerId = "258ED206-D907-4350-8EBA-CBDDA1C16BF7";
name = Regular;
paths = (
{
closed = 1;
nodes = (
"348 503 OFFCURVE",
"339 502 OFFCURVE",
"329 501 CURVE SMOOTH",
"316 499 OFFCURVE",
"307 497 OFFCURVE",
"295 491 CURVE SMOOTH",
"272 481 OFFCURVE",
"256 473 OFFCURVE",
"253 470 CURVE SMOOTH",
"248 463 OFFCURVE",
"230 451 OFFCURVE",
"225 452 CURVE SMOOTH",
"221 452 OFFCURVE",
"221 453 OFFCURVE",
"220 470 CURVE SMOOTH",
"220 501 OFFCURVE",
"220 501 OFFCURVE",
"124 500 CURVE SMOOTH",
"49 499 OFFCURVE",
"48 499 OFFCURVE",
"42 488 CURVE SMOOTH",
"39 483 OFFCURVE",
"36 426 OFFCURVE",
"36 358 CURVE SMOOTH",
"37 263 OFFCURVE",
"38 26 OFFCURVE",
"38 21 CURVE SMOOTH",
"38 18 OFFCURVE",
"38 6 OFFCURVE",
"37 -7 CURVE SMOOTH",
"35 -44 OFFCURVE",
"36 -134 OFFCURVE",
"38 -140 CURVE SMOOTH",
"44 -155 OFFCURVE",
"51 -157 OFFCURVE",
"100 -157 CURVE SMOOTH",
"203 -156 OFFCURVE",
"204 -156 OFFCURVE",
"211 -151 CURVE SMOOTH",
"215 -149 OFFCURVE",
"218 -145 OFFCURVE",
"219 -142 CURVE SMOOTH",
"220 -140 OFFCURVE",
"220 -121 OFFCURVE",
"220 -99 CURVE SMOOTH",
"219 -77 OFFCURVE",
"218 -57 OFFCURVE",
"219 -54 CURVE SMOOTH",
"219 -51 OFFCURVE",
"220 -28 OFFCURVE",
"220 -2 CURVE SMOOTH",
"220 30 OFFCURVE",
"221 45 OFFCURVE",
"222 47 CURVE SMOOTH",
"224 50 OFFCURVE",
"227 49 OFFCURVE",
"242 37 CURVE SMOOTH",
"251 30 OFFCURVE",
"259 24 OFFCURVE",
"260 24 CURVE SMOOTH",
"261 24 OFFCURVE",
"267 21 OFFCURVE",
"273 18 CURVE SMOOTH",
"297 3 OFFCURVE",
"330 -5 OFFCURVE",
"359 -5 CURVE SMOOTH",
"381 -4 OFFCURVE",
"395 -2 OFFCURVE",
"418 5 CURVE SMOOTH",
"451 16 OFFCURVE",
"460 22 OFFCURVE",
"488 50 CURVE SMOOTH",
"509 70 OFFCURVE",
"520 85 OFFCURVE",
"526 99 CURVE SMOOTH",
"528 104 OFFCURVE",
"531 111 OFFCURVE",
"532 114 CURVE SMOOTH",
"537 123 OFFCURVE",
"546 158 OFFCURVE",
"550 179 CURVE SMOOTH",
"554 208 OFFCURVE",
"554 298 OFFCURVE",
"549 307 CURVE SMOOTH",
"548 309 OFFCURVE",
"547 317 OFFCURVE",
"547 325 CURVE SMOOTH",
"547 353 OFFCURVE",
"535 391 OFFCURVE",
"517 419 CURVE SMOOTH",
"511 429 OFFCURVE",
"496 444 OFFCURVE",
"469 470 CURVE SMOOTH",
"456 482 OFFCURVE",
"426 495 OFFCURVE",
"399 501 CURVE SMOOTH",
"382 505 OFFCURVE",
"354 507 OFFCURVE",
"350 504 CURVE SMOOTH"
);
},
{
closed = 1;
nodes = (
"322 393 OFFCURVE",
"338 380 OFFCURVE",
"348 360 CURVE SMOOTH",
"353 350 OFFCURVE",
"356 340 OFFCURVE",
"358 331 CURVE SMOOTH",
"360 314 OFFCURVE",
"364 256 OFFCURVE",
"363 250 CURVE SMOOTH",
"362 248 OFFCURVE",
"361 234 OFFCURVE",
"361 219 CURVE SMOOTH",
"360 205 OFFCURVE",
"360 191 OFFCURVE",
"359 187 CURVE SMOOTH",
"358 184 OFFCURVE",
"357 178 OFFCURVE",
"357 173 CURVE SMOOTH",
"354 156 OFFCURVE",
"350 145 OFFCURVE",
"341 131 CURVE SMOOTH",
"336 123 OFFCURVE",
"329 116 OFFCURVE",
"325 114 CURVE SMOOTH",
"316 109 OFFCURVE",
"295 100 OFFCURVE",
"292 100 CURVE SMOOTH",
"290 100 OFFCURVE",
"280 103 OFFCURVE",
"270 107 CURVE SMOOTH",
"243 117 OFFCURVE",
"218 137 OFFCURVE",
"220 146 CURVE SMOOTH",
"221 149 OFFCURVE",
"222 196 OFFCURVE",
"222 252 CURVE SMOOTH",
"223 308 OFFCURVE",
"224 356 OFFCURVE",
"225 358 CURVE SMOOTH",
"228 370 OFFCURVE",
"247 386 OFFCURVE",
"266 392 CURVE SMOOTH",
"279 397 OFFCURVE",
"290 398 OFFCURVE",
"306 395 CURVE SMOOTH"
);
}
);
width = 580;
}
);
unicode = 0070;
},
{
glyphname = q;
lastChange = "2015-06-01 23:17:05 +0000";
layers = (
{
layerId = "258ED206-D907-4350-8EBA-CBDDA1C16BF7";
name = Regular;
paths = (
{
closed = 1;
nodes = (
"197 499 OFFCURVE",
"179 495 OFFCURVE",
"157 484 CURVE SMOOTH",
"113 462 OFFCURVE",
"92 444 OFFCURVE",
"71 410 CURVE SMOOTH",
"69 407 OFFCURVE",
"66 402 OFFCURVE",
"63 398 CURVE SMOOTH",
"59 392 OFFCURVE",
"46 363 OFFCURVE",
"40 342 CURVE SMOOTH",
"33 323 OFFCURVE",
"28 250 OFFCURVE",
"29 207 CURVE SMOOTH",
"31 155 OFFCURVE",
"37 133 OFFCURVE",
"63 83 CURVE SMOOTH",
"73 65 OFFCURVE",
"92 43 OFFCURVE",
"109 30 CURVE SMOOTH",
"115 25 OFFCURVE",
"121 21 OFFCURVE",
"121 21 CURVE SMOOTH",
"121 21 OFFCURVE",
"130 17 OFFCURVE",
"139 11 CURVE SMOOTH",
"150 5 OFFCURVE",
"160 1 OFFCURVE",
"167 -1 CURVE SMOOTH",
"173 -2 OFFCURVE",
"182 -4 OFFCURVE",
"188 -6 CURVE SMOOTH",
"195 -8 OFFCURVE",
"204 -9 OFFCURVE",
"222 -9 CURVE SMOOTH",
"243 -9 OFFCURVE",
"249 -8 OFFCURVE",
"267 -3 CURVE SMOOTH",
"294 5 OFFCURVE",
"305 11 OFFCURVE",
"345 37 CURVE SMOOTH",
"358 46 OFFCURVE",
"359 45 OFFCURVE",
"360 9 CURVE SMOOTH",
"360 -7 OFFCURVE",
"361 -25 OFFCURVE",
"361 -31 CURVE SMOOTH",
"361 -49 OFFCURVE",
"358 -128 OFFCURVE",
"357 -135 CURVE SMOOTH",
"356 -145 OFFCURVE",
"361 -154 OFFCURVE",
"372 -156 CURVE SMOOTH",
"383 -159 OFFCURVE",
"529 -158 OFFCURVE",
"536 -155 CURVE SMOOTH",
"547 -149 OFFCURVE",
"547 -148 OFFCURVE",
"548 -64 CURVE SMOOTH",
"548 -22 OFFCURVE",
"548 19 OFFCURVE",
"548 28 CURVE SMOOTH",
"548 37 OFFCURVE",
"548 46 OFFCURVE",
"548 49 CURVE SMOOTH",
"548 53 OFFCURVE",
"548 109 OFFCURVE",
"548 175 CURVE SMOOTH",
"548 345 OFFCURVE",
"549 447 OFFCURVE",
"551 460 CURVE SMOOTH",
"552 469 OFFCURVE",
"552 475 OFFCURVE",
"548 490 CURVE SMOOTH",
"548 492 OFFCURVE",
"545 496 OFFCURVE",
"541 498 CURVE SMOOTH",
"536 501 OFFCURVE",
"532 501 OFFCURVE",
"488 500 CURVE SMOOTH",
"438 498 OFFCURVE",
"431 497 OFFCURVE",
"426 489 CURVE SMOOTH",
"424 486 OFFCURVE",
"421 477 OFFCURVE",
"419 469 CURVE SMOOTH",
"410 435 OFFCURVE",
"407 427 OFFCURVE",
"403 427 CURVE SMOOTH",
"402 427 OFFCURVE",
"394 433 OFFCURVE",
"387 440 CURVE SMOOTH",
"360 466 OFFCURVE",
"336 480 OFFCURVE",
"304 491 CURVE SMOOTH",
"284 498 OFFCURVE",
"276 499 OFFCURVE",
"257 501 CURVE SMOOTH",
"254 502 OFFCURVE",
"241 501 OFFCURVE",
"228 501 CURVE SMOOTH"
);
},
{
closed = 1;
nodes = (
"327 397 OFFCURVE",
"338 389 OFFCURVE",
"346 375 CURVE SMOOTH",
"361 352 OFFCURVE",
"361 353 OFFCURVE",
"361 238 CURVE SMOOTH",
"360 171 OFFCURVE",
"360 135 OFFCURVE",
"358 132 CURVE SMOOTH",
"355 126 OFFCURVE",
"324 109 OFFCURVE",
"311 107 CURVE SMOOTH",
"308 107 OFFCURVE",
"303 105 OFFCURVE",
"302 104 CURVE SMOOTH",
"298 101 OFFCURVE",
"276 104 OFFCURVE",
"267 109 CURVE SMOOTH",
"248 119 OFFCURVE",
"235 137 OFFCURVE",
"231 162 CURVE SMOOTH",
"223 200 OFFCURVE",
"223 204 OFFCURVE",
"224 257 CURVE SMOOTH",
"225 314 OFFCURVE",
"228 333 OFFCURVE",
"235 353 CURVE SMOOTH",
"240 364 OFFCURVE",
"252 384 OFFCURVE",
"256 386 CURVE SMOOTH",
"257 386 OFFCURVE",
"259 388 OFFCURVE",
"260 389 CURVE SMOOTH",
"273 402 OFFCURVE",
"290 405 OFFCURVE",
"315 400 CURVE SMOOTH"
);
}
);
width = 580;
}
);
unicode = 0071;
},
{
glyphname = r;
lastChange = "2015-06-01 23:08:39 +0000";
layers = (
{
layerId = "258ED206-D907-4350-8EBA-CBDDA1C16BF7";
name = Regular;
paths = (
{
closed = 1;
nodes = (
"360 505 OFFCURVE",
"354 503 OFFCURVE",
"350 502 CURVE SMOOTH",
"335 500 OFFCURVE",
"288 480 OFFCURVE",
"278 472 CURVE SMOOTH",
"273 468 OFFCURVE",
"267 464 OFFCURVE",
"264 462 CURVE SMOOTH",
"256 458 OFFCURVE",
"231 433 OFFCURVE",
"227 426 CURVE SMOOTH",
"225 421 OFFCURVE",
"223 420 OFFCURVE",
"219 420 CURVE SMOOTH",
"212 420 OFFCURVE",
"212 421 OFFCURVE",
"212 469 CURVE SMOOTH",
"212 492 OFFCURVE",
"211 500 OFFCURVE",
"206 503 CURVE SMOOTH",
"204 505 OFFCURVE",
"62 504 OFFCURVE",
"55 502 CURVE SMOOTH",
"45 500 OFFCURVE",
"32 492 OFFCURVE",
"30 487 CURVE SMOOTH",
"28 484 OFFCURVE",
"28 464 OFFCURVE",
"28 418 CURVE SMOOTH",
"29 383 OFFCURVE",
"29 293 OFFCURVE",
"29 219 CURVE SMOOTH",
"28 13 OFFCURVE",
"28 20 OFFCURVE",
"38 10 CURVE SMOOTH",
"49 0 OFFCURVE",
"53 0 OFFCURVE",
"147 0 CURVE SMOOTH",
"203 0 OFFCURVE",
"203 0 OFFCURVE",
"210 5 CURVE SMOOTH",
"222 13 OFFCURVE",
"223 16 OFFCURVE",
"221 66 CURVE SMOOTH",
"220 91 OFFCURVE",
"219 114 OFFCURVE",
"220 119 CURVE SMOOTH",
"221 124 OFFCURVE",
"221 153 OFFCURVE",
"220 185 CURVE SMOOTH",
"217 300 OFFCURVE",
"218 304 OFFCURVE",
"232 318 CURVE SMOOTH",
"242 328 OFFCURVE",
"248 332 OFFCURVE",
"267 340 CURVE SMOOTH",
"277 345 OFFCURVE",
"283 346 OFFCURVE",
"297 346 CURVE SMOOTH",
"317 347 OFFCURVE",
"341 344 OFFCURVE",
"357 340 CURVE SMOOTH",
"380 334 OFFCURVE",
"399 331 OFFCURVE",
"403 332 CURVE SMOOTH",
"405 333 OFFCURVE",
"409 336 OFFCURVE",
"411 339 CURVE SMOOTH",
"414 344 OFFCURVE",
"414 350 OFFCURVE",
"414 418 CURVE SMOOTH",
"414 458 OFFCURVE",
"413 493 OFFCURVE",
"413 496 CURVE SMOOTH",
"410 505 OFFCURVE",
"401 509 OFFCURVE",
"383 509 CURVE SMOOTH",
"373 509 OFFCURVE",
"366 508 OFFCURVE",
"363 506 CURVE SMOOTH"
);
},
{
closed = 1;
nodes = (
"396 337 OFFCURVE",
"391 337 OFFCURVE",
"387 340 CURVE SMOOTH",
"384 342 OFFCURVE",
"384 344 OFFCURVE",
"386 347 CURVE SMOOTH",
"388 351 LINE",
"392 347 LINE SMOOTH",
"394 344 OFFCURVE",
"396 341 OFFCURVE",
"396 340 CURVE SMOOTH"
);
}
);
width = 420;
}
);
unicode = 0072;
},
{
glyphname = s;
lastChange = "2015-06-01 23:17:51 +0000";
layers = (
{
background = {
paths = (
{
closed = 1;
nodes = (
"234 509 OFFCURVE",
"221 508 OFFCURVE",
"216 507 CURVE SMOOTH",
"211 507 OFFCURVE",
"206 507 OFFCURVE",
"203 508 CURVE SMOOTH",
"200 510 OFFCURVE",
"198 510 OFFCURVE",
"193 508 CURVE SMOOTH",
"190 506 OFFCURVE",
"185 505 OFFCURVE",
"183 505 CURVE SMOOTH",
"180 505 OFFCURVE",
"173 502 OFFCURVE",
"167 500 CURVE SMOOTH",
"161 497 OFFCURVE",
"154 495 OFFCURVE",
"151 495 CURVE SMOOTH",
"145 495 OFFCURVE",
"107 477 OFFCURVE",
"104 473 CURVE SMOOTH",
"104 472 OFFCURVE",
"100 470 OFFCURVE",
"96 467 CURVE SMOOTH",
"83 461 OFFCURVE",
"56 428 OFFCURVE",
"47 409 CURVE SMOOTH",
"42 400 OFFCURVE",
"38 391 OFFCURVE",
"37 389 CURVE SMOOTH",
"29 374 OFFCURVE",
"26 361 OFFCURVE",
"27 336 CURVE SMOOTH",
"27 313 OFFCURVE",
"27 309 OFFCURVE",
"33 292 CURVE SMOOTH",
"42 263 OFFCURVE",
"63 238 OFFCURVE",
"90 222 CURVE SMOOTH",
"109 210 OFFCURVE",
"135 199 OFFCURVE",
"144 197 CURVE SMOOTH",
"148 196 OFFCURVE",
"153 195 OFFCURVE",
"154 194 CURVE SMOOTH",
"160 191 OFFCURVE",
"194 183 OFFCURVE",
"204 182 CURVE SMOOTH",
"210 182 OFFCURVE",
"216 180 OFFCURVE",
"219 179 CURVE SMOOTH",
"221 178 OFFCURVE",
"230 176 OFFCURVE",
"240 176 CURVE SMOOTH",
"267 175 OFFCURVE",
"297 171 OFFCURVE",
"307 168 CURVE SMOOTH",
"338 159 OFFCURVE",
"344 153 OFFCURVE",
"338 138 CURVE SMOOTH",
"334 124 OFFCURVE",
"330 121 OFFCURVE",
"319 116 CURVE SMOOTH",
"307 110 OFFCURVE",
"280 107 OFFCURVE",
"262 108 CURVE SMOOTH",
"255 108 OFFCURVE",
"247 108 OFFCURVE",
"245 107 CURVE SMOOTH",
"241 105 OFFCURVE",
"238 106 OFFCURVE",
"233 108 CURVE SMOOTH",
"229 109 OFFCURVE",
"220 111 OFFCURVE",
"214 113 CURVE SMOOTH",
"207 114 OFFCURVE",
"201 116 OFFCURVE",
"200 116 CURVE SMOOTH",
"199 117 OFFCURVE",
"192 120 OFFCURVE",
"184 122 CURVE SMOOTH",
"163 129 OFFCURVE",
"152 135 OFFCURVE",
"144 147 CURVE SMOOTH",
"134 162 OFFCURVE",
"129 165 OFFCURVE",
"118 162 CURVE SMOOTH",
"113 160 OFFCURVE",
"105 157 OFFCURVE",
"101 155 CURVE SMOOTH",
"98 152 OFFCURVE",
"91 149 OFFCURVE",
"87 148 CURVE SMOOTH",
"83 147 OFFCURVE",
"75 143 OFFCURVE",
"70 140 CURVE SMOOTH",
"58 132 OFFCURVE",
"57 131 OFFCURVE",
"41 124 CURVE SMOOTH",
"16 112 OFFCURVE",
"14 100 OFFCURVE",
"31 77 CURVE SMOOTH",
"57 44 OFFCURVE",
"85 23 OFFCURVE",
"124 11 CURVE SMOOTH",
"144 4 OFFCURVE",
"171 -2 OFFCURVE",
"180 -2 CURVE SMOOTH",
"183 -2 OFFCURVE",
"188 -4 OFFCURVE",
"193 -5 CURVE SMOOTH",
"200 -8 OFFCURVE",
"209 -8 OFFCURVE",
"253 -8 CURVE SMOOTH",
"306 -7 OFFCURVE",
"326 -5 OFFCURVE",
"346 1 CURVE SMOOTH",
"353 2 OFFCURVE",
"361 5 OFFCURVE",
"366 6 CURVE SMOOTH",
"383 10 OFFCURVE",
"399 16 OFFCURVE",
"408 22 CURVE SMOOTH",
"413 25 OFFCURVE",
"420 30 OFFCURVE",
"425 32 CURVE SMOOTH",
"444 41 OFFCURVE",
"454 49 OFFCURVE",
"469 67 CURVE SMOOTH",
"496 98 OFFCURVE",
"505 122 OFFCURVE",
"505 158 CURVE SMOOTH",
"505 179 OFFCURVE",
"499 216 OFFCURVE",
"493 226 CURVE SMOOTH",
"487 239 OFFCURVE",
"461 269 OFFCURVE",
"455 273 CURVE SMOOTH",
"451 275 OFFCURVE",
"444 279 OFFCURVE",
"440 284 CURVE SMOOTH",
"431 292 OFFCURVE",
"402 305 OFFCURVE",
"368 316 CURVE SMOOTH",
"356 320 OFFCURVE",
"345 324 OFFCURVE",
"344 325 CURVE SMOOTH",
"342 327 OFFCURVE",
"302 335 OFFCURVE",
"294 335 CURVE SMOOTH",
"291 335 OFFCURVE",
"281 336 OFFCURVE",
"272 338 CURVE SMOOTH",
"264 339 OFFCURVE",
"256 340 OFFCURVE",
"256 340 CURVE SMOOTH",
"253 338 OFFCURVE",
"231 342 OFFCURVE",
"216 347 CURVE SMOOTH",
"202 351 OFFCURVE",
"191 359 OFFCURVE",
"191 366 CURVE SMOOTH",
"191 372 OFFCURVE",
"200 386 OFFCURVE",
"206 388 CURVE SMOOTH",
"209 389 OFFCURVE",
"215 392 OFFCURVE",
"219 394 CURVE SMOOTH",
"226 398 OFFCURVE",
"230 398 OFFCURVE",
"253 398 CURVE SMOOTH",
"267 398 OFFCURVE",
"283 397 OFFCURVE",
"289 397 CURVE SMOOTH",
"306 395 OFFCURVE",
"326 385 OFFCURVE",
"347 366 CURVE SMOOTH",
"371 345 OFFCURVE",
"372 345 OFFCURVE",
"413 367 CURVE SMOOTH",
"416 368 OFFCURVE",
"428 374 OFFCURVE",
"440 380 CURVE SMOOTH",
"477 398 OFFCURVE",
"481 406 OFFCURVE",
"466 428 CURVE SMOOTH",
"453 445 OFFCURVE",
"431 464 OFFCURVE",
"416 471 CURVE SMOOTH",
"409 475 OFFCURVE",
"401 480 OFFCURVE",
"398 482 CURVE SMOOTH",
"396 485 OFFCURVE",
"392 487 OFFCURVE",
"390 487 CURVE SMOOTH",
"387 487 OFFCURVE",
"383 488 OFFCURVE",
"380 490 CURVE SMOOTH",
"371 494 OFFCURVE",
"349 501 OFFCURVE",
"344 501 CURVE SMOOTH",
"342 501 OFFCURVE",
"336 502 OFFCURVE",
"331 504 CURVE SMOOTH",
"326 505 OFFCURVE",
"317 506 OFFCURVE",
"313 506 CURVE SMOOTH",
"308 506 OFFCURVE",
"299 508 OFFCURVE",
"293 509 CURVE SMOOTH",
"282 512 OFFCURVE",
"275 513 OFFCURVE",
"244 510 CURVE SMOOTH"
);
}
);
};
layerId = "258ED206-D907-4350-8EBA-CBDDA1C16BF7";
name = Regular;
paths = (
{
closed = 1;
nodes = (
"242 510 OFFCURVE",
"229 509 OFFCURVE",
"224 508 CURVE SMOOTH",
"219 509 OFFCURVE",
"214 509 OFFCURVE",
"211 510 CURVE SMOOTH",
"208 512 OFFCURVE",
"206 512 OFFCURVE",
"201 510 CURVE SMOOTH",
"198 508 OFFCURVE",
"193 508 OFFCURVE",
"191 508 CURVE SMOOTH",
"188 508 OFFCURVE",
"181 505 OFFCURVE",
"175 503 CURVE SMOOTH",
"169 500 OFFCURVE",
"162 499 OFFCURVE",
"159 499 CURVE SMOOTH",
"153 499 OFFCURVE",
"114 482 OFFCURVE",
"111 478 CURVE SMOOTH",
"111 477 OFFCURVE",
"107 475 OFFCURVE",
"103 473 CURVE SMOOTH",
"89 467 OFFCURVE",
"61 435 OFFCURVE",
"52 416 CURVE SMOOTH",
"46 408 OFFCURVE",
"42 399 OFFCURVE",
"41 397 CURVE SMOOTH",
"32 382 OFFCURVE",
"29 369 OFFCURVE",
"29 344 CURVE SMOOTH",
"28 321 OFFCURVE",
"28 317 OFFCURVE",
"34 300 CURVE SMOOTH",
"42 271 OFFCURVE",
"62 245 OFFCURVE",
"88 228 CURVE SMOOTH",
"107 215 OFFCURVE",
"132 203 OFFCURVE",
"141 201 CURVE SMOOTH",
"145 200 OFFCURVE",
"150 199 OFFCURVE",
"151 198 CURVE SMOOTH",
"157 195 OFFCURVE",
"191 185 OFFCURVE",
"201 184 CURVE SMOOTH",
"207 184 OFFCURVE",
"213 182 OFFCURVE",
"215 181 CURVE SMOOTH",
"217 179 OFFCURVE",
"226 177 OFFCURVE",
"236 177 CURVE SMOOTH",
"263 175 OFFCURVE",
"293 170 OFFCURVE",
"303 166 CURVE SMOOTH",
"334 156 OFFCURVE",
"339 150 OFFCURVE",
"333 135 CURVE SMOOTH",
"328 122 OFFCURVE",
"324 119 OFFCURVE",
"313 114 CURVE SMOOTH",
"301 108 OFFCURVE",
"274 106 OFFCURVE",
"256 108 CURVE SMOOTH",
"249 108 OFFCURVE",
"241 109 OFFCURVE",
"239 108 CURVE SMOOTH",
"235 106 OFFCURVE",
"232 107 OFFCURVE",
"227 109 CURVE SMOOTH",
"223 110 OFFCURVE",
"214 113 OFFCURVE",
"208 115 CURVE SMOOTH",
"201 116 OFFCURVE",
"195 118 OFFCURVE",
"194 118 CURVE SMOOTH",
"193 119 OFFCURVE",
"186 123 OFFCURVE",
"179 125 CURVE SMOOTH",
"158 133 OFFCURVE",
"147 139 OFFCURVE",
"139 151 CURVE SMOOTH",
"130 166 OFFCURVE",
"125 170 OFFCURVE",
"114 167 CURVE SMOOTH",
"109 165 OFFCURVE",
"101 163 OFFCURVE",
"97 161 CURVE SMOOTH",
"94 158 OFFCURVE",
"87 155 OFFCURVE",
"82 154 CURVE SMOOTH",
"78 153 OFFCURVE",
"70 150 OFFCURVE",
"65 147 CURVE SMOOTH",
"53 139 OFFCURVE",
"52 138 OFFCURVE",
"36 132 CURVE SMOOTH",
"10 121 OFFCURVE",
"8 109 OFFCURVE",
"24 85 CURVE SMOOTH",
"49 51 OFFCURVE",
"76 29 OFFCURVE",
"115 16 CURVE SMOOTH",
"134 8 OFFCURVE",
"161 1 OFFCURVE",
"170 1 CURVE SMOOTH",
"173 1 OFFCURVE",
"178 -1 OFFCURVE",
"183 -2 CURVE SMOOTH",
"190 -6 OFFCURVE",
"199 -6 OFFCURVE",
"243 -8 CURVE SMOOTH",
"296 -8 OFFCURVE",
"316 -7 OFFCURVE",
"336 -2 CURVE SMOOTH",
"343 -1 OFFCURVE",
"351 2 OFFCURVE",
"356 2 CURVE SMOOTH",
"373 6 OFFCURVE",
"390 11 OFFCURVE",
"399 17 CURVE SMOOTH",
"404 20 OFFCURVE",
"411 25 OFFCURVE",
"416 26 CURVE SMOOTH",
"436 35 OFFCURVE",
"446 42 OFFCURVE",
"461 60 CURVE SMOOTH",
"489 90 OFFCURVE",
"499 114 OFFCURVE",
"501 150 CURVE SMOOTH",
"501 171 OFFCURVE",
"497 208 OFFCURVE",
"491 218 CURVE SMOOTH",
"485 231 OFFCURVE",
"460 262 OFFCURVE",
"455 266 CURVE SMOOTH",
"451 268 OFFCURVE",
"444 273 OFFCURVE",
"440 278 CURVE SMOOTH",
"431 286 OFFCURVE",
"403 300 OFFCURVE",
"369 312 CURVE SMOOTH",
"357 317 OFFCURVE",
"346 321 OFFCURVE",
"346 322 CURVE SMOOTH",
"344 324 OFFCURVE",
"304 334 OFFCURVE",
"296 334 CURVE SMOOTH",
"293 334 OFFCURVE",
"283 335 OFFCURVE",
"274 338 CURVE SMOOTH",
"266 339 OFFCURVE",
"258 340 OFFCURVE",
"258 340 CURVE SMOOTH",
"255 338 OFFCURVE",
"233 343 OFFCURVE",
"218 349 CURVE SMOOTH",
"204 353 OFFCURVE",
"194 361 OFFCURVE",
"194 368 CURVE SMOOTH",
"194 374 OFFCURVE",
"204 388 OFFCURVE",
"210 390 CURVE SMOOTH",
"213 391 OFFCURVE",
"219 394 OFFCURVE",
"223 395 CURVE SMOOTH",
"230 399 OFFCURVE",
"234 399 OFFCURVE",
"257 398 CURVE SMOOTH",
"271 398 OFFCURVE",
"287 396 OFFCURVE",
"293 396 CURVE SMOOTH",
"310 393 OFFCURVE",
"330 383 OFFCURVE",
"350 363 CURVE SMOOTH",
"373 341 OFFCURVE",
"374 341 OFFCURVE",
"416 362 CURVE SMOOTH",
"419 363 OFFCURVE",
"431 368 OFFCURVE",
"443 374 CURVE SMOOTH",
"481 390 OFFCURVE",
"485 398 OFFCURVE",
"471 421 CURVE SMOOTH",
"459 438 OFFCURVE",
"437 458 OFFCURVE",
"423 465 CURVE SMOOTH",
"416 470 OFFCURVE",
"408 475 OFFCURVE",
"405 477 CURVE SMOOTH",
"403 480 OFFCURVE",
"399 482 OFFCURVE",
"397 482 CURVE SMOOTH",
"394 482 OFFCURVE",
"390 484 OFFCURVE",
"387 486 CURVE SMOOTH",
"378 490 OFFCURVE",
"357 498 OFFCURVE",
"352 498 CURVE SMOOTH",
"350 498 OFFCURVE",
"344 499 OFFCURVE",
"339 501 CURVE SMOOTH",
"334 503 OFFCURVE",
"325 504 OFFCURVE",
"321 504 CURVE SMOOTH",
"316 504 OFFCURVE",
"307 507 OFFCURVE",
"301 508 CURVE SMOOTH",
"290 511 OFFCURVE",
"283 512 OFFCURVE",
"252 510 CURVE SMOOTH"
);
}
);
width = 520;
}
);
unicode = 0073;
},
{
glyphname = t;
lastChange = "2015-06-01 23:09:10 +0000";
layers = (
{
layerId = "258ED206-D907-4350-8EBA-CBDDA1C16BF7";
name = Regular;
paths = (
{
closed = 1;
nodes = (
"207 669 OFFCURVE",
"194 669 OFFCURVE",
"183 669 CURVE SMOOTH",
"155 671 OFFCURVE",
"119 671 OFFCURVE",
"113 669 CURVE SMOOTH",
"102 666 OFFCURVE",
"98 649 OFFCURVE",
"94 588 CURVE SMOOTH",
"88 507 OFFCURVE",
"89 511 OFFCURVE",
"84 506 CURVE SMOOTH",
"78 500 OFFCURVE",
"62 498 OFFCURVE",
"46 501 CURVE SMOOTH",
"39 503 OFFCURVE",
"28 503 OFFCURVE",
"17 502 CURVE SMOOTH",
"-9 500 OFFCURVE",
"-8 502 OFFCURVE",
"-9 442 CURVE SMOOTH",
"-9 396 OFFCURVE",
"-9 393 OFFCURVE",
"-5 387 CURVE SMOOTH",
"-1 379 OFFCURVE",
"7 376 OFFCURVE",
"17 378 CURVE SMOOTH",
"21 378 OFFCURVE",
"35 379 OFFCURVE",
"48 379 CURVE SMOOTH",
"82 380 OFFCURVE",
"79 387 OFFCURVE",
"78 303 CURVE SMOOTH",
"77 134 OFFCURVE",
"77 116 OFFCURVE",
"82 95 CURVE SMOOTH",
"85 84 OFFCURVE",
"88 74 OFFCURVE",
"89 73 CURVE SMOOTH",
"91 71 OFFCURVE",
"93 67 OFFCURVE",
"95 63 CURVE SMOOTH",
"105 42 OFFCURVE",
"145 17 OFFCURVE",
"179 9 CURVE SMOOTH",
"197 4 OFFCURVE",
"252 0 OFFCURVE",
"278 0 CURVE SMOOTH",
"298 0 OFFCURVE",
"359 6 OFFCURVE",
"368 9 CURVE SMOOTH",
"372 10 OFFCURVE",
"377 14 OFFCURVE",
"379 17 CURVE SMOOTH",
"383 22 OFFCURVE",
"384 24 OFFCURVE",
"383 70 CURVE SMOOTH",
"383 115 OFFCURVE",
"383 118 OFFCURVE",
"379 122 CURVE SMOOTH",
"375 126 OFFCURVE",
"362 130 OFFCURVE",
"353 129 CURVE SMOOTH",
"327 129 OFFCURVE",
"315 129 OFFCURVE",
"300 133 CURVE SMOOTH",
"282 138 OFFCURVE",
"274 143 OFFCURVE",
"266 156 CURVE SMOOTH",
"261 164 OFFCURVE",
"261 167 OFFCURVE",
"261 182 CURVE SMOOTH",
"263 348 OFFCURVE",
"264 375 OFFCURVE",
"269 379 CURVE SMOOTH",
"272 381 OFFCURVE",
"274 381 OFFCURVE",
"332 381 CURVE SMOOTH",
"375 380 OFFCURVE",
"379 381 OFFCURVE",
"383 390 CURVE SMOOTH",
"385 396 OFFCURVE",
"385 470 OFFCURVE",
"383 485 CURVE SMOOTH",
"381 498 OFFCURVE",
"369 503 OFFCURVE",
"348 500 CURVE SMOOTH",
"341 499 OFFCURVE",
"329 499 OFFCURVE",
"321 499 CURVE SMOOTH",
"314 500 OFFCURVE",
"298 500 OFFCURVE",
"286 500 CURVE SMOOTH",
"267 501 OFFCURVE",
"265 501 OFFCURVE",
"264 505 CURVE SMOOTH",
"263 507 OFFCURVE",
"263 519 OFFCURVE",
"263 532 CURVE SMOOTH",
"263 545 OFFCURVE",
"264 569 OFFCURVE",
"264 586 CURVE SMOOTH",
"264 602 OFFCURVE",
"265 620 OFFCURVE",
"266 625 CURVE SMOOTH",
"267 631 OFFCURVE",
"267 636 OFFCURVE",
"266 644 CURVE SMOOTH",
"264 654 OFFCURVE",
"262 657 OFFCURVE",
"254 664 CURVE SMOOTH",
"245 673 OFFCURVE",
"244 673 OFFCURVE",
"235 673 CURVE SMOOTH",
"230 673 OFFCURVE",
"220 672 OFFCURVE",
"214 670 CURVE SMOOTH"
);
},
{
closed = 1;
nodes = (
"244 653 OFFCURVE",
"243 652 OFFCURVE",
"243 652 CURVE SMOOTH",
"243 652 OFFCURVE",
"242 653 OFFCURVE",
"242 655 CURVE SMOOTH",
"242 656 OFFCURVE",
"243 658 OFFCURVE",
"244 658 CURVE SMOOTH",
"245 658 OFFCURVE",
"245 656 OFFCURVE",
"245 655 CURVE SMOOTH"
);
}
);
width = 390;
}
);
unicode = 0074;
},
{
glyphname = u;
lastChange = "2015-06-01 23:18:05 +0000";
layers = (
{
layerId = "258ED206-D907-4350-8EBA-CBDDA1C16BF7";
name = Regular;
paths = (
{
closed = 1;
nodes = (
"48 506 OFFCURVE",
"40 504 OFFCURVE",
"39 503 CURVE SMOOTH",
"31 499 OFFCURVE",
"31 496 OFFCURVE",
"31 367 CURVE SMOOTH",
"31 298 OFFCURVE",
"30 216 OFFCURVE",
"30 185 CURVE SMOOTH",
"30 129 OFFCURVE",
"30 128 OFFCURVE",
"35 105 CURVE SMOOTH",
"47 56 OFFCURVE",
"65 34 OFFCURVE",
"112 12 CURVE SMOOTH",
"131 3 OFFCURVE",
"136 1 OFFCURVE",
"158 0 CURVE SMOOTH",
"198 -1 OFFCURVE",
"230 3 OFFCURVE",
"256 15 CURVE SMOOTH",
"265 19 OFFCURVE",
"273 22 OFFCURVE",
"274 22 CURVE SMOOTH",
"275 22 OFFCURVE",
"277 24 OFFCURVE",
"278 25 CURVE SMOOTH",
"280 27 OFFCURVE",
"285 31 OFFCURVE",
"291 34 CURVE SMOOTH",
"296 37 OFFCURVE",
"308 47 OFFCURVE",
"318 56 CURVE SMOOTH",
"327 66 OFFCURVE",
"336 73 OFFCURVE",
"338 73 CURVE SMOOTH",
"342 73 OFFCURVE",
"343 68 OFFCURVE",
"343 43 CURVE SMOOTH",
"342 17 LINE",
"348 12 LINE SMOOTH",
"356 6 OFFCURVE",
"369 4 OFFCURVE",
"400 6 CURVE SMOOTH",
"427 8 OFFCURVE",
"423 8 OFFCURVE",
"454 6 CURVE SMOOTH",
"482 4 OFFCURVE",
"503 4 OFFCURVE",
"511 6 CURVE SMOOTH",
"516 8 OFFCURVE",
"518 10 OFFCURVE",
"522 18 CURVE SMOOTH",
"527 28 LINE",
"526 85 LINE SMOOTH",
"526 117 OFFCURVE",
"526 145 OFFCURVE",
"525 149 CURVE SMOOTH",
"524 153 OFFCURVE",
"525 162 OFFCURVE",
"527 172 CURVE SMOOTH",
"530 185 OFFCURVE",
"530 189 OFFCURVE",
"528 197 CURVE SMOOTH",
"527 202 OFFCURVE",
"526 208 OFFCURVE",
"527 210 CURVE SMOOTH",
"528 215 OFFCURVE",
"531 409 OFFCURVE",
"530 459 CURVE SMOOTH",
"530 477 OFFCURVE",
"529 492 OFFCURVE",
"528 494 CURVE SMOOTH",
"523 504 OFFCURVE",
"522 504 OFFCURVE",
"438 505 CURVE SMOOTH",
"395 505 OFFCURVE",
"357 505 OFFCURVE",
"354 504 CURVE SMOOTH",
"340 500 OFFCURVE",
"341 512 OFFCURVE",
"341 330 CURVE SMOOTH",
"341 167 LINE",
"332 158 LINE SMOOTH",
"319 147 OFFCURVE",
"304 137 OFFCURVE",
"289 131 CURVE SMOOTH",
"280 128 OFFCURVE",
"275 127 OFFCURVE",
"263 128 CURVE SMOOTH",
"246 130 OFFCURVE",
"243 131 OFFCURVE",
"231 144 CURVE SMOOTH",
"219 155 OFFCURVE",
"216 166 OFFCURVE",
"216 194 CURVE SMOOTH",
"216 206 OFFCURVE",
"216 216 OFFCURVE",
"217 217 CURVE SMOOTH",
"218 220 OFFCURVE",
"218 315 OFFCURVE",
"217 321 CURVE SMOOTH",
"216 324 OFFCURVE",
"217 332 OFFCURVE",
"219 338 CURVE SMOOTH",
"220 345 OFFCURVE",
"221 351 OFFCURVE",
"220 353 CURVE SMOOTH",
"220 354 OFFCURVE",
"219 386 OFFCURVE",
"220 425 CURVE SMOOTH",
"220 494 LINE",
"215 499 LINE SMOOTH",
"211 503 OFFCURVE",
"207 504 OFFCURVE",
"200 504 CURVE SMOOTH",
"195 504 OFFCURVE",
"181 505 OFFCURVE",
"167 505 CURVE SMOOTH",
"127 507 OFFCURVE",
"71 507 OFFCURVE",
"56 506 CURVE SMOOTH"
);
}
);
width = 560;
}
);
unicode = 0075;
},
{
glyphname = v;
lastChange = "2015-06-01 23:10:28 +0000";
layers = (
{
layerId = "258ED206-D907-4350-8EBA-CBDDA1C16BF7";
name = Regular;
paths = (
{
closed = 1;
nodes = (
"9 503 OFFCURVE",
"3 501 OFFCURVE",
"1 500 CURVE SMOOTH",
"-4 495 OFFCURVE",
"-4 484 OFFCURVE",
"0 473 CURVE SMOOTH",
"2 468 OFFCURVE",
"4 462 OFFCURVE",
"4 460 CURVE SMOOTH",
"4 458 OFFCURVE",
"7 451 OFFCURVE",
"10 444 CURVE SMOOTH",
"24 414 OFFCURVE",
"36 386 OFFCURVE",
"42 368 CURVE SMOOTH",
"45 359 OFFCURVE",
"49 349 OFFCURVE",
"51 346 CURVE SMOOTH",
"53 342 OFFCURVE",
"57 331 OFFCURVE",
"61 322 CURVE SMOOTH",
"64 313 OFFCURVE",
"69 301 OFFCURVE",
"71 296 CURVE SMOOTH",
"74 290 OFFCURVE",
"82 272 OFFCURVE",
"89 255 CURVE SMOOTH",
"96 238 OFFCURVE",
"104 220 OFFCURVE",
"106 215 CURVE SMOOTH",
"108 210 OFFCURVE",
"111 201 OFFCURVE",
"113 195 CURVE SMOOTH",
"117 186 OFFCURVE",
"126 163 OFFCURVE",
"145 116 CURVE SMOOTH",
"148 109 OFFCURVE",
"154 92 OFFCURVE",
"160 79 CURVE SMOOTH",
"165 66 OFFCURVE",
"170 54 OFFCURVE",
"170 52 CURVE SMOOTH",
"170 51 OFFCURVE",
"171 49 OFFCURVE",
"172 48 CURVE SMOOTH",
"173 47 OFFCURVE",
"176 41 OFFCURVE",
"178 33 CURVE SMOOTH",
"181 22 OFFCURVE",
"184 17 OFFCURVE",
"190 11 CURVE SMOOTH",
"201 1 OFFCURVE",
"207 0 OFFCURVE",
"249 2 CURVE SMOOTH",
"265 2 OFFCURVE",
"285 2 OFFCURVE",
"294 1 CURVE SMOOTH",
"308 -1 OFFCURVE",
"312 0 OFFCURVE",
"319 3 CURVE SMOOTH",
"323 5 OFFCURVE",
"329 8 OFFCURVE",
"331 10 CURVE SMOOTH",
"335 14 OFFCURVE",
"347 39 OFFCURVE",
"347 43 CURVE SMOOTH",
"347 45 OFFCURVE",
"349 49 OFFCURVE",
"351 53 CURVE SMOOTH",
"353 57 OFFCURVE",
"356 64 OFFCURVE",
"357 69 CURVE SMOOTH",
"358 73 OFFCURVE",
"361 79 OFFCURVE",
"362 81 CURVE SMOOTH",
"364 85 OFFCURVE",
"372 103 OFFCURVE",
"379 121 CURVE SMOOTH",
"381 127 OFFCURVE",
"384 134 OFFCURVE",
"386 136 CURVE SMOOTH",
"387 138 OFFCURVE",
"388 141 OFFCURVE",
"388 142 CURVE SMOOTH",
"388 144 OFFCURVE",
"390 149 OFFCURVE",
"392 153 CURVE SMOOTH",
"394 158 OFFCURVE",
"399 170 OFFCURVE",
"403 180 CURVE SMOOTH",
"407 190 OFFCURVE",
"412 203 OFFCURVE",
"415 208 CURVE SMOOTH",
"417 213 OFFCURVE",
"421 224 OFFCURVE",
"424 232 CURVE SMOOTH",
"431 251 OFFCURVE",
"437 264 OFFCURVE",
"446 285 CURVE SMOOTH",
"449 294 OFFCURVE",
"453 304 OFFCURVE",
"455 308 CURVE SMOOTH",
"457 317 OFFCURVE",
"471 348 OFFCURVE",
"486 381 CURVE SMOOTH",
"492 395 OFFCURVE",
"498 407 OFFCURVE",
"498 408 CURVE SMOOTH",
"498 410 OFFCURVE",
"505 428 OFFCURVE",
"512 441 CURVE SMOOTH",
"520 457 OFFCURVE",
"527 479 OFFCURVE",
"526 485 CURVE SMOOTH",
"525 487 OFFCURVE",
"522 492 OFFCURVE",
"519 495 CURVE SMOOTH",
"513 500 OFFCURVE",
"512 501 OFFCURVE",
"490 501 CURVE SMOOTH",
"478 501 OFFCURVE",
"452 502 OFFCURVE",
"432 502 CURVE SMOOTH",
"387 503 OFFCURVE",
"387 503 OFFCURVE",
"375 473 CURVE SMOOTH",
"367 454 OFFCURVE",
"363 442 OFFCURVE",
"351 408 CURVE SMOOTH",
"349 402 OFFCURVE",
"346 393 OFFCURVE",
"344 387 CURVE SMOOTH",
"343 382 OFFCURVE",
"340 373 OFFCURVE",
"337 367 CURVE SMOOTH",
"331 353 OFFCURVE",
"327 344 OFFCURVE",
"317 314 CURVE SMOOTH",
"313 301 OFFCURVE",
"307 286 OFFCURVE",
"304 281 CURVE SMOOTH",
"301 276 OFFCURVE",
"298 269 OFFCURVE",
"297 264 CURVE SMOOTH",
"295 256 OFFCURVE",
"290 252 OFFCURVE",
"286 256 CURVE SMOOTH",
"284 258 OFFCURVE",
"258 322 OFFCURVE",
"250 345 CURVE SMOOTH",
"247 353 OFFCURVE",
"242 367 OFFCURVE",
"239 376 CURVE SMOOTH",
"232 394 OFFCURVE",
"230 399 OFFCURVE",
"215 443 CURVE SMOOTH",
"200 484 OFFCURVE",
"195 496 OFFCURVE",
"189 499 CURVE SMOOTH",
"186 501 OFFCURVE",
"173 502 OFFCURVE",
"136 503 CURVE SMOOTH",
"109 503 OFFCURVE",
"73 504 OFFCURVE",
"57 504 CURVE SMOOTH",
"40 505 OFFCURVE",
"22 505 OFFCURVE",
"15 504 CURVE SMOOTH"
);
}
);
width = 520;
}
);
unicode = 0076;
},
{
glyphname = w;
lastChange = "2015-06-01 23:18:29 +0000";
layers = (
{
layerId = "258ED206-D907-4350-8EBA-CBDDA1C16BF7";
name = Regular;
paths = (
{
closed = 1;
nodes = (
"10 499 OFFCURVE",
"7 498 OFFCURVE",
"4 498 CURVE SMOOTH",
"1 497 OFFCURVE",
"-3 494 OFFCURVE",
"-5 492 CURVE SMOOTH",
"-7 488 OFFCURVE",
"-7 486 OFFCURVE",
"-5 474 CURVE SMOOTH",
"-2 460 OFFCURVE",
"11 420 OFFCURVE",
"14 415 CURVE SMOOTH",
"18 408 OFFCURVE",
"28 387 OFFCURVE",
"28 384 CURVE SMOOTH",
"28 383 OFFCURVE",
"31 373 OFFCURVE",
"35 361 CURVE SMOOTH",
"40 350 OFFCURVE",
"44 334 OFFCURVE",
"46 327 CURVE SMOOTH",
"47 320 OFFCURVE",
"51 310 OFFCURVE",
"54 304 CURVE SMOOTH",
"56 299 OFFCURVE",
"59 291 OFFCURVE",
"61 286 CURVE SMOOTH",
"62 281 OFFCURVE",
"66 269 OFFCURVE",
"70 260 CURVE SMOOTH",
"73 250 OFFCURVE",
"82 224 OFFCURVE",
"89 201 CURVE SMOOTH",
"96 178 OFFCURVE",
"103 158 OFFCURVE",
"105 154 CURVE SMOOTH",
"106 151 OFFCURVE",
"109 141 OFFCURVE",
"112 133 CURVE SMOOTH",
"114 124 OFFCURVE",
"117 115 OFFCURVE",
"118 111 CURVE SMOOTH",
"122 104 OFFCURVE",
"145 34 OFFCURVE",
"145 31 CURVE SMOOTH",
"145 30 OFFCURVE",
"147 24 OFFCURVE",
"150 18 CURVE SMOOTH",
"159 -1 OFFCURVE",
"157 0 OFFCURVE",
"228 0 CURVE SMOOTH",
"287 0 OFFCURVE",
"289 0 OFFCURVE",
"293 4 CURVE SMOOTH",
"297 9 OFFCURVE",
"303 28 OFFCURVE",
"317 77 CURVE SMOOTH",
"323 100 OFFCURVE",
"355 194 OFFCURVE",
"357 197 CURVE SMOOTH",
"358 199 OFFCURVE",
"361 205 OFFCURVE",
"363 212 CURVE SMOOTH",
"367 226 OFFCURVE",
"373 232 OFFCURVE",
"376 226 CURVE SMOOTH",
"380 219 OFFCURVE",
"402 151 OFFCURVE",
"402 147 CURVE SMOOTH",
"402 146 OFFCURVE",
"403 142 OFFCURVE",
"405 139 CURVE SMOOTH",
"408 132 OFFCURVE",
"413 115 OFFCURVE",
"421 90 CURVE SMOOTH",
"423 80 OFFCURVE",
"429 63 OFFCURVE",
"432 51 CURVE SMOOTH",
"436 39 OFFCURVE",
"440 24 OFFCURVE",
"442 18 CURVE SMOOTH",
"447 1 OFFCURVE",
"447 1 OFFCURVE",
"515 1 CURVE SMOOTH",
"569 1 LINE",
"577 6 LINE SMOOTH",
"585 11 OFFCURVE",
"591 24 OFFCURVE",
"598 48 CURVE SMOOTH",
"604 71 OFFCURVE",
"610 90 OFFCURVE",
"616 106 CURVE SMOOTH",
"620 114 OFFCURVE",
"629 140 OFFCURVE",
"637 163 CURVE SMOOTH",
"650 202 OFFCURVE",
"653 211 OFFCURVE",
"660 226 CURVE SMOOTH",
"663 232 OFFCURVE",
"667 244 OFFCURVE",
"684 292 CURVE SMOOTH",
"688 303 OFFCURVE",
"693 321 OFFCURVE",
"696 331 CURVE SMOOTH",
"707 366 OFFCURVE",
"710 375 OFFCURVE",
"716 385 CURVE SMOOTH",
"721 396 OFFCURVE",
"732 423 OFFCURVE",
"738 442 CURVE SMOOTH",
"740 447 OFFCURVE",
"743 457 OFFCURVE",
"746 466 CURVE SMOOTH",
"751 480 OFFCURVE",
"751 481 OFFCURVE",
"748 488 CURVE SMOOTH",
"745 495 LINE",
"729 495 LINE SMOOTH",
"720 495 OFFCURVE",
"695 495 OFFCURVE",
"674 495 CURVE SMOOTH",
"640 496 OFFCURVE",
"634 496 OFFCURVE",
"627 493 CURVE SMOOTH",
"623 491 OFFCURVE",
"618 488 OFFCURVE",
"617 487 CURVE SMOOTH",
"614 482 OFFCURVE",
"599 437 OFFCURVE",
"597 422 CURVE SMOOTH",
"595 415 OFFCURVE",
"593 406 OFFCURVE",
"591 402 CURVE SMOOTH",
"589 398 OFFCURVE",
"580 370 OFFCURVE",
"570 340 CURVE SMOOTH",
"551 284 OFFCURVE",
"545 266 OFFCURVE",
"542 266 CURVE SMOOTH",
"539 266 OFFCURVE",
"529 291 OFFCURVE",
"527 303 CURVE SMOOTH",
"526 310 OFFCURVE",
"524 317 OFFCURVE",
"523 319 CURVE SMOOTH",
"520 325 OFFCURVE",
"505 371 OFFCURVE",
"505 375 CURVE SMOOTH",
"505 378 OFFCURVE",
"504 384 OFFCURVE",
"502 391 CURVE SMOOTH",
"499 397 OFFCURVE",
"496 407 OFFCURVE",
"495 413 CURVE SMOOTH",
"493 419 OFFCURVE",
"489 435 OFFCURVE",
"485 450 CURVE SMOOTH",
"481 464 OFFCURVE",
"476 480 OFFCURVE",
"474 484 CURVE SMOOTH",
"470 492 OFFCURVE",
"457 502 OFFCURVE",
"452 500 CURVE SMOOTH",
"450 499 OFFCURVE",
"433 498 OFFCURVE",
"413 497 CURVE SMOOTH",
"336 495 OFFCURVE",
"337 495 OFFCURVE",
"332 491 CURVE SMOOTH",
"329 489 OFFCURVE",
"325 483 OFFCURVE",
"323 474 CURVE SMOOTH",
"315 449 OFFCURVE",
"306 422 OFFCURVE",
"306 419 CURVE SMOOTH",
"306 418 OFFCURVE",
"306 415 OFFCURVE",
"305 413 CURVE SMOOTH",
"304 411 OFFCURVE",
"301 403 OFFCURVE",
"299 395 CURVE SMOOTH",
"297 387 OFFCURVE",
"292 372 OFFCURVE",
"288 361 CURVE SMOOTH",
"284 350 OFFCURVE",
"280 337 OFFCURVE",
"278 331 CURVE SMOOTH",
"276 325 OFFCURVE",
"273 317 OFFCURVE",
"271 313 CURVE SMOOTH",
"269 310 OFFCURVE",
"265 299 OFFCURVE",
"263 291 CURVE SMOOTH",
"256 269 OFFCURVE",
"255 268 OFFCURVE",
"250 276 CURVE SMOOTH",
"248 280 OFFCURVE",
"246 285 OFFCURVE",
"246 287 CURVE SMOOTH",
"246 290 OFFCURVE",
"245 292 OFFCURVE",
"244 293 CURVE SMOOTH",
"243 293 OFFCURVE",
"242 296 OFFCURVE",
"241 298 CURVE SMOOTH",
"241 301 OFFCURVE",
"235 318 OFFCURVE",
"228 337 CURVE SMOOTH",
"222 355 OFFCURVE",
"216 374 OFFCURVE",
"215 379 CURVE SMOOTH",
"214 384 OFFCURVE",
"212 390 OFFCURVE",
"210 393 CURVE SMOOTH",
"209 396 OFFCURVE",
"207 401 OFFCURVE",
"206 405 CURVE SMOOTH",
"205 409 OFFCURVE",
"202 420 OFFCURVE",
"199 430 CURVE SMOOTH",
"190 458 OFFCURVE",
"190 460 OFFCURVE",
"188 469 CURVE SMOOTH",
"187 481 OFFCURVE",
"179 494 OFFCURVE",
"172 498 CURVE SMOOTH",
"167 500 OFFCURVE",
"162 500 OFFCURVE",
"146 499 CURVE SMOOTH",
"135 498 OFFCURVE",
"124 497 OFFCURVE",
"122 496 CURVE SMOOTH",
"119 495 OFFCURVE",
"113 496 OFFCURVE",
"108 497 CURVE SMOOTH",
"98 498 OFFCURVE",
"15 501 OFFCURVE",
"11 500 CURVE SMOOTH"
);
},
{
closed = 1;
nodes = (
"344 308 OFFCURVE",
"344 307 OFFCURVE",
"342 305 CURVE SMOOTH",
"338 303 OFFCURVE",
"336 305 OFFCURVE",
"336 309 CURVE SMOOTH",
"336 314 OFFCURVE",
"338 314 OFFCURVE",
"342 310 CURVE SMOOTH"
);
}
);
width = 740;
}
);
unicode = 0077;
},
